%FSLAX33Y33*%
%MOMM*%
%AMRect-W1650000-H1650000-RO1.500*
21,1,1.65,1.65,0.,0.,90*%
%AMRect-W1650000-H1650000-RO0.500*
21,1,1.65,1.65,0.,0.,270*%
%AMRect-W2540000-H5588000-RO0.760*
21,1,2.54,5.588,0.,0.,223*%
%ADD10C,0.4572*%
%ADD11C,0.508*%
%ADD12C,0.381*%
%ADD13C,0.6858*%
%ADD14C,1.65*%
%ADD15Rect-W1650000-H1650000-RO1.500*%
%ADD16C,1.65*%
%ADD17Rect-W1650000-H1650000-RO0.500*%
%ADD18C,4.*%
%ADD19Rect-W2540000-H5588000-RO0.760*%
D10*
%LNpour fill*%
G36*
G01*
X6035Y0054D02*
X5701Y0284D01*
X5455Y0752D01*
X5455Y1280D01*
X5701Y1748D01*
X6136Y2049D01*
X6661Y2112D01*
X7155Y1925D01*
X7506Y1529D01*
X7632Y1016D01*
X7506Y0503D01*
X7155Y0107D01*
X7037Y0062D01*
X7049Y0D01*
X8558Y0D01*
X8575Y0054D01*
X8241Y0284D01*
X7995Y0752D01*
X7995Y1280D01*
X8241Y1748D01*
X8676Y2049D01*
X9201Y2112D01*
X9404Y2035D01*
X9437Y2087D01*
X8759Y2766D01*
X8704Y2848D01*
X8649Y2930D01*
X8649Y2930D01*
X8649Y2931D01*
X8630Y3027D01*
X8611Y3124D01*
X8629Y12846D01*
X8572Y13056D01*
X8630Y13268D01*
X8634Y15494D01*
X8586Y15514D01*
X1486Y8192D01*
X1486Y7127D01*
X1555Y7058D01*
X1638Y6747D01*
X1587Y6556D01*
X1636Y6527D01*
X3023Y7829D01*
X7231Y3348D01*
X4972Y1227D01*
X0764Y5708D01*
X1197Y6114D01*
X1168Y6166D01*
X1016Y6125D01*
X0884Y6160D01*
X0836Y6170D01*
X0828Y6175D01*
X0705Y6208D01*
X0477Y6436D01*
X0394Y6747D01*
X0477Y7058D01*
X0546Y7127D01*
X0546Y8382D01*
X0563Y8468D01*
X0579Y8555D01*
X0581Y8558D01*
X0582Y8562D01*
X0631Y8635D01*
X0679Y8709D01*
X8547Y16823D01*
X8522Y16916D01*
X8605Y17228D01*
X8833Y17455D01*
X9144Y17539D01*
X9211Y17521D01*
X12547Y19862D01*
X7179Y23212D01*
X5512Y21684D01*
X5492Y21609D01*
X5264Y21381D01*
X4953Y21298D01*
X4642Y21381D01*
X4414Y21609D01*
X4331Y21920D01*
X4414Y22231D01*
X4642Y22459D01*
X4836Y22511D01*
X6550Y24083D01*
X6579Y24191D01*
X6806Y24419D01*
X7118Y24502D01*
X7429Y24419D01*
X7657Y24191D01*
X7663Y24168D01*
X9763Y22857D01*
X9868Y23026D01*
X9868Y23930D01*
X10773Y23930D01*
X10773Y23026D01*
X9868Y23026D01*
X9763Y22857D01*
X13544Y20497D01*
X13738Y20445D01*
X13895Y20324D01*
X14030Y20170D01*
X14052Y20149D01*
X14053Y20144D01*
X14738Y19362D01*
X14955Y19552D01*
X14927Y19655D01*
X14925Y19659D01*
X14921Y19679D01*
X14872Y19863D01*
X14921Y20047D01*
X14925Y20067D01*
X14927Y20070D01*
X14955Y20174D01*
X15183Y20402D01*
X15494Y20485D01*
X15805Y20402D01*
X15811Y20396D01*
X19661Y20396D01*
X19681Y20442D01*
X18169Y22052D01*
X19311Y23124D01*
X19220Y23221D01*
X18726Y23034D01*
X18201Y23097D01*
X17766Y23398D01*
X17520Y23866D01*
X17520Y24394D01*
X17766Y24862D01*
X18201Y25163D01*
X18726Y25226D01*
X19220Y25039D01*
X19571Y24643D01*
X19697Y24130D01*
X19571Y23617D01*
X19220Y23221D01*
X19311Y23124D01*
X20428Y24173D01*
X24636Y19692D01*
X22377Y17571D01*
X20726Y19329D01*
X15811Y19329D01*
X15805Y19324D01*
X15494Y19241D01*
X15183Y19324D01*
X14955Y19552D01*
X14738Y19362D01*
X17119Y16643D01*
X17205Y16620D01*
X17433Y16393D01*
X17498Y16151D01*
X21153Y10895D01*
X21225Y10876D01*
X21452Y10648D01*
X21536Y10337D01*
X21452Y10026D01*
X21225Y9798D01*
X20914Y9715D01*
X20602Y9798D01*
X20375Y10026D01*
X20291Y10337D01*
X20295Y10350D01*
X16706Y15509D01*
X16583Y15542D01*
X16355Y15770D01*
X16277Y16063D01*
X13503Y19230D01*
X9652Y16527D01*
X9646Y13455D01*
X9734Y13367D01*
X9817Y13056D01*
X10468Y12907D01*
X10646Y13689D01*
X10987Y14117D01*
X11179Y14320D01*
X11162Y14336D01*
X11279Y14482D01*
X12193Y14922D01*
X13207Y14922D01*
X14121Y14482D01*
X14149Y14447D01*
X12694Y12897D01*
X11179Y14320D01*
X10987Y14117D01*
X12503Y12694D01*
X11075Y11174D01*
X11279Y10982D01*
X12706Y12503D01*
X14221Y11080D01*
X14413Y11283D01*
X12897Y12706D01*
X14325Y14226D01*
X14754Y13689D01*
X14979Y12700D01*
X14754Y11711D01*
X14413Y11283D01*
X14221Y11080D01*
X14238Y11064D01*
X14121Y10918D01*
X13207Y10478D01*
X12193Y10478D01*
X11279Y10918D01*
X11251Y10953D01*
X11279Y10982D01*
X11075Y11174D01*
X10646Y11711D01*
X10421Y12700D01*
X10468Y12907D01*
X9817Y13056D01*
X9734Y12744D01*
X9644Y12655D01*
X9627Y3334D01*
X11037Y1925D01*
X11216Y2049D01*
X11741Y2112D01*
X12235Y1925D01*
X12586Y1529D01*
X12685Y1128D01*
X13043Y1216D01*
X13043Y2120D01*
X13948Y2120D01*
X13948Y1216D01*
X13043Y1216D01*
X12685Y1128D01*
X12712Y1016D01*
X12586Y0503D01*
X12235Y0107D01*
X12117Y0062D01*
X12129Y0D01*
X13043Y0D01*
X13043Y0816D01*
X14348Y0816D01*
X14348Y1216D01*
X14348Y2120D01*
X15252Y2120D01*
X15252Y1216D01*
X14348Y1216D01*
X14348Y0816D01*
X15252Y0816D01*
X15252Y0587D01*
X15299Y0567D01*
X25527Y10795D01*
X25527Y25527D01*
X16186Y25527D01*
X16186Y25226D01*
X16680Y25039D01*
X17031Y24643D01*
X17157Y24130D01*
X17031Y23617D01*
X16680Y23221D01*
X16186Y23034D01*
X15661Y23097D01*
X15226Y23398D01*
X14980Y23866D01*
X14980Y24394D01*
X15226Y24862D01*
X15661Y25163D01*
X16186Y25226D01*
X16186Y25527D01*
X13646Y25527D01*
X13646Y25226D01*
X14140Y25039D01*
X14491Y24643D01*
X14617Y24130D01*
X14491Y23617D01*
X14140Y23221D01*
X13646Y23034D01*
X13121Y23097D01*
X12686Y23398D01*
X12440Y23866D01*
X12440Y23930D01*
X12077Y23930D01*
X12077Y23026D01*
X11173Y23026D01*
X11173Y23930D01*
X12077Y23930D01*
X12440Y23930D01*
X12440Y24394D01*
X12686Y24862D01*
X13121Y25163D01*
X13646Y25226D01*
X13646Y25527D01*
X11173Y25527D01*
X11173Y25234D01*
X12077Y25234D01*
X12077Y24330D01*
X11173Y24330D01*
X11173Y25234D01*
X11173Y25527D01*
X9868Y25527D01*
X9868Y25234D01*
X10773Y25234D01*
X10773Y24330D01*
X9868Y24330D01*
X9868Y25234D01*
X9868Y25527D01*
X0Y25527D01*
X0Y0D01*
X6018Y0D01*
X11115Y0054D02*
X10781Y0284D01*
X10535Y0752D01*
X10535Y0989D01*
X10138Y1386D01*
X10088Y1358D01*
X10172Y1016D01*
X10046Y0503D01*
X9695Y0107D01*
X9577Y0062D01*
X9589Y0D01*
X11098Y0D01*
G37*
%LNbottom copper_traces*%
X9144Y16739D02*
X9119Y3124D01*
X11608Y0635*
D11*
X15418Y19863D02*
X20904Y19863D01*
X13513Y19888D02*
X9169Y16840D01*
D12*
X1016Y8382D02*
X9144Y16764D01*
D11*
X7118Y23880D02*
X4953Y21895D01*
D10*
X16894Y16129D02*
X20904Y10363D01*
D11*
X7118Y23880D02*
X13513Y19888D01*
D12*
X1016Y6604D02*
X1016Y8382D01*
D11*
X4953Y21895D02*
X4953Y21920D01*
D10*
X13513Y19990D02*
X16894Y16129D01*
D13*
X13513Y18263D03*
X20904Y16383D03*
X7874Y13970D03*
X22428Y8534D03*
X3302Y9144D03*
X1372Y18263D03*
X3226Y13970D03*
X7118Y23880D03*
X23444Y9550D03*
X13431Y10719D03*
X16002Y11989D03*
X17450Y21234D03*
X1016Y6747D03*
X18593Y10693D03*
X17399Y10693D03*
X17399Y9347D03*
X10287Y20904D03*
X15494Y19863D03*
X17321Y3454D03*
X14732Y10719D03*
X9195Y13056D03*
X19482Y5639D03*
X6452Y16840D03*
X24106Y14847D03*
X16205Y2337D03*
X14732Y11993D03*
X23063Y24244D03*
X21387Y7518D03*
X4953Y21920D03*
X3226Y11684D03*
X9144Y16916D03*
X16002Y13166D03*
X10211Y18796D03*
X24360Y10566D03*
X16027Y8001D03*
X13513Y19837D03*
X20345Y8509D03*
X16027Y9347D03*
X16894Y16081D03*
X20914Y10337D03*
X17344Y18055D03*
X18385Y4517D03*
%LNbottom copper component 800e0844de41ef63*%
D14*
X13513Y24130D03*
X16053Y24130D03*
X18593Y24130D03*
D15*
X10973Y24130D03*
%LNbottom copper component 1b95c2daf294ff73*%
D16*
X11608Y1016D03*
X9068Y1016D03*
X6528Y1016D03*
D17*
X14148Y1016D03*
%LNbottom copper component 221ee5476048cbbc*%
D18*
X12700Y12700D03*
D19*
X21402Y20872D03*
X3998Y4528D03*
M02*