%FSLAX33Y33*%
%MOMM*%
%ADD10C,0.3302*%
%ADD11C,1.1*%
%ADD12C,1.1*%
D10*
%LNhole_traces*%
G01*
X13513Y18263D03*
X20904Y16383D03*
X7874Y13970D03*
X22428Y8534D03*
X3302Y9144D03*
X1372Y18263D03*
X3226Y13970D03*
X7118Y23880D03*
X23444Y9550D03*
X13431Y10719D03*
X16002Y11989D03*
X17450Y21234D03*
X1016Y6747D03*
X18593Y10693D03*
X17399Y10693D03*
X17399Y9347D03*
X10287Y20904D03*
X15494Y19863D03*
X17321Y3454D03*
X14732Y10719D03*
X9195Y13056D03*
X19482Y5639D03*
X6452Y16840D03*
X24106Y14847D03*
X16205Y2337D03*
X14732Y11993D03*
X23063Y24244D03*
X21387Y7518D03*
X4953Y21920D03*
X3226Y11684D03*
X9144Y16916D03*
X16002Y13166D03*
X10211Y18796D03*
X24360Y10566D03*
X16027Y8001D03*
X13513Y19837D03*
X20345Y8509D03*
X16027Y9347D03*
X16894Y16081D03*
X20914Y10337D03*
X17344Y18055D03*
X18385Y4517D03*
%LNhole component 800e0844de41ef63*%
D11*
X10973Y24130D03*
X13513Y24130D03*
X16053Y24130D03*
X18593Y24130D03*
%LNhole component 1b95c2daf294ff73*%
D12*
X14148Y1016D03*
X11608Y1016D03*
X9068Y1016D03*
X6528Y1016D03*
M02*