%FSLAX33Y33*%
%MOMM*%
%AMRect-W741421-H941421-RO1.000*
21,1,0.741421,0.941421,0.,0.,180*%
%AMRect-W741421-H941421-RO0.500*
21,1,0.741421,0.941421,0.,0.,270*%
%AMRect-W1650000-H1650000-RO1.500*
21,1,1.65,1.65,0.,0.,90*%
%AMRect-W741421-H941421-RO1.750*
21,1,0.741421,0.941421,0.,0.,45*%
%AMRect-W1650000-H1650000-RO0.500*
21,1,1.65,1.65,0.,0.,270*%
%AMRect-W1270000-H2540000-RO0.500*
21,1,1.27,2.54,0.,0.,270*%
%AMRR-H750000-W750000-R375000-RO0.000*
1,1,0.75,0.,0.*
1,1,0.75,0.,0.*
1,1,0.75,0.,-0.*
1,1,0.75,-0.,0.*%
%AMRect-W741421-H941421-RO1.500*
21,1,0.741421,0.941421,0.,0.,90*%
%AMRect-W293622-H923461-RO0.500*
21,1,0.293622,0.923461,0.,0.,270*%
%AMRect-W923461-H293622-RO0.500*
21,1,0.923461,0.293622,0.,0.,270*%
%AMRect-W1317432-H1824264-RO0.250*
21,1,1.317432,1.824264,0.,0.,315*%
%AMRect-W741421-H941421-RO0.250*
21,1,0.741421,0.941421,0.,0.,315*%
%AMRect-W891421-H1041420-RO1.000*
21,1,0.891421,1.04142,0.,0.,180*%
%AMRect-W741421-H941421-RO0.750*
21,1,0.741421,0.941421,0.,0.,225*%
%AMRect-W1141421-H1041421-RO1.000*
21,1,1.141421,1.041421,0.,0.,180*%
%AMRR-H750000-W243205-R121602-RO0.250*
21,1,0.000001,0.75,0.,0.,315*
21,1,0.243205,0.506796,0.,0.,315*
1,1,0.243204,0.1791790906,0.1791797977*
1,1,0.243204,0.1791797977,0.1791790906*
1,1,0.243204,-0.1791790906,-0.1791797977*
1,1,0.243204,-0.1791797977,-0.1791790906*%
%AMRR-H243205-W750000-R121602-RO0.250*
21,1,0.506796,0.243205,0.,0.,315*
21,1,0.75,0.000001,0.,0.,315*
1,1,0.243204,-0.1791790906,0.1791797977*
1,1,0.243204,0.1791797977,-0.1791790906*
1,1,0.243204,0.1791790906,-0.1791797977*
1,1,0.243204,-0.1791797977,0.1791790906*%
%AMRect-W3838000-H3838000-RO0.250*
21,1,3.838,3.838,0.,0.,315*%
%AMRect-W4600000-H4600000-RO0.250*
21,1,4.6,4.6,0.,0.,315*%
%AMRect-W450000-H450000-RO1.250*
21,1,0.45,0.45,0.,0.,135*%
%ADD10C,0.254*%
%ADD11C,0.5588*%
%ADD12C,0.2032*%
%ADD13C,0.2286*%
%ADD14C,0.508*%
%ADD15C,0.4572*%
%ADD16C,0.381*%
%ADD17C,0.1778*%
%ADD18C,0.6096*%
%ADD19C,0.5842*%
%ADD20C,0.6858*%
%ADD21Rect-W741421-H941421-RO1.000*%
%ADD22Rect-W741421-H941421-RO0.500*%
%ADD23C,1.65*%
%ADD24Rect-W1650000-H1650000-RO1.500*%
%ADD25Rect-W741421-H941421-RO1.750*%
%ADD26C,1.65*%
%ADD27Rect-W1650000-H1650000-RO0.500*%
%ADD28Rect-W1270000-H2540000-RO0.500*%
%ADD29C,0.32*%
%ADD30RR-H750000-W750000-R375000-RO0.000*%
%ADD31Rect-W741421-H941421-RO1.500*%
%ADD32Rect-W293622-H923461-RO0.500*%
%ADD33Rect-W923461-H293622-RO0.500*%
%ADD34R,0.9X1.*%
%ADD35Rect-W1317432-H1824264-RO0.250*%
%ADD36Rect-W741421-H941421-RO0.250*%
%ADD37R,1.27X2.54*%
%ADD38Rect-W891421-H1041420-RO1.000*%
%ADD39Rect-W741421-H941421-RO0.750*%
%ADD40Rect-W1141421-H1041421-RO1.000*%
%ADD41R,0.741421X0.941421*%
%ADD42RR-H750000-W243205-R121602-RO0.250*%
%ADD43RR-H243205-W750000-R121602-RO0.250*%
%ADD44Rect-W3838000-H3838000-RO0.250*%
%ADD45Rect-W4600000-H4600000-RO0.250*%
%ADD46Rect-W450000-H450000-RO1.250*%
D10*
%LNpour fill*%
G36*
G01*
X16407Y16756D02*
X16305Y16859D01*
X17260Y17814D01*
X17600Y17475D01*
X20218Y19923D01*
X20218Y21839D01*
X19870Y21839D01*
X19870Y25049D01*
X21380Y25049D01*
X21380Y24189D01*
X21895Y23673D01*
X21989Y23533D01*
X22022Y23368D01*
X22022Y20001D01*
X22113Y19961D01*
X22607Y20413D01*
X22607Y21260D01*
X25527Y21260D01*
X25527Y21839D01*
X23970Y21839D01*
X23970Y25049D01*
X25527Y25049D01*
X25527Y25527D01*
X11173Y25527D01*
X11173Y25260D01*
X12103Y25260D01*
X12103Y24330D01*
X11173Y24330D01*
X11173Y25260D01*
X11173Y25527D01*
X0Y25527D01*
X0Y16688D01*
X2155Y16688D01*
X2193Y16784D01*
X2108Y16865D01*
X2064Y16931D01*
X2018Y16995D01*
X2017Y17001D01*
X2014Y17005D01*
X1999Y17083D01*
X1981Y17160D01*
X1981Y18693D01*
X1391Y18693D01*
X1391Y19216D01*
X1087Y19216D01*
X1087Y18693D01*
X0463Y18693D01*
X0463Y19216D01*
X1087Y19216D01*
X1391Y19216D01*
X1391Y20044D01*
X1087Y20044D01*
X1087Y19521D01*
X0463Y19521D01*
X0463Y20044D01*
X1087Y20044D01*
X1391Y20044D01*
X2108Y20044D01*
X2388Y20373D01*
X2388Y21234D01*
X2190Y21234D01*
X2015Y20964D01*
X2015Y20393D01*
X0463Y20393D01*
X0463Y22328D01*
X1315Y22328D01*
X1315Y22633D01*
X0463Y22633D01*
X0463Y23156D01*
X1087Y23156D01*
X1127Y23246D01*
X1102Y23275D01*
X1046Y23434D01*
X1050Y23505D01*
X0463Y23505D01*
X0463Y24856D01*
X2015Y24856D01*
X2015Y23629D01*
X2304Y23412D01*
X2388Y23454D01*
X2388Y23622D01*
X3464Y23622D01*
X3464Y24697D01*
X6263Y24697D01*
X6263Y23855D01*
X6568Y23855D01*
X6568Y24697D01*
X6867Y24697D01*
X6867Y24460D01*
X7118Y24527D01*
X7291Y24481D01*
X8191Y24595D01*
X8191Y24806D01*
X9843Y24806D01*
X9843Y25260D01*
X10773Y25260D01*
X10773Y23000D01*
X9742Y23000D01*
X9742Y22565D01*
X11594Y21743D01*
X11617Y21759D01*
X11760Y21787D01*
X12370Y21787D01*
X12513Y21759D01*
X12635Y21677D01*
X12668Y21628D01*
X12954Y21628D01*
X12954Y23183D01*
X12667Y23381D01*
X12416Y23860D01*
X12416Y23930D01*
X12103Y23930D01*
X12103Y23000D01*
X11173Y23000D01*
X11173Y23930D01*
X12103Y23930D01*
X12416Y23930D01*
X12416Y24400D01*
X12667Y24879D01*
X13112Y25186D01*
X13649Y25252D01*
X14155Y25060D01*
X14513Y24655D01*
X14643Y24130D01*
X14513Y23605D01*
X14155Y23200D01*
X14072Y23169D01*
X14072Y21628D01*
X14263Y21628D01*
X14263Y19977D01*
X14123Y19977D01*
X14161Y19837D01*
X14074Y19514D01*
X13837Y19276D01*
X13513Y19190D01*
X13189Y19276D01*
X12952Y19514D01*
X12865Y19837D01*
X12903Y19977D01*
X12688Y19977D01*
X13061Y16750D01*
X13203Y16757D01*
X13208Y17057D01*
X13227Y17136D01*
X13244Y17215D01*
X13246Y17218D01*
X13246Y17221D01*
X13293Y17287D01*
X13340Y17354D01*
X15293Y19188D01*
X15271Y19275D01*
X15170Y19302D01*
X14933Y19539D01*
X14846Y19863D01*
X14877Y19977D01*
X14712Y19977D01*
X14712Y21628D01*
X16117Y21628D01*
X16108Y23018D01*
X15652Y23074D01*
X15207Y23381D01*
X14956Y23860D01*
X14956Y24400D01*
X15207Y24879D01*
X15652Y25186D01*
X16189Y25252D01*
X16695Y25060D01*
X17053Y24655D01*
X17183Y24130D01*
X17053Y23605D01*
X16968Y23509D01*
X16991Y20085D01*
X17083Y20046D01*
X18161Y21061D01*
X18161Y23095D01*
X17747Y23381D01*
X17496Y23860D01*
X17496Y24400D01*
X17747Y24879D01*
X18192Y25186D01*
X18729Y25252D01*
X19235Y25060D01*
X19593Y24655D01*
X19723Y24130D01*
X19593Y23605D01*
X19235Y23200D01*
X19025Y23121D01*
X19025Y20828D01*
X18992Y20663D01*
X18898Y20523D01*
X18758Y20429D01*
X18748Y20427D01*
X16635Y18439D01*
X17045Y18030D01*
X16089Y17075D01*
X15651Y17513D01*
X15397Y17273D01*
X16008Y16662D01*
X16369Y16662D01*
X9843Y23454D02*
X8684Y23454D01*
X8645Y23360D01*
X8900Y23106D01*
X9843Y23106D01*
X4996Y22683D02*
X4996Y23164D01*
X4464Y23164D01*
X4367Y23164D01*
X4272Y23164D01*
X4236Y23064D01*
X4860Y22546D01*
X8496Y16916D02*
X8564Y17170D01*
X7421Y17170D01*
X7421Y18721D01*
X7620Y18721D01*
X7620Y20219D01*
X6867Y20219D01*
X6867Y20062D01*
X6568Y20062D01*
X6568Y19757D01*
X6867Y19757D01*
X6867Y19143D01*
X6568Y19143D01*
X6568Y19757D01*
X6568Y20062D01*
X6339Y20062D01*
X6339Y19986D01*
X6263Y19986D01*
X6263Y19143D01*
X6068Y19143D01*
X6068Y20676D01*
X6410Y20676D01*
X6410Y23164D01*
X5834Y23164D01*
X5834Y22510D01*
X5802Y22349D01*
X5712Y22213D01*
X5562Y22064D01*
X5601Y21920D01*
X5514Y21596D01*
X5379Y21462D01*
X5383Y21428D01*
X5337Y21266D01*
X5233Y21134D01*
X4911Y20860D01*
X5068Y20676D01*
X5763Y20676D01*
X5763Y19143D01*
X5068Y19143D01*
X5068Y20676D01*
X4911Y20860D01*
X4811Y20776D01*
X4820Y20752D01*
X4763Y20752D01*
X4763Y19143D01*
X4331Y19143D01*
X4331Y18721D01*
X4831Y18721D01*
X5136Y18721D01*
X6245Y18721D01*
X6549Y18721D01*
X7072Y18721D01*
X7072Y18098D01*
X6549Y18098D01*
X6549Y18721D01*
X6245Y18721D01*
X6245Y17170D01*
X6549Y17170D01*
X6549Y17793D01*
X7072Y17793D01*
X7072Y17170D01*
X6549Y17170D01*
X6245Y17170D01*
X5136Y17170D01*
X5136Y18721D01*
X4831Y18721D01*
X4831Y18098D01*
X4308Y18098D01*
X4308Y17793D01*
X4831Y17793D01*
X4831Y17170D01*
X4308Y17170D01*
X4308Y17793D01*
X4308Y18098D01*
X4308Y18323D01*
X4220Y18364D01*
X3959Y18143D01*
X3959Y17170D01*
X3179Y17170D01*
X3140Y17074D01*
X3680Y16561D01*
X8592Y16561D01*
X3231Y22323D02*
X2313Y22323D01*
X2218Y22386D01*
X2204Y22407D01*
X2099Y22486D01*
X2015Y22444D01*
X2015Y22098D01*
X2312Y22098D01*
X2312Y22018D01*
X3231Y22018D01*
X3997Y21233D02*
X4010Y21228D01*
X4402Y21561D01*
X4306Y21916D01*
X4009Y22163D01*
X3921Y22122D01*
X3921Y21323D01*
X3078Y21323D01*
X3078Y21018D01*
X3997Y21018D01*
X11767Y20426D02*
X11617Y20456D01*
X11495Y20537D01*
X11414Y20659D01*
X11385Y20803D01*
X11385Y20891D01*
X9748Y21617D01*
X9748Y20852D01*
X11624Y18739D01*
X11811Y18739D01*
X11965Y18709D01*
X9191Y20178D02*
X8961Y20437D01*
X8484Y20437D01*
X8484Y20089D01*
X9151Y20089D01*
X3493Y18879D02*
X3493Y19143D01*
X3464Y19143D01*
X3464Y20219D01*
X3297Y20219D01*
X3269Y20079D01*
X3176Y19938D01*
X3121Y19902D01*
X2845Y19577D01*
X2845Y18721D01*
X3306Y18721D01*
X11266Y17380D02*
X11201Y17380D01*
X11058Y17408D01*
X10936Y17489D01*
X10855Y17611D01*
X10826Y17755D01*
X10826Y18337D01*
X9846Y19441D01*
X9748Y19403D01*
X9748Y18737D01*
X9703Y18737D01*
X9703Y17248D01*
X9792Y16916D01*
X9696Y16561D01*
X10236Y16561D01*
X10401Y16528D01*
X10542Y16434D01*
X10593Y16358D01*
X11056Y15894D01*
X11379Y15894D01*
X11532Y15864D01*
X22607Y18720D02*
X25527Y18720D01*
X25527Y19380D01*
X22757Y19380D01*
X21249Y18004D01*
X21286Y17907D01*
X22607Y17907D01*
X25527Y10795D02*
X25527Y16840D01*
X22607Y16840D01*
X22607Y17043D01*
X21191Y17043D01*
X19644Y15718D01*
X19681Y15618D01*
X20496Y15618D01*
X20496Y15800D01*
X21847Y15800D01*
X21847Y14415D01*
X22196Y14415D01*
X22196Y14872D01*
X22196Y15177D01*
X22196Y15800D01*
X22719Y15800D01*
X22719Y15177D01*
X22196Y15177D01*
X22196Y14872D01*
X23024Y14872D01*
X23024Y15177D01*
X23024Y15800D01*
X23547Y15800D01*
X23547Y15177D01*
X23024Y15177D01*
X23024Y14872D01*
X23547Y14872D01*
X23547Y14415D01*
X23652Y14415D01*
X23652Y14239D01*
X24182Y14239D01*
X24487Y14239D01*
X25110Y14239D01*
X25110Y13716D01*
X24487Y13716D01*
X24487Y14239D01*
X24182Y14239D01*
X24182Y12888D01*
X24487Y12888D01*
X24487Y13411D01*
X25110Y13411D01*
X25110Y12888D01*
X24487Y12888D01*
X24182Y12888D01*
X23651Y12888D01*
X23652Y12539D01*
X25110Y12539D01*
X25110Y11188D01*
X23559Y11188D01*
X23559Y11214D01*
X22741Y11214D01*
X22607Y11087D01*
X22789Y10906D01*
X22203Y10320D01*
X22419Y10105D01*
X22419Y10105D01*
X22634Y10320D01*
X23004Y10690D01*
X23445Y10250D01*
X23075Y9880D01*
X22634Y10320D01*
X22419Y10105D01*
X22860Y9664D01*
X22490Y9294D01*
X22049Y9735D01*
X22419Y10105D01*
X22203Y10320D01*
X21833Y9950D01*
X21691Y10092D01*
X21590Y10035D01*
X21706Y9585D01*
X22243Y9047D01*
X21288Y8092D01*
X20417Y8963D01*
X19727Y9352D01*
X19647Y9272D01*
X19113Y9807D01*
X18897Y9591D01*
X19432Y9056D01*
X19365Y8989D01*
X18830Y9524D01*
X18615Y9308D01*
X19203Y8720D01*
X19343Y8859D01*
X19473Y8744D01*
X19543Y8734D01*
X19741Y8562D01*
X19808Y8332D01*
X19967Y8309D01*
X19975Y8303D01*
X19612Y7941D01*
X19828Y7725D01*
X20182Y8079D01*
X20239Y7887D01*
X20203Y7765D01*
X20434Y7667D01*
X20601Y7497D01*
X21246Y6514D01*
X14939Y14677D02*
X14762Y15832D01*
X14622Y15822D01*
X14609Y14480D01*
X14703Y14440D01*
X9660Y10246D02*
X9660Y10551D01*
X9660Y11074D01*
X10283Y11074D01*
X10283Y10551D01*
X9660Y10551D01*
X9660Y10246D01*
X10588Y10246D01*
X10588Y10551D01*
X10588Y11074D01*
X11211Y11074D01*
X11211Y10551D01*
X10588Y10551D01*
X10588Y10246D01*
X11211Y10246D01*
X11211Y10008D01*
X11659Y10008D01*
X11722Y10117D01*
X12009Y10404D01*
X12364Y10049D01*
X12580Y10264D01*
X12225Y10620D01*
X12307Y10703D01*
X11722Y11288D01*
X11683Y11355D01*
X11305Y11733D01*
X11211Y11694D01*
X11211Y11423D01*
X9660Y11423D01*
X9660Y11984D01*
X9134Y12424D01*
X8871Y12495D01*
X8634Y12732D01*
X8547Y13056D01*
X8634Y13379D01*
X8871Y13617D01*
X9195Y13703D01*
X9519Y13617D01*
X9756Y13379D01*
X9762Y13356D01*
X10457Y12774D01*
X11211Y12774D01*
X11211Y12649D01*
X11370Y12649D01*
X11572Y12609D01*
X10944Y14535D01*
X10770Y14535D01*
X10626Y14563D01*
X10504Y14645D01*
X10423Y14766D01*
X10395Y14910D01*
X10395Y15335D01*
X10032Y15697D01*
X3480Y15697D01*
X3278Y15737D01*
X3225Y15638D01*
X8855Y10008D01*
X9660Y10008D01*
X16471Y14866D02*
X16838Y15449D01*
X16570Y15520D01*
X16495Y15596D01*
X15877Y15596D01*
X15988Y14876D01*
X16143Y14721D01*
X16216Y14611D01*
X18875Y13039D02*
X18875Y13918D01*
X20400Y13918D01*
X20400Y14267D01*
X19803Y14267D01*
X19803Y15019D01*
X19498Y15019D01*
X19498Y14267D01*
X18875Y14267D01*
X18875Y14306D01*
X18779Y14345D01*
X18126Y13654D01*
X18781Y13000D01*
X8069Y9644D02*
X2905Y14808D01*
X0Y14808D01*
X0Y14148D01*
X2946Y14148D01*
X2946Y13360D01*
X3302Y13360D01*
X3458Y13329D01*
X3589Y13241D01*
X7280Y9550D01*
X8030Y9550D01*
X6545Y9136D02*
X3134Y12548D01*
X2946Y12548D01*
X2946Y12268D01*
X0Y12268D01*
X0Y11608D01*
X2946Y11608D01*
X2946Y10820D01*
X3048Y10820D01*
X3204Y10789D01*
X3335Y10701D01*
X4994Y9042D01*
X6506Y9042D01*
X20400Y11819D02*
X20306Y11858D01*
X20115Y11666D01*
X20274Y11506D01*
X20400Y11506D01*
X20361Y10693D02*
X19878Y10693D01*
X19839Y10599D01*
X19903Y10536D01*
X20264Y10332D01*
X4259Y8628D02*
X3040Y9847D01*
X2946Y9808D01*
X2946Y9728D01*
X0Y9728D01*
X0Y9068D01*
X2946Y9068D01*
X2946Y8534D01*
X4220Y8534D01*
X12089Y7628D02*
X12050Y7722D01*
X7266Y7722D01*
X7266Y7517D01*
X11967Y7506D01*
X2481Y6675D02*
X2684Y6472D01*
X3656Y6472D01*
X4215Y7030D01*
X4215Y7722D01*
X2946Y7722D01*
X2946Y7188D01*
X1593Y7188D01*
X1554Y7094D01*
X1577Y7071D01*
X1664Y6747D01*
X1577Y6423D01*
X1529Y6376D01*
X1855Y6050D01*
X5915Y7722D02*
X5566Y7722D01*
X5566Y3531D01*
X5915Y3531D01*
X0508Y2896D02*
X1967Y2896D01*
X2483Y3412D01*
X2614Y3500D01*
X2770Y3531D01*
X4215Y3531D01*
X4215Y3841D01*
X3878Y4178D01*
X2684Y4178D01*
X2481Y3975D01*
X1130Y5325D01*
X1155Y5349D01*
X0666Y5838D01*
X0558Y5999D01*
X0521Y6188D01*
X0521Y6358D01*
X0455Y6423D01*
X0368Y6747D01*
X0455Y7071D01*
X0478Y7094D01*
X0439Y7188D01*
X0Y7188D01*
X0Y0D01*
X0508Y0D01*
X16419Y6591D02*
X16021Y6988D01*
X15492Y6458D01*
X15898Y6052D01*
X13018Y0816D02*
X14348Y0816D01*
X14348Y1216D01*
X14348Y2146D01*
X15278Y2146D01*
X15278Y1216D01*
X14348Y1216D01*
X14348Y0816D01*
X15278Y0816D01*
X15278Y0679D01*
X15372Y0640D01*
X20366Y5634D01*
X19708Y6635D01*
X18718Y5646D01*
X17660Y6704D01*
X17417Y6453D01*
X17816Y6055D01*
X17446Y5685D01*
X17661Y5470D01*
X18031Y5839D01*
X18472Y5399D01*
X18102Y5029D01*
X17661Y5470D01*
X17446Y5685D01*
X17284Y5523D01*
X17338Y5470D01*
X17284Y5416D01*
X17886Y4813D01*
X17511Y4439D01*
X17709Y4241D01*
X17269Y3800D01*
X17053Y3585D01*
X16613Y3144D01*
X16243Y3514D01*
X16683Y3954D01*
X17053Y3585D01*
X17269Y3800D01*
X16683Y4386D01*
X16468Y4170D01*
X16027Y3729D01*
X15657Y4099D01*
X16098Y4540D01*
X16468Y4170D01*
X16683Y4386D01*
X16313Y4755D01*
X16759Y5201D01*
X16512Y5448D01*
X15411Y4346D01*
X14381Y5376D01*
X11177Y2172D01*
X11225Y2075D01*
X11744Y2138D01*
X12250Y1946D01*
X12608Y1541D01*
X12707Y1139D01*
X13018Y1216D01*
X13018Y2146D01*
X13948Y2146D01*
X13948Y1216D01*
X13018Y1216D01*
X12707Y1139D01*
X12738Y1016D01*
X12608Y0491D01*
X12253Y0090D01*
X12293Y0D01*
X13018Y0D01*
X11627Y6600D02*
X11588Y6694D01*
X7266Y6704D01*
X7266Y5985D01*
X11012Y5985D01*
X10671Y5078D02*
X10632Y5172D01*
X7266Y5172D01*
X7266Y4420D01*
X10012Y4420D01*
X3048Y2718D02*
X2938Y2718D01*
X2388Y2167D01*
X2388Y0D01*
X3048Y0D01*
X5914Y0107D02*
X5682Y0267D01*
X5431Y0746D01*
X5431Y1286D01*
X5682Y1765D01*
X6127Y2072D01*
X6664Y2138D01*
X7127Y1962D01*
X7408Y2243D01*
X7369Y2337D01*
X5186Y2337D01*
X4928Y2079D01*
X4928Y0D01*
X5880Y0D01*
X8454Y0107D02*
X8222Y0267D01*
X7971Y0746D01*
X7971Y1286D01*
X8177Y1678D01*
X8071Y1756D01*
X7593Y1278D01*
X7658Y1016D01*
X7528Y0491D01*
X7173Y0090D01*
X7213Y0D01*
X8420Y0D01*
X10994Y0107D02*
X10762Y0267D01*
X10511Y0746D01*
X10511Y1286D01*
X10551Y1363D01*
X10446Y1441D01*
X10163Y1158D01*
X10198Y1016D01*
X10068Y0491D01*
X9713Y0090D01*
X9753Y0D01*
X10960Y0D01*
G37*
%LNtop copper_traces*%
X21590Y23368D02*
X21590Y23114D01*
X10312Y24333D02*
X9677Y24892D01*
X12471Y13005D02*
X11608Y17932D01*
D11*
X19101Y9322D02*
X20320Y8484D01*
D10*
X22903Y13745D02*
X24233Y14948D01*
D12*
X5017Y2743D02*
X4508Y2234D01*
D13*
X7569Y22657D02*
X7950Y22657D01*
D12*
X7112Y9144D02*
X3302Y12954D01*
D10*
X9144Y19152D02*
X8915Y19558D01*
D13*
X4051Y4597D02*
X4635Y4013D01*
D10*
X24106Y13620D02*
X22903Y13620D01*
X22827Y13570D02*
X21572Y12365D01*
X22827Y14898D02*
X22827Y13570D01*
D13*
X4953Y22047D02*
X4953Y21463D01*
D10*
X2870Y20650D02*
X2870Y20244D01*
D13*
X3912Y19583D02*
X3912Y18669D01*
D14*
X9144Y17145D02*
X9144Y19152D01*
D13*
X6401Y23546D02*
X6401Y20371D01*
D10*
X18898Y15646D02*
X21031Y17475D01*
D14*
X10160Y12294D02*
X9220Y13081D01*
D12*
X3302Y12954D02*
X2540Y12954D01*
D15*
X16942Y16129D02*
X15748Y16129D01*
D10*
X14173Y14122D02*
X14199Y16739D01*
D13*
X3155Y22708D02*
X4009Y22708D01*
D10*
X18186Y10185D02*
X18237Y10211D01*
X16739Y16078D02*
X20650Y19736D01*
X3480Y16129D02*
X10236Y16129D01*
X18440Y16027D02*
X23063Y20244D01*
X19507Y12344D02*
X19583Y13081D01*
D12*
X13550Y9079D02*
X12624Y8128D01*
D10*
X2845Y20244D02*
X2413Y19736D01*
D13*
X4889Y7112D02*
X3830Y6053D01*
D12*
X14529Y13614D02*
X14148Y14046D01*
X17882Y8001D02*
X17882Y7518D01*
D10*
X2489Y22733D02*
X1473Y23495D01*
X4089Y21463D02*
X3708Y21158D01*
X11582Y18136D02*
X8966Y21082D01*
X5969Y19634D02*
X6223Y19634D01*
D13*
X3082Y5325D02*
X4890Y5325D01*
D15*
X19939Y8052D02*
X20295Y8458D01*
D13*
X3912Y20599D02*
X3912Y20244D01*
D16*
X1880Y5325D02*
X1016Y6188D01*
D10*
X3912Y18669D02*
X3404Y18237D01*
X21216Y13656D02*
X21434Y13265D01*
D12*
X19609Y11100D02*
X22022Y11100D01*
X2540Y8128D02*
X12624Y8128D01*
D10*
X1473Y23546D02*
X1473Y24206D01*
D13*
X12701Y9928D02*
X12375Y9601D01*
D10*
X18593Y20828D02*
X18593Y23622D01*
D12*
X19533Y11659D02*
X21082Y13208D01*
X17907Y16383D02*
X16739Y14529D01*
D14*
X22530Y10312D02*
X23266Y9677D01*
D10*
X3531Y22174D02*
X3785Y22174D01*
D12*
X18694Y8890D02*
X19355Y8306D01*
D10*
X1956Y21666D02*
X1626Y21158D01*
D13*
X4009Y22708D02*
X4928Y21946D01*
D12*
X13056Y12243D02*
X12471Y12954D01*
D14*
X15469Y19990D02*
X15469Y20676D01*
D10*
X13640Y17043D02*
X13589Y13995D01*
X17907Y14707D02*
X18415Y15977D01*
X2413Y19736D02*
X2413Y17170D01*
X2845Y21666D02*
X1956Y21666D01*
D14*
X20828Y9373D02*
X19431Y10160D01*
D12*
X8636Y9652D02*
X2794Y15494D01*
X3048Y10414D02*
X2286Y10414D01*
X13832Y8796D02*
X12135Y7099D01*
D10*
X4953Y21463D02*
X3937Y20599D01*
X22827Y13570D02*
X22472Y13265D01*
D12*
X2794Y15494D02*
X2032Y15494D01*
D10*
X6223Y18186D02*
X6274Y18237D01*
D16*
X1016Y6188D02*
X1016Y6747D01*
D15*
X19253Y7366D02*
X18618Y6731D01*
D12*
X11370Y12243D02*
X10435Y12243D01*
D10*
X20904Y16383D02*
X19650Y15129D01*
X18136Y10008D02*
X18034Y10008D01*
D12*
X17577Y13665D02*
X18466Y14605D01*
D10*
X20650Y19736D02*
X20650Y22352D01*
D13*
X4928Y19507D02*
X4928Y18313D01*
D12*
X12375Y9601D02*
X8687Y9601D01*
D10*
X2413Y17170D02*
X3454Y16180D01*
X2337Y21133D02*
X1473Y19558D01*
D12*
X14964Y7665D02*
X10042Y2743D01*
X18493Y7948D02*
X18517Y7099D01*
X18468Y7973D02*
X18110Y8331D01*
D14*
X6426Y16916D02*
X6426Y17577D01*
D10*
X3785Y22174D02*
X4089Y21946D01*
D13*
X2608Y4597D02*
X4051Y4597D01*
D12*
X13267Y9347D02*
X12556Y8636D01*
D13*
X2743Y21158D02*
X2388Y21158D01*
D10*
X1524Y22301D02*
X2769Y22174D01*
D17*
X12624Y10414D02*
X12954Y10719D01*
D10*
X7823Y21158D02*
X8026Y20955D01*
D18*
X20091Y7163D02*
X22174Y3988D01*
D12*
X13030Y12979D02*
X13360Y12522D01*
D13*
X3175Y22682D02*
X2515Y22682D01*
D12*
X12954Y9601D02*
X12497Y9144D01*
X10181Y4013D02*
X6590Y4013D01*
D10*
X21242Y14821D02*
X21216Y13656D01*
D13*
X3830Y6053D02*
X2516Y6053D01*
D12*
X14115Y8514D02*
X11181Y5579D01*
X12418Y11194D02*
X11370Y12243D01*
D10*
X6325Y18415D02*
X6325Y19685D01*
X7137Y24917D02*
X6452Y24282D01*
D19*
X19025Y9398D02*
X18263Y10160D01*
D12*
X10042Y2743D02*
X5017Y2743D01*
X12418Y10211D02*
X10435Y10211D01*
D10*
X8230Y23165D02*
X8763Y22631D01*
X9271Y22301D02*
X12192Y21006D01*
X1295Y19304D02*
X1549Y19355D01*
D12*
X15530Y7099D02*
X9319Y0889D01*
D10*
X21057Y17475D02*
X24867Y17475D01*
D12*
X14681Y7948D02*
X9857Y3124D01*
D10*
X17145Y3683D02*
X16510Y4318D01*
X20828Y24130D02*
X21590Y23368D01*
D12*
X7061Y1321D02*
X6528Y1321D01*
X8101Y2361D02*
X7061Y1321D01*
D10*
X21082Y13208D02*
X21158Y13208D01*
X22047Y11151D02*
X22555Y11633D01*
D12*
X2770Y3124D02*
X1880Y2234D01*
D13*
X7493Y21158D02*
X7823Y21158D01*
D10*
X3708Y21158D02*
X3531Y21158D01*
X8077Y21793D02*
X8611Y21184D01*
D12*
X14398Y8231D02*
X10181Y4013D01*
X10242Y2361D02*
X8101Y2361D01*
X4826Y8636D02*
X3048Y10414D01*
D14*
X15494Y14580D02*
X15748Y14326D01*
D10*
X4089Y21920D02*
X4089Y21463D01*
D12*
X18364Y8636D02*
X18999Y7950D01*
X2770Y3124D02*
X9857Y3124D01*
D10*
X16561Y19787D02*
X13640Y17043D01*
X8611Y21184D02*
X8763Y21184D01*
D12*
X12446Y9144D02*
X7112Y9144D01*
D10*
X1295Y18186D02*
X1295Y19304D01*
X12167Y20726D02*
X13056Y13030D01*
D12*
X12135Y7099D02*
X6590Y7112D01*
D10*
X18186Y4699D02*
X17551Y5334D01*
D12*
X12040Y12725D02*
X12954Y11786D01*
D13*
X7569Y23165D02*
X8230Y23165D01*
D10*
X24055Y11831D02*
X22852Y11831D01*
X4928Y18313D02*
X4953Y18237D01*
X18491Y14656D02*
X18847Y15596D01*
D14*
X16815Y17526D02*
X17170Y17882D01*
D12*
X15247Y7366D02*
X10242Y2361D01*
X12556Y8636D02*
X4826Y8636D01*
X11181Y5579D02*
X6590Y5579D01*
D10*
X11963Y12802D02*
X11176Y15215D01*
D12*
X19279Y11989D02*
X19533Y12344D01*
D15*
X8763Y24130D02*
X7163Y23927D01*
D10*
X16535Y23622D02*
X16561Y19812D01*
D12*
X13614Y13970D02*
X14224Y13335D01*
D10*
X5258Y18186D02*
X6223Y18186D01*
X9576Y24917D02*
X7137Y24917D01*
X17983Y16434D02*
X21590Y19660D01*
D12*
X22442Y12167D02*
X22442Y12167D01*
D10*
X22903Y13620D02*
X22776Y13390D01*
D12*
X17882Y7518D02*
X15900Y5470D01*
D10*
X7950Y22631D02*
X8052Y21844D01*
D13*
X5415Y22509D02*
X4953Y22047D01*
D15*
X15291Y15900D02*
X15494Y14580D01*
D13*
X5415Y23546D02*
X5415Y22509D01*
D10*
X22835Y20015D02*
X25222Y20015D01*
D14*
X13513Y19888D02*
X13513Y23393D01*
D12*
X17247Y13919D02*
X17882Y14656D01*
D14*
X20930Y10363D02*
X21209Y9271D01*
D10*
X10211Y16129D02*
X10947Y15392D01*
X8052Y20955D02*
X8052Y18263D01*
X21590Y23114D02*
X21590Y19685D01*
X14199Y16739D02*
X18517Y20803D01*
D20*
X13513Y18263D03*
X20904Y16383D03*
X7874Y13970D03*
X22428Y8534D03*
X3302Y9144D03*
X1372Y18263D03*
X3226Y13970D03*
X7118Y23880D03*
X23444Y9550D03*
X13431Y10719D03*
X16002Y11989D03*
X17450Y21234D03*
X1016Y6747D03*
X18593Y10693D03*
X17399Y10693D03*
X17399Y9347D03*
X10287Y20904D03*
X15494Y19863D03*
X17321Y3454D03*
X14732Y10719D03*
X9195Y13056D03*
X19482Y5639D03*
X6452Y16840D03*
X24106Y14847D03*
X16205Y2337D03*
X14732Y11993D03*
X23063Y24244D03*
X21387Y7518D03*
X4953Y21920D03*
X3226Y11684D03*
X9144Y16916D03*
X16002Y13166D03*
X10211Y18796D03*
X24360Y10566D03*
X16027Y8001D03*
X13513Y19837D03*
X20345Y8509D03*
X16027Y9347D03*
X16894Y16081D03*
X20914Y10337D03*
X17344Y18055D03*
X18385Y4517D03*
%LNtop copper component 63888d0d71a6bbac*%
D21*
X6590Y5579D03*
X4890Y5579D03*
%LNtop copper component 703fe591501cbc8f*%
D22*
X24335Y13563D03*
X24335Y11863D03*
%LNtop copper component 07747c070a6d73cb*%
X10435Y12098D03*
X10435Y10398D03*
%LNtop copper component 800e0844de41ef63*%
D23*
X13513Y24130D03*
X16053Y24130D03*
X18593Y24130D03*
D24*
X10973Y24130D03*
%LNtop copper component 063fa78f45d212e5*%
D25*
X21217Y9118D03*
X22419Y10320D03*
%LNtop copper component 1b95c2daf294ff73*%
D26*
X11608Y1016D03*
X9068Y1016D03*
X6528Y1016D03*
D27*
X14148Y1016D03*
%LNtop copper component 9a176432f7cf172c*%
D28*
X1372Y10668D03*
%LNtop copper component 57f7bb6b34cfe951*%
D29*
X18996Y7957D03*
X19903Y7404D03*
X19420Y7533D03*
X19774Y7887D03*
X19350Y8311D03*
%LNtop copper component 824781f5bf643550*%
D21*
X22872Y15025D03*
X21172Y15025D03*
%LNtop copper component 03cd6c6d63c7a67c*%
D30*
X12065Y21107D03*
X12065Y21107D03*
%LNtop copper component 4dcbdc218eb7df55*%
D31*
X19650Y13243D03*
X19650Y14943D03*
%LNtop copper component 18f52f8a688cca6d*%
D32*
X3155Y21170D03*
D33*
X5415Y23931D03*
X5915Y23931D03*
D32*
X7176Y20670D03*
X7176Y22170D03*
X7176Y22670D03*
D33*
X4915Y19909D03*
X6415Y23931D03*
D32*
X7176Y23170D03*
D33*
X4415Y19909D03*
D32*
X3155Y22670D03*
X7176Y21170D03*
X3155Y23170D03*
D33*
X5915Y19909D03*
D32*
X3155Y20670D03*
D33*
X4915Y23931D03*
D32*
X3155Y21670D03*
X7176Y21670D03*
X3155Y22170D03*
D33*
X3915Y23931D03*
X5415Y19909D03*
X4415Y23931D03*
X6415Y19909D03*
X3915Y19909D03*
%LNtop copper component 230955736bc0dec0*%
D21*
X6590Y4140D03*
X4890Y4140D03*
%LNtop copper component 3749f5233408bbf3*%
D34*
X24725Y24244D03*
X24725Y22644D03*
X20625Y24244D03*
X20625Y22644D03*
%LNtop copper component 9f3004bb3ab21b86*%
D30*
X11074Y15215D03*
X11074Y15215D03*
%LNtop copper component db375ef090596bd0*%
D22*
X8966Y24130D03*
X8966Y22430D03*
%LNtop copper component f1b8c270e18b6528*%
D35*
X23776Y1698D03*
X21791Y3683D03*
%LNtop copper component 50e32e93e5cbffe0*%
D36*
X15481Y5372D03*
X16683Y4170D03*
%LNtop copper component 9ff5b968d0fa7309*%
D28*
X1372Y15748D03*
%LNtop copper component 29f94a9610b8bd7f*%
D37*
X1448Y1321D03*
%LNtop copper component 236449664774618a*%
D38*
X13513Y20803D03*
X15463Y20803D03*
%LNtop copper component edbb0da92dec2046*%
D28*
X1372Y13208D03*
%LNtop copper component 5e0b1e8ae969094c*%
D22*
X1239Y21068D03*
X1239Y19368D03*
%LNtop copper component 657944f25ef1242f*%
D28*
X24182Y20320D03*
%LNtop copper component 09d4a16645b40eab*%
D22*
X1239Y24181D03*
X1239Y22481D03*
%LNtop copper component b1552962451680fe*%
D31*
X8972Y19413D03*
X8972Y21113D03*
%LNtop copper component 08ab2ea1eb737624*%
D39*
X18648Y6672D03*
X17446Y5470D03*
%LNtop copper component aa8c43ca3479b0fd*%
D25*
X15473Y16242D03*
X16675Y17444D03*
%LNtop copper component 4c206d9429b209c5*%
D40*
X22776Y12040D03*
X22776Y13590D03*
X21276Y13590D03*
X21276Y12040D03*
%LNtop copper component dcd59bb06ba35ff6*%
D41*
X6397Y17946D03*
X8097Y17946D03*
%LNtop copper component 2ef078e0bc91a9e2*%
D21*
X6590Y7112D03*
X4890Y7112D03*
%LNtop copper component b6bea4d189a08c88*%
D41*
X3284Y17946D03*
X4984Y17946D03*
%LNtop copper component 703e91c2f612e613*%
D42*
X17645Y13174D03*
D43*
X14681Y13457D03*
X13832Y12609D03*
X14115Y12892D03*
D42*
X14964Y7665D03*
D43*
X19342Y9928D03*
X15530Y14306D03*
X13267Y12043D03*
D42*
X13267Y9362D03*
D43*
X18776Y9362D03*
X12984Y11760D03*
D42*
X18776Y12043D03*
D44*
X16021Y10703D03*
D42*
X15530Y7099D03*
D43*
X14964Y13740D03*
D45*
X16021Y10703D03*
D43*
X19059Y9645D03*
X12418Y11194D03*
D42*
X12984Y9645D03*
D44*
X16021Y10703D03*
D43*
X19625Y10211D03*
D42*
X17079Y13740D03*
X15247Y7382D03*
D43*
X15247Y14023D03*
X18493Y9079D03*
X17645Y8231D03*
D42*
X12418Y10211D03*
X14681Y7948D03*
D43*
X14398Y13174D03*
D42*
X14115Y8514D03*
X18493Y12326D03*
X12701Y9928D03*
X19342Y11477D03*
D43*
X17928Y8514D03*
D42*
X17362Y13457D03*
X17928Y12892D03*
D43*
X16796Y7382D03*
D42*
X16796Y14023D03*
X13832Y8796D03*
X19625Y11194D03*
X18210Y12609D03*
X16513Y14306D03*
D43*
X13550Y12326D03*
D42*
X14398Y8231D03*
D43*
X16513Y7099D03*
X12701Y11477D03*
D42*
X19059Y11760D03*
X13550Y9079D03*
D43*
X17362Y7948D03*
X17079Y7665D03*
X18210Y8796D03*
%LNtop copper component 66d26c4e5afed26b*%
D37*
X3988Y1321D03*
%LNtop copper component 70772079e51440cb*%
D28*
X1372Y8128D03*
%LNtop copper component 0b3d5d2d41e17186*%
D46*
X2481Y4724D03*
X3082Y5325D03*
X2481Y5926D03*
X1880Y5325D03*
%LNtop copper component 78a258f6d75cc400*%
D28*
X24182Y17780D03*
%LNtop copper component 8468832e9d8019ca*%
D30*
X11506Y18059D03*
X11506Y18059D03*
M02*