%FSLAX33Y33*%
%MOMM*%
%AMRect-W600000-H600000-RO0.250*
21,1,0.6,0.6,0.,0.,315*%
%ADD10C,0.1778*%
%ADD11C,0.2032*%
%ADD12C,0.15*%
%ADD13C,0.5*%
%ADD14C,0.5*%
%ADD15C,0.1524*%
%ADD16C,0.5*%
%ADD17Rect-W600000-H600000-RO0.250*%
%ADD18C,0.5*%
%ADD19C,0.4*%
D10*
%LNpath-0*%
G75*
G03*
X19380Y2159D02*
X19685Y3023I0419J0338D01*
G75*
G02*
X19685Y3023D02*
X19380Y2159I0040J-0500D01*
G01*
X19380Y2159D02*
X19380Y2159D01*
%LNpath-1*%
G75*
G02*
X19177Y2438D02*
X18771Y3251I-0472J0272D01*
G75*
G03*
X18771Y3251D02*
X19177Y2438I0001J-0507D01*
G01*
X19177Y2438D02*
X19177Y2438D01*
%LNpath-3*%
G75*
G03*
X19380Y2159D02*
X19558Y2896I0323J0312D01*
G75*
G02*
X19558Y2896D02*
X19380Y2159I0211J-0441D01*
G01*
X19380Y2159D02*
X19380Y2159D01*
%LNpath-4*%
G75*
G03*
X19380Y2159D02*
X19482Y2743I0318J0246D01*
G75*
G02*
X19482Y2743D02*
X19380Y2159I0188J-0334D01*
G01*
X19380Y2159D02*
X19380Y2159D01*
%LNpath-5*%
G75*
G02*
X19177Y2438D02*
X18872Y3124I-0389J0238D01*
G75*
G03*
X18872Y3124D02*
X19177Y2438I-0076J-0444D01*
G01*
X19177Y2438D02*
X19177Y2438D01*
%LNpath-6*%
D11*
G75*
G03*
X18796Y3099D02*
X19152Y2413I0006J-0432D01*
G75*
G02*
X19152Y2413D02*
X18948Y2997I-0326J0214D01*
G01*
X18948Y2997D02*
X18796Y3099D01*
%LNtop silkscreen_traces*%
%LNtop silkscreen component 63888d0d71a6bbac*%
D12*
X7211Y4929D02*
X4270Y4929D01*
X7211Y4929D02*
X7211Y6229D01*
X4270Y6229*
X4270Y4929*
D11*
X5523Y6159D02*
X6137Y6159D01*
X6137Y5893*
X6136Y5850*
X6133Y5814*
X6128Y5786*
X6121Y5765*
X6114Y5749*
X6103Y5735*
X6090Y5722*
X6074Y5710*
X6055Y5700*
X6036Y5693*
X6015Y5689*
X5993Y5688*
X5965Y5690*
X5941Y5697*
X5919Y5708*
X5900Y5723*
X5883Y5743*
X5868Y5770*
X5856Y5804*
X5819Y5993*
X5744Y5845*
X5737Y5833*
X5730Y5823*
X5724Y5815*
X5707Y5798*
X5687Y5780*
X5664Y5763*
X5639Y5745*
X5523Y5671*
X5523Y5670*
X5649Y5750*
X5680Y5770*
X5707Y5788*
X5731Y5805*
X5751Y5821*
X5769Y5836*
X5785Y5850*
X5799Y5865*
X5810Y5881*
X5819Y5895*
X5826Y5910*
X5832Y5925*
X5836Y5941*
X5839Y5955*
X5840Y5970*
X5841Y5986*
X5841Y6004*
X5841Y6165*
X5523Y6165*
X5523Y6159*
X5872Y6115D02*
X5872Y6115D01*
X5872Y5911*
X5873Y5880*
X5875Y5853*
X5880Y5829*
X5886Y5809*
X5893Y5792*
X5903Y5777*
X5915Y5764*
X5929Y5754*
X5944Y5745*
X5959Y5739*
X5976Y5736*
X5993Y5735*
X6017Y5737*
X6039Y5744*
X6059Y5755*
X6076Y5771*
X6091Y5793*
X6101Y5819*
X6107Y5851*
X6109Y5888*
X6109Y6115*
X5872Y6115*
X5523Y5469D02*
X5523Y5449D01*
X6137Y5449*
X6137Y5463*
X5808Y5463*
X5924Y5350*
X5939Y5326*
X5948Y5300*
X5952Y5269*
X5951Y5252*
X5948Y5234*
X5943Y5217*
X5937Y5200*
X5929Y5185*
X5920Y5171*
X5909Y5160*
X5897Y5149*
X5883Y5139*
X5867Y5130*
X5849Y5121*
X5829Y5114*
X5808Y5108*
X5786Y5104*
X5763Y5102*
X5740Y5101*
X5684Y5105*
X5637Y5115*
X5598Y5132*
X5567Y5154*
X5542Y5181*
X5525Y5210*
X5515Y5241*
X5511Y5274*
X5515Y5306*
X5525Y5332*
X5541Y5355*
X5675Y5469*
X5523Y5469*
X5735Y5419D02*
X5735Y5419D01*
X5692Y5418*
X5655Y5413*
X5624Y5405*
X5600Y5394*
X5571Y5371*
X5550Y5345*
X5537Y5315*
X5533Y5282*
X5536Y5254*
X5545Y5228*
X5561Y5204*
X5583Y5182*
X5611Y5164*
X5645Y5151*
X5685Y5143*
X5732Y5140*
X5779Y5143*
X5820Y5150*
X5854Y5163*
X5882Y5180*
X5903Y5202*
X5918Y5225*
X5927Y5250*
X5930Y5278*
X5927Y5306*
X5918Y5332*
X5902Y5355*
X5880Y5377*
X5852Y5396*
X5819Y5409*
X5780Y5417*
X5735Y5419*
%LNtop silkscreen component 703fe591501cbc8f*%
D12*
X24985Y14184D02*
X24985Y11242D01*
X24985Y14184D02*
X23685Y14184D01*
X23685Y11242*
X24985Y11242*
D11*
X24110Y12669D02*
X24075Y12678D01*
X24080Y12695*
X24067Y12669*
X24052Y12648*
X24034Y12631*
X24014Y12618*
X23991Y12608*
X23966Y12602*
X23936Y12600*
X23904Y12602*
X23877Y12607*
X23854Y12615*
X23835Y12625*
X23818Y12638*
X23803Y12653*
X23790Y12673*
X23778Y12696*
X23769Y12722*
X23762Y12749*
X23758Y12777*
X23757Y12807*
X23758Y12839*
X23763Y12868*
X23770Y12894*
X23780Y12918*
X23793Y12938*
X23807Y12956*
X23824Y12970*
X23843Y12983*
X23865Y12993*
X23887Y13000*
X23912Y13005*
X23937Y13006*
X23966Y13004*
X23990Y12999*
X24012Y12990*
X24031Y12979*
X24047Y12964*
X24061Y12946*
X24073Y12925*
X24064Y12950*
X24099Y12959*
X24104Y12945*
X24089Y12973*
X24071Y12997*
X24049Y13018*
X24023Y13033*
X23996Y13044*
X23967Y13050*
X23936Y13052*
X23902Y13050*
X23870Y13044*
X23840Y13032*
X23812Y13016*
X23788Y12996*
X23768Y12973*
X23752Y12947*
X23740Y12919*
X23732Y12891*
X23726Y12863*
X23723Y12836*
X23722Y12807*
X23723Y12773*
X23727Y12740*
X23734Y12709*
X23744Y12679*
X23757Y12651*
X23775Y12625*
X23796Y12603*
X23821Y12585*
X23847Y12571*
X23874Y12562*
X23902Y12556*
X23931Y12554*
X23965Y12557*
X23998Y12565*
X24028Y12578*
X24056Y12597*
X24080Y12622*
X24100Y12651*
X24114Y12684*
X24110Y12669*
X24485Y12632D02*
X24441Y12637D01*
X24448Y12667*
X24441Y12649*
X24432Y12635*
X24420Y12623*
X24407Y12613*
X24392Y12607*
X24375Y12602*
X24356Y12601*
X24330Y12603*
X24309Y12609*
X24291Y12619*
X24276Y12632*
X24263Y12650*
X24253Y12672*
X24247Y12700*
X24244Y12735*
X24245Y12758*
X24248Y12779*
X24253Y12798*
X24259Y12814*
X24266Y12828*
X24275Y12839*
X24284Y12848*
X24296Y12856*
X24310Y12862*
X24324Y12867*
X24339Y12870*
X24356Y12871*
X24376Y12869*
X24393Y12866*
X24407Y12860*
X24419Y12852*
X24428Y12843*
X24436Y12832*
X24443Y12817*
X24434Y12851*
X24475Y12857*
X24482Y12835*
X24472Y12856*
X24459Y12876*
X24443Y12893*
X24424Y12906*
X24403Y12916*
X24381Y12921*
X24358Y12923*
X24326Y12920*
X24296Y12911*
X24269Y12895*
X24245Y12872*
X24226Y12844*
X24214Y12811*
X24207Y12775*
X24205Y12736*
X24207Y12697*
X24213Y12661*
X24225Y12628*
X24244Y12599*
X24267Y12577*
X24294Y12561*
X24323Y12551*
X24354Y12548*
X24380Y12550*
X24405Y12557*
X24428Y12568*
X24449Y12584*
X24466Y12604*
X24480Y12628*
X24489Y12653*
X24485Y12632*
X24714Y12609D02*
X24756Y12609D01*
X24756Y13055*
X24661Y12971*
X24650Y12962*
X24637Y12953*
X24622Y12944*
X24606Y12935*
X24592Y12928*
X24579Y12922*
X24635Y12944*
X24635Y12896*
X24634Y12896*
X24660Y12911*
X24684Y12928*
X24707Y12947*
X24727Y12967*
X24745Y12986*
X24760Y13007*
X24756Y13000*
X24714Y13000*
X24714Y12609*
%LNtop silkscreen component 07747c070a6d73cb*%
D12*
X11085Y12719D02*
X11085Y9778D01*
X11085Y12719D02*
X9785Y12719D01*
X9785Y9778*
X11085Y9778*
D11*
X9922Y11107D02*
X9886Y11116D01*
X9892Y11134*
X9879Y11108*
X9864Y11087*
X9846Y11070*
X9826Y11057*
X9803Y11047*
X9777Y11041*
X9747Y11039*
X9716Y11041*
X9688Y11046*
X9666Y11053*
X9646Y11063*
X9630Y11076*
X9615Y11092*
X9601Y11111*
X9590Y11134*
X9580Y11160*
X9574Y11187*
X9569Y11216*
X9568Y11246*
X9570Y11278*
X9574Y11306*
X9582Y11333*
X9592Y11356*
X9604Y11377*
X9619Y11394*
X9635Y11409*
X9655Y11422*
X9676Y11432*
X9699Y11439*
X9723Y11443*
X9749Y11445*
X9777Y11443*
X9802Y11438*
X9823Y11429*
X9842Y11417*
X9859Y11403*
X9873Y11385*
X9885Y11364*
X9875Y11389*
X9911Y11397*
X9916Y11384*
X9901Y11412*
X9882Y11436*
X9860Y11456*
X9835Y11472*
X9807Y11483*
X9778Y11489*
X9748Y11491*
X9714Y11489*
X9681Y11482*
X9651Y11471*
X9624Y11455*
X9600Y11435*
X9580Y11411*
X9563Y11385*
X9552Y11357*
X9543Y11330*
X9538Y11302*
X9534Y11274*
X9533Y11246*
X9535Y11212*
X9539Y11179*
X9545Y11148*
X9555Y11118*
X9569Y11089*
X9586Y11064*
X9608Y11041*
X9633Y11023*
X9659Y11010*
X9686Y11000*
X9714Y10995*
X9743Y10993*
X9777Y10995*
X9809Y11003*
X9840Y11017*
X9868Y11036*
X9892Y11061*
X9911Y11090*
X9926Y11122*
X9922Y11107*
X10296Y11070D02*
X10253Y11076D01*
X10260Y11106*
X10252Y11088*
X10243Y11074*
X10232Y11062*
X10218Y11052*
X10204Y11045*
X10187Y11041*
X10167Y11039*
X10141Y11042*
X10120Y11048*
X10103Y11057*
X10087Y11071*
X10074Y11088*
X10065Y11110*
X10058Y11138*
X10056Y11174*
X10057Y11196*
X10060Y11217*
X10065Y11236*
X10071Y11253*
X10078Y11267*
X10086Y11278*
X10096Y11287*
X10107Y11294*
X10121Y11301*
X10136Y11305*
X10151Y11308*
X10167Y11309*
X10188Y11308*
X10205Y11304*
X10219Y11299*
X10230Y11291*
X10240Y11282*
X10248Y11270*
X10254Y11256*
X10245Y11289*
X10287Y11296*
X10293Y11273*
X10284Y11295*
X10271Y11314*
X10254Y11331*
X10235Y11345*
X10214Y11354*
X10192Y11360*
X10169Y11362*
X10138Y11359*
X10108Y11349*
X10080Y11333*
X10057Y11311*
X10038Y11283*
X10025Y11250*
X10018Y11214*
X10016Y11175*
X10018Y11135*
X10025Y11100*
X10037Y11067*
X10055Y11038*
X10078Y11016*
X10105Y11000*
X10135Y10990*
X10166Y10987*
X10192Y10989*
X10216Y10996*
X10239Y11007*
X10260Y11022*
X10278Y11043*
X10291Y11066*
X10300Y11092*
X10296Y11070*
X10526Y11047D02*
X10567Y11047D01*
X10567Y11493*
X10472Y11409*
X10461Y11401*
X10448Y11392*
X10434Y11383*
X10418Y11374*
X10404Y11367*
X10390Y11360*
X10447Y11383*
X10447Y11335*
X10445Y11334*
X10471Y11350*
X10495Y11367*
X10518Y11386*
X10538Y11405*
X10556Y11425*
X10571Y11446*
X10567Y11439*
X10526Y11439*
X10526Y11047*
X10857Y11047D02*
X10898Y11047D01*
X10898Y11493*
X10803Y11409*
X10792Y11401*
X10779Y11392*
X10764Y11383*
X10749Y11374*
X10734Y11367*
X10721Y11360*
X10777Y11383*
X10777Y11335*
X10776Y11334*
X10802Y11350*
X10826Y11367*
X10849Y11386*
X10869Y11405*
X10887Y11425*
X10902Y11446*
X10898Y11439*
X10857Y11439*
X10857Y11047*
%LNtop silkscreen component 063fa78f45d212e5*%
D12*
X20318Y9139D02*
X22398Y11219D01*
X20318Y9139D02*
X21238Y8220D01*
X23317Y10300*
X22398Y11219*
D11*
X21683Y9798D02*
X21664Y9830D01*
X21681Y9838*
X21653Y9829*
X21628Y9825*
X21603Y9826*
X21579Y9830*
X21557Y9840*
X21534Y9854*
X21512Y9873*
X21490Y9897*
X21475Y9920*
X21464Y9941*
X21457Y9962*
X21455Y9983*
X21455Y10005*
X21459Y10027*
X21467Y10052*
X21479Y10077*
X21494Y10101*
X21511Y10124*
X21531Y10146*
X21555Y10168*
X21578Y10185*
X21602Y10198*
X21626Y10208*
X21649Y10213*
X21672Y10215*
X21694Y10214*
X21716Y10209*
X21739Y10201*
X21760Y10190*
X21780Y10176*
X21800Y10159*
X21818Y10138*
X21832Y10117*
X21841Y10095*
X21846Y10074*
X21848Y10051*
X21845Y10029*
X21838Y10006*
X21850Y10030*
X21880Y10011*
X21874Y9998*
X21883Y10028*
X21888Y10059*
X21886Y10089*
X21880Y10118*
X21868Y10145*
X21852Y10170*
X21831Y10193*
X21806Y10215*
X21778Y10233*
X21749Y10247*
X21718Y10255*
X21687Y10257*
X21656Y10255*
X21626Y10248*
X21598Y10237*
X21573Y10223*
X21549Y10207*
X21527Y10190*
X21507Y10171*
X21483Y10146*
X21463Y10120*
X21446Y10093*
X21431Y10065*
X21421Y10035*
X21415Y10005*
X21414Y9974*
X21419Y9943*
X21428Y9915*
X21441Y9890*
X21456Y9866*
X21476Y9844*
X21501Y9822*
X21530Y9804*
X21561Y9792*
X21595Y9786*
X21629Y9786*
X21663Y9793*
X21697Y9806*
X21683Y9798*
X21922Y9507D02*
X21895Y9542D01*
X21921Y9558*
X21903Y9551*
X21887Y9547*
X21870Y9547*
X21854Y9549*
X21838Y9555*
X21823Y9564*
X21809Y9577*
X21792Y9596*
X21781Y9616*
X21776Y9635*
X21774Y9655*
X21778Y9677*
X21786Y9699*
X21802Y9724*
X21825Y9750*
X21842Y9766*
X21859Y9778*
X21875Y9789*
X21891Y9796*
X21906Y9800*
X21920Y9802*
X21933Y9802*
X21947Y9799*
X21961Y9794*
X21974Y9787*
X21987Y9778*
X21999Y9768*
X22013Y9752*
X22022Y9737*
X22028Y9724*
X22031Y9710*
X22031Y9696*
X22029Y9683*
X22023Y9668*
X22041Y9698*
X22074Y9673*
X22063Y9653*
X22071Y9675*
X22076Y9698*
X22077Y9722*
X22073Y9744*
X22065Y9766*
X22053Y9785*
X22038Y9803*
X22014Y9823*
X21986Y9838*
X21955Y9846*
X21923Y9847*
X21889Y9840*
X21857Y9826*
X21827Y9805*
X21798Y9779*
X21771Y9750*
X21750Y9720*
X21736Y9688*
X21728Y9655*
X21729Y9623*
X21737Y9592*
X21751Y9565*
X21771Y9541*
X21790Y9524*
X21812Y9511*
X21837Y9502*
X21862Y9499*
X21889Y9501*
X21915Y9508*
X21940Y9520*
X21922Y9507*
X22005Y9416D02*
X21972Y9443D01*
X21984Y9461*
X21973Y9438*
X21967Y9414*
X21966Y9389*
X21970Y9366*
X21978Y9343*
X21990Y9323*
X22005Y9306*
X22020Y9292*
X22036Y9281*
X22054Y9273*
X22072Y9267*
X22091Y9263*
X22109Y9262*
X22127Y9263*
X22144Y9266*
X22162Y9271*
X22180Y9278*
X22198Y9287*
X22216Y9297*
X22234Y9309*
X22252Y9322*
X22268Y9335*
X22284Y9350*
X22286Y9353*
X22289Y9355*
X22291Y9358*
X22394Y9469*
X22235Y9443*
X22224Y9443*
X22213Y9444*
X22202Y9446*
X22191Y9450*
X22182Y9454*
X22172Y9461*
X22164Y9468*
X22152Y9483*
X22143Y9499*
X22139Y9516*
X22137Y9535*
X22140Y9555*
X22146Y9573*
X22158Y9593*
X22175Y9613*
X22195Y9630*
X22216Y9642*
X22235Y9649*
X22256Y9651*
X22276Y9650*
X22295Y9644*
X22312Y9635*
X22329Y9620*
X22340Y9608*
X22348Y9595*
X22355Y9581*
X22359Y9566*
X22361Y9550*
X22361Y9535*
X22358Y9518*
X22352Y9501*
X22343Y9482*
X22328Y9460*
X22307Y9434*
X22280Y9406*
X22250Y9377*
X22222Y9354*
X22197Y9337*
X22174Y9324*
X22154Y9316*
X22135Y9312*
X22118Y9310*
X22101Y9311*
X22085Y9315*
X22070Y9322*
X22056Y9331*
X22041Y9343*
X22029Y9358*
X22020Y9372*
X22015Y9386*
X22012Y9400*
X22013Y9414*
X22016Y9428*
X22023Y9443*
X22005Y9416*
X22322Y9470D02*
X22322Y9470D01*
X22338Y9488*
X22350Y9508*
X22357Y9527*
X22360Y9548*
X22360Y9567*
X22355Y9585*
X22347Y9602*
X22335Y9616*
X22320Y9628*
X22303Y9637*
X22283Y9642*
X22262Y9642*
X22241Y9639*
X22220Y9632*
X22200Y9620*
X22181Y9603*
X22167Y9586*
X22156Y9568*
X22150Y9549*
X22147Y9529*
X22149Y9510*
X22154Y9492*
X22163Y9475*
X22176Y9459*
X22191Y9447*
X22208Y9438*
X22226Y9433*
X22245Y9431*
X22265Y9434*
X22284Y9442*
X22303Y9454*
X22322Y9470*
%LNtop silkscreen component 9a176432f7cf172c*%
X2973Y10993D02*
X2973Y10980D01*
X3596Y10980*
X3507Y11080*
X3494Y11097*
X3480Y11117*
X3466Y11140*
X3453Y11163*
X3441Y11185*
X3432Y11205*
X3452Y11156*
X3431Y11156*
X3436Y11146*
X3458Y11110*
X3482Y11075*
X3508Y11044*
X3535Y11015*
X3562Y10991*
X3590Y10970*
X3591Y10970*
X3591Y10993*
X2973Y10993*
X3276Y10667D02*
X3333Y10665D01*
X3384Y10661*
X3427Y10653*
X3464Y10643*
X3495Y10631*
X3521Y10616*
X3542Y10600*
X3560Y10582*
X3573Y10562*
X3583Y10540*
X3588Y10514*
X3591Y10483*
X3589Y10462*
X3586Y10441*
X3581Y10423*
X3573Y10407*
X3564Y10392*
X3553Y10378*
X3539Y10365*
X3523Y10354*
X3505Y10343*
X3483Y10333*
X3459Y10324*
X3433Y10316*
X3402Y10310*
X3366Y10305*
X3324Y10302*
X3276Y10301*
X3219Y10303*
X3168Y10307*
X3125Y10315*
X3088Y10325*
X3057Y10337*
X3031Y10351*
X3010Y10368*
X2992Y10386*
X2979Y10406*
X2969Y10428*
X2963Y10454*
X2961Y10483*
X2965Y10523*
X2975Y10555*
X2992Y10583*
X3016Y10606*
X3058Y10631*
X3114Y10650*
X3187Y10662*
X3276Y10667*
X3276Y10627D02*
X3276Y10627D01*
X3195Y10625*
X3129Y10617*
X3077Y10604*
X3041Y10586*
X3015Y10564*
X2997Y10540*
X2986Y10513*
X2982Y10484*
X2986Y10455*
X2997Y10428*
X3015Y10404*
X3041Y10382*
X3078Y10364*
X3129Y10351*
X3195Y10343*
X3276Y10341*
X3357Y10343*
X3423Y10351*
X3474Y10364*
X3511Y10382*
X3536Y10404*
X3554Y10428*
X3565Y10455*
X3569Y10485*
X3566Y10514*
X3556Y10539*
X3540Y10562*
X3517Y10582*
X3478Y10602*
X3424Y10616*
X3357Y10624*
X3276Y10627*
%LNtop silkscreen component 57f7bb6b34cfe951*%
D12*
X18441Y7947D02*
X19360Y8866D01*
X20633Y7593*
X19714Y6674*
X18441Y7947*
D11*
X19553Y9098D02*
X19735Y9279D01*
X19793Y9221*
X19804Y9209*
X19812Y9199*
X19818Y9190*
X19821Y9184*
X19823Y9178*
X19824Y9173*
X19824Y9168*
X19823Y9162*
X19821Y9157*
X19819Y9152*
X19816Y9147*
X19813Y9144*
X19810Y9141*
X19806Y9139*
X19802Y9137*
X19798Y9136*
X19794Y9135*
X19789Y9135*
X19783Y9136*
X19668Y9167*
X19719Y9057*
X19721Y9050*
X19722Y9044*
X19722Y9038*
X19720Y9033*
X19718Y9027*
X19715Y9022*
X19710Y9016*
X19705Y9012*
X19700Y9008*
X19695Y9005*
X19689Y9003*
X19683Y9001*
X19678Y9000*
X19674Y9000*
X19670Y9000*
X19666Y9001*
X19662Y9003*
X19656Y9005*
X19649Y9009*
X19642Y9014*
X19633Y9020*
X19624Y9028*
X19614Y9038*
X19553Y9098*
X19662Y9211D02*
X19662Y9211D01*
X19717Y9157*
X19727Y9147*
X19736Y9138*
X19745Y9132*
X19751Y9128*
X19760Y9124*
X19768Y9122*
X19776Y9121*
X19783Y9121*
X19791Y9123*
X19798Y9126*
X19805Y9131*
X19812Y9137*
X19818Y9143*
X19822Y9150*
X19826Y9157*
X19828Y9165*
X19829Y9173*
X19829Y9180*
X19827Y9188*
X19824Y9195*
X19819Y9204*
X19811Y9213*
X19801Y9225*
X19789Y9237*
X19738Y9288*
X19662Y9211*
X19545Y9095D02*
X19545Y9095D01*
X19608Y9032*
X19616Y9024*
X19622Y9018*
X19628Y9013*
X19632Y9010*
X19639Y9006*
X19645Y9002*
X19652Y8999*
X19658Y8998*
X19665Y8997*
X19671Y8996*
X19678Y8997*
X19685Y8999*
X19692Y9001*
X19699Y9005*
X19705Y9010*
X19711Y9015*
X19718Y9022*
X19723Y9030*
X19726Y9038*
X19729Y9047*
X19730Y9056*
X19729Y9065*
X19727Y9073*
X19723Y9082*
X19718Y9091*
X19711Y9101*
X19702Y9111*
X19690Y9123*
X19632Y9182*
X19545Y9095*
X19779Y8872D02*
X20030Y8984D01*
X20017Y8997*
X19910Y8741*
X19950Y8701*
X19997Y8808*
X19842Y8963*
X19737Y8914*
X19779Y8872*
X19780Y8936D02*
X19970Y8746D01*
X20044Y8909*
X20053Y8930*
X20062Y8948*
X20069Y8963*
X20169Y9149*
X19991Y9035*
X19977Y9027*
X19963Y9019*
X19948Y9012*
X19780Y8936*
X20025Y8627D02*
X20206Y8808D01*
X20168Y8846*
X19945Y8623*
X20069Y8498*
X20111Y8540*
X20025Y8627*
D13*
X20728Y7003D03*
%LNtop silkscreen component 824781f5bf643550*%
D12*
X23492Y14375D02*
X20551Y14375D01*
X23492Y14375D02*
X23492Y15675D01*
X20551Y15675*
X20551Y14375*
D11*
X21907Y15319D02*
X21916Y15355D01*
X21934Y15349*
X21908Y15362*
X21887Y15377*
X21870Y15395*
X21856Y15415*
X21847Y15438*
X21841Y15464*
X21839Y15493*
X21840Y15525*
X21845Y15552*
X21853Y15575*
X21863Y15595*
X21876Y15611*
X21892Y15626*
X21911Y15639*
X21934Y15651*
X21960Y15660*
X21987Y15667*
X22016Y15671*
X22045Y15673*
X22077Y15671*
X22106Y15667*
X22132Y15659*
X22156Y15649*
X22176Y15637*
X22194Y15622*
X22209Y15606*
X22221Y15586*
X22231Y15565*
X22239Y15542*
X22243Y15518*
X22245Y15492*
X22243Y15464*
X22237Y15439*
X22229Y15418*
X22217Y15399*
X22202Y15382*
X22185Y15368*
X22163Y15356*
X22189Y15366*
X22197Y15330*
X22183Y15325*
X22211Y15340*
X22236Y15359*
X22256Y15381*
X22272Y15406*
X22283Y15434*
X22289Y15463*
X22291Y15493*
X22289Y15527*
X22282Y15559*
X22271Y15590*
X22254Y15617*
X22234Y15641*
X22211Y15661*
X22185Y15678*
X22157Y15689*
X22129Y15697*
X22102Y15703*
X22074Y15706*
X22046Y15708*
X22011Y15706*
X21979Y15702*
X21947Y15696*
X21917Y15686*
X21889Y15672*
X21863Y15655*
X21841Y15633*
X21823Y15608*
X21810Y15582*
X21800Y15555*
X21794Y15527*
X21792Y15498*
X21795Y15464*
X21803Y15431*
X21817Y15401*
X21836Y15373*
X21860Y15349*
X21889Y15330*
X21922Y15315*
X21907Y15319*
X21870Y14945D02*
X21876Y14988D01*
X21905Y14981*
X21888Y14989*
X21873Y14998*
X21861Y15009*
X21852Y15023*
X21845Y15037*
X21841Y15054*
X21839Y15074*
X21841Y15099*
X21847Y15121*
X21857Y15138*
X21870Y15154*
X21888Y15167*
X21910Y15176*
X21938Y15183*
X21973Y15185*
X21996Y15184*
X22017Y15181*
X22036Y15176*
X22053Y15170*
X22066Y15163*
X22077Y15155*
X22086Y15145*
X22094Y15134*
X22100Y15120*
X22105Y15105*
X22108Y15090*
X22109Y15074*
X22108Y15053*
X22104Y15036*
X22098Y15022*
X22091Y15011*
X22081Y15001*
X22070Y14993*
X22056Y14987*
X22089Y14996*
X22095Y14954*
X22073Y14948*
X22094Y14957*
X22114Y14970*
X22131Y14987*
X22144Y15006*
X22154Y15026*
X22159Y15049*
X22161Y15072*
X22158Y15103*
X22149Y15133*
X22133Y15161*
X22111Y15184*
X22082Y15203*
X22049Y15216*
X22013Y15223*
X21974Y15225*
X21935Y15223*
X21899Y15216*
X21866Y15204*
X21838Y15186*
X21815Y15163*
X21799Y15136*
X21790Y15106*
X21787Y15075*
X21789Y15049*
X21795Y15024*
X21806Y15001*
X21822Y14981*
X21842Y14963*
X21866Y14950*
X21892Y14940*
X21870Y14945*
X21803Y14625D02*
X21847Y14625D01*
X21847Y14847*
X21804Y14848*
X21809Y14847*
X21814Y14846*
X21820Y14844*
X21832Y14839*
X21845Y14832*
X21857Y14824*
X21870Y14813*
X21885Y14800*
X21901Y14784*
X21919Y14764*
X21939Y14741*
X21971Y14703*
X22000Y14671*
X22027Y14645*
X22051Y14624*
X22076Y14608*
X22101Y14596*
X22127Y14589*
X22154Y14586*
X22181Y14589*
X22207Y14596*
X22231Y14610*
X22252Y14627*
X22269Y14649*
X22281Y14674*
X22288Y14701*
X22290Y14729*
X22288Y14759*
X22280Y14787*
X22267Y14813*
X22249Y14835*
X22226Y14854*
X22200Y14867*
X22171Y14874*
X22197Y14872*
X22192Y14829*
X22167Y14833*
X22187Y14826*
X22202Y14817*
X22214Y14806*
X22224Y14792*
X22232Y14775*
X22236Y14754*
X22238Y14728*
X22236Y14703*
X22231Y14682*
X22223Y14665*
X22213Y14651*
X22200Y14640*
X22186Y14632*
X22171Y14628*
X22152Y14626*
X22143Y14626*
X22134Y14628*
X22124Y14630*
X22115Y14634*
X22105Y14639*
X22094Y14645*
X22082Y14654*
X22069Y14665*
X22054Y14680*
X22035Y14699*
X22013Y14724*
X21987Y14753*
X21966Y14778*
X21948Y14798*
X21934Y14814*
X21922Y14826*
X21912Y14836*
X21902Y14844*
X21891Y14852*
X21803Y14909*
X21803Y14625*
%LNtop silkscreen component 4dcbdc218eb7df55*%
D12*
X19000Y12622D02*
X19000Y15563D01*
X19000Y12622D02*
X20300Y12622D01*
X20300Y15563*
X19000Y15563*
D11*
X19500Y13941D02*
X19465Y13950D01*
X19470Y13967*
X19458Y13942*
X19442Y13921*
X19424Y13904*
X19404Y13890*
X19381Y13881*
X19356Y13875*
X19326Y13873*
X19294Y13874*
X19267Y13879*
X19244Y13887*
X19225Y13897*
X19208Y13910*
X19193Y13926*
X19180Y13945*
X19168Y13968*
X19159Y13994*
X19152Y14021*
X19148Y14050*
X19147Y14079*
X19148Y14111*
X19153Y14140*
X19160Y14166*
X19170Y14190*
X19183Y14210*
X19197Y14228*
X19214Y14243*
X19233Y14255*
X19255Y14265*
X19278Y14273*
X19302Y14277*
X19327Y14279*
X19356Y14277*
X19380Y14271*
X19402Y14263*
X19421Y14251*
X19438Y14236*
X19452Y14219*
X19463Y14197*
X19454Y14223*
X19489Y14231*
X19494Y14217*
X19479Y14245*
X19461Y14270*
X19439Y14290*
X19413Y14306*
X19386Y14317*
X19357Y14323*
X19326Y14325*
X19292Y14323*
X19260Y14316*
X19230Y14305*
X19202Y14288*
X19178Y14268*
X19158Y14245*
X19142Y14219*
X19130Y14191*
X19122Y14163*
X19116Y14136*
X19113Y14108*
X19112Y14080*
X19113Y14045*
X19117Y14013*
X19124Y13981*
X19134Y13951*
X19147Y13923*
X19165Y13897*
X19186Y13875*
X19211Y13857*
X19237Y13844*
X19264Y13834*
X19292Y13828*
X19321Y13826*
X19355Y13829*
X19388Y13837*
X19419Y13851*
X19446Y13870*
X19470Y13894*
X19490Y13923*
X19504Y13956*
X19500Y13941*
X19875Y13904D02*
X19831Y13910D01*
X19838Y13939*
X19831Y13922*
X19822Y13907*
X19810Y13895*
X19797Y13886*
X19782Y13879*
X19765Y13875*
X19746Y13873*
X19720Y13875*
X19699Y13881*
X19681Y13891*
X19666Y13904*
X19653Y13922*
X19643Y13944*
X19637Y13972*
X19635Y14007*
X19636Y14030*
X19638Y14051*
X19643Y14070*
X19649Y14087*
X19656Y14100*
X19665Y14111*
X19674Y14120*
X19686Y14128*
X19700Y14134*
X19714Y14139*
X19729Y14142*
X19746Y14143*
X19766Y14142*
X19783Y14138*
X19797Y14132*
X19809Y14125*
X19818Y14115*
X19826Y14104*
X19833Y14089*
X19824Y14123*
X19865Y14129*
X19872Y14107*
X19862Y14128*
X19849Y14148*
X19833Y14165*
X19814Y14178*
X19793Y14188*
X19771Y14193*
X19748Y14195*
X19716Y14192*
X19686Y14183*
X19659Y14167*
X19635Y14145*
X19616Y14116*
X19604Y14083*
X19597Y14047*
X19595Y14008*
X19597Y13969*
X19603Y13933*
X19615Y13900*
X19634Y13872*
X19657Y13849*
X19684Y13833*
X19713Y13824*
X19744Y13821*
X19770Y13823*
X19795Y13829*
X19818Y13840*
X19839Y13856*
X19856Y13876*
X19870Y13900*
X19879Y13926*
X19875Y13904*
X20162Y14091D02*
X20027Y14149D01*
X20018Y14155*
X20011Y14160*
X20007Y14165*
X20003Y14171*
X20001Y14178*
X19999Y14186*
X19998Y14196*
X20000Y14212*
X20004Y14226*
X20011Y14238*
X20021Y14249*
X20033Y14259*
X20048Y14266*
X20066Y14270*
X20088Y14272*
X20111Y14270*
X20129Y14266*
X20144Y14259*
X20157Y14249*
X20167Y14237*
X20174Y14224*
X20178Y14211*
X20180Y14194*
X20179Y14185*
X20178Y14178*
X20175Y14171*
X20172Y14165*
X20167Y14160*
X20161Y14154*
X20152Y14149*
X20028Y14094*
X20158Y14042*
X20169Y14035*
X20179Y14028*
X20186Y14019*
X20192Y14009*
X20196Y13998*
X20199Y13985*
X20200Y13971*
X20198Y13950*
X20193Y13932*
X20184Y13916*
X20171Y13902*
X20155Y13889*
X20137Y13880*
X20116Y13875*
X20089Y13873*
X20063Y13875*
X20041Y13880*
X20023Y13889*
X20007Y13902*
X19995Y13917*
X19986Y13933*
X19981Y13951*
X19979Y13973*
X19980Y13988*
X19982Y14001*
X19987Y14012*
X19993Y14022*
X20000Y14030*
X20009Y14037*
X20020Y14042*
X20162Y14091*
X20009Y14199D02*
X20009Y14199D01*
X20010Y14182*
X20015Y14167*
X20022Y14153*
X20031Y14142*
X20043Y14132*
X20057Y14125*
X20073Y14121*
X20090Y14119*
X20106Y14121*
X20121Y14125*
X20135Y14132*
X20147Y14141*
X20157Y14153*
X20163Y14166*
X20168Y14180*
X20169Y14195*
X20168Y14211*
X20163Y14226*
X20156Y14239*
X20146Y14251*
X20134Y14261*
X20120Y14268*
X20105Y14272*
X20089Y14274*
X20072Y14272*
X20057Y14268*
X20044Y14261*
X20032Y14251*
X20022Y14240*
X20015Y14227*
X20010Y14213*
X20009Y14199*
X19990Y13972D02*
X19990Y13972D01*
X19990Y13959*
X19993Y13946*
X19996Y13934*
X20002Y13922*
X20009Y13911*
X20017Y13901*
X20027Y13892*
X20038Y13885*
X20050Y13879*
X20063Y13875*
X20076Y13872*
X20090Y13871*
X20111Y13873*
X20129Y13878*
X20146Y13887*
X20161Y13899*
X20174Y13914*
X20182Y13931*
X20188Y13949*
X20189Y13970*
X20188Y13991*
X20182Y14010*
X20173Y14027*
X20160Y14042*
X20145Y14054*
X20128Y14063*
X20109Y14068*
X20088Y14070*
X20068Y14068*
X20049Y14063*
X20032Y14054*
X20017Y14042*
X20005Y14027*
X19997Y14010*
X19991Y13992*
X19990Y13972*
%LNtop silkscreen component 18f52f8a688cca6d*%
D12*
X2268Y19023D02*
X8063Y19023D01*
X8063Y24818D02*
X2268Y24818D01*
X2268Y19023*
X8063Y24818D02*
X8063Y19023D01*
D11*
X4886Y22748D02*
X5548Y22748D01*
X5548Y22748*
X4886Y22748*
X4886Y22748*
X4886Y22472D02*
X5548Y22472D01*
X5548Y22407*
X5042Y22238*
X5007Y22226*
X4976Y22216*
X4951Y22208*
X4776Y22154*
X4953Y22097*
X4980Y22088*
X5013Y22077*
X5051Y22064*
X5548Y21893*
X5548Y21844*
X4886Y21844*
X4886Y21840*
X5775Y21840*
X4886Y22149*
X4886Y22168*
X5793Y22476*
X4886Y22476*
X4886Y22472*
X5548Y21079D02*
X5548Y21079D01*
X5158Y21079*
X5106Y21081*
X5062Y21085*
X5024Y21092*
X4993Y21102*
X4968Y21114*
X4946Y21130*
X4926Y21150*
X4908Y21175*
X4893Y21204*
X4882Y21239*
X4875Y21280*
X4873Y21327*
X4875Y21373*
X4881Y21414*
X4891Y21449*
X4904Y21478*
X4920Y21503*
X4939Y21523*
X4960Y21540*
X4986Y21553*
X5018Y21563*
X5057Y21571*
X5104Y21576*
X5158Y21578*
X5548Y21578*
X5548Y21579*
X5157Y21579*
X5109Y21578*
X5065Y21574*
X5027Y21567*
X4993Y21557*
X4963Y21542*
X4936Y21523*
X4913Y21499*
X4894Y21471*
X4880Y21440*
X4870Y21407*
X4864Y21373*
X4862Y21335*
X4866Y21277*
X4877Y21224*
X4898Y21178*
X4929Y21139*
X4972Y21110*
X5025Y21092*
X5087Y21082*
X5157Y21079*
X5548Y21079*
D14*
X7451Y24206D03*
%LNtop silkscreen component 230955736bc0dec0*%
D12*
X7211Y3490D02*
X4270Y3490D01*
X7211Y3490D02*
X7211Y4790D01*
X4270Y4790*
X4270Y3490*
D11*
X5525Y4667D02*
X6140Y4667D01*
X6140Y4401*
X6139Y4358*
X6136Y4322*
X6131Y4294*
X6124Y4273*
X6116Y4257*
X6106Y4243*
X6093Y4230*
X6077Y4218*
X6058Y4208*
X6038Y4201*
X6018Y4197*
X5996Y4196*
X5968Y4198*
X5944Y4205*
X5922Y4216*
X5902Y4231*
X5885Y4251*
X5871Y4278*
X5859Y4312*
X5822Y4501*
X5747Y4353*
X5740Y4340*
X5733Y4331*
X5727Y4323*
X5710Y4306*
X5690Y4288*
X5667Y4271*
X5642Y4253*
X5525Y4179*
X5525Y4178*
X5651Y4257*
X5682Y4278*
X5710Y4296*
X5733Y4313*
X5754Y4329*
X5772Y4343*
X5788Y4358*
X5801Y4373*
X5813Y4389*
X5821Y4403*
X5828Y4418*
X5834Y4433*
X5839Y4449*
X5841Y4463*
X5843Y4478*
X5843Y4494*
X5844Y4512*
X5844Y4673*
X5525Y4673*
X5525Y4667*
X5875Y4623D02*
X5875Y4623D01*
X5875Y4419*
X5876Y4388*
X5878Y4361*
X5882Y4337*
X5888Y4317*
X5896Y4300*
X5906Y4285*
X5917Y4272*
X5931Y4262*
X5946Y4253*
X5962Y4247*
X5978Y4244*
X5995Y4243*
X6020Y4245*
X6042Y4252*
X6062Y4263*
X6079Y4279*
X6093Y4301*
X6104Y4327*
X6110Y4359*
X6112Y4396*
X6112Y4623*
X5875Y4623*
X5372Y3969D02*
X5374Y3981D01*
X5386Y3983*
X5361Y3973*
X5339Y3959*
X5321Y3939*
X5305Y3912*
X5294Y3883*
X5288Y3852*
X5286Y3819*
X5288Y3784*
X5294Y3752*
X5304Y3722*
X5320Y3695*
X5340Y3672*
X5363Y3654*
X5388Y3640*
X5417Y3630*
X5440Y3626*
X5468Y3624*
X5502Y3623*
X5663Y3622*
X5553Y3735*
X5538Y3760*
X5529Y3787*
X5526Y3817*
X5530Y3857*
X5540Y3890*
X5558Y3918*
X5583Y3942*
X5616Y3963*
X5652Y3978*
X5692Y3987*
X5738Y3990*
X5769Y3989*
X5799Y3985*
X5827Y3978*
X5854Y3968*
X5878Y3956*
X5898Y3942*
X5915Y3926*
X5929Y3908*
X5940Y3888*
X5948Y3867*
X5953Y3843*
X5954Y3818*
X5951Y3784*
X5941Y3755*
X5924Y3729*
X5807Y3614*
X5943Y3614*
X5943Y3635*
X5546Y3635*
X5492Y3636*
X5449Y3640*
X5417Y3647*
X5395Y3655*
X5379Y3664*
X5364Y3677*
X5350Y3692*
X5338Y3711*
X5328Y3733*
X5321Y3758*
X5317Y3786*
X5315Y3818*
X5317Y3856*
X5324Y3889*
X5334Y3916*
X5347Y3938*
X5362Y3953*
X5379Y3964*
X5401Y3971*
X5372Y3969*
X5743Y3951D02*
X5743Y3951D01*
X5696Y3948*
X5655Y3941*
X5621Y3928*
X5594Y3910*
X5574Y3889*
X5559Y3865*
X5550Y3838*
X5547Y3809*
X5550Y3780*
X5559Y3753*
X5574Y3729*
X5594Y3707*
X5621Y3689*
X5654Y3676*
X5694Y3669*
X5740Y3666*
X5785Y3669*
X5824Y3677*
X5857Y3690*
X5884Y3708*
X5905Y3731*
X5920Y3755*
X5929Y3781*
X5932Y3810*
X5929Y3838*
X5921Y3864*
X5906Y3888*
X5885Y3910*
X5858Y3928*
X5826Y3941*
X5787Y3948*
X5743Y3951*
%LNtop silkscreen component 3749f5233408bbf3*%
X21553Y22996D02*
X21553Y23713D01*
X21808Y23713*
X21849Y23711*
X21885Y23707*
X21914Y23701*
X21939Y23692*
X21959Y23681*
X21976Y23669*
X21991Y23653*
X22005Y23635*
X22016Y23615*
X22023Y23595*
X22028Y23575*
X22029Y23554*
X22028Y23536*
X22024Y23517*
X22017Y23500*
X22008Y23482*
X21997Y23466*
X21982Y23452*
X21964Y23439*
X21845Y23371*
X21980Y23321*
X22003Y23309*
X22023Y23293*
X22039Y23276*
X22052Y23255*
X22061Y23234*
X22067Y23209*
X22069Y23182*
X22067Y23160*
X22064Y23138*
X22058Y23118*
X22049Y23098*
X22039Y23079*
X22028Y23064*
X22017Y23051*
X22005Y23040*
X21991Y23031*
X21974Y23022*
X21955Y23015*
X21933Y23008*
X21909Y23003*
X21880Y22999*
X21849Y22997*
X21813Y22996*
X21553Y22996*
X21610Y23420D02*
X21610Y23420D01*
X21787Y23420*
X21820Y23420*
X21849Y23422*
X21872Y23425*
X21890Y23429*
X21910Y23436*
X21926Y23446*
X21941Y23457*
X21952Y23470*
X21962Y23485*
X21968Y23502*
X21972Y23521*
X21973Y23541*
X21972Y23561*
X21968Y23580*
X21962Y23597*
X21954Y23613*
X21943Y23627*
X21930Y23639*
X21915Y23649*
X21898Y23656*
X21877Y23661*
X21849Y23664*
X21814Y23666*
X21774Y23667*
X21610Y23667*
X21610Y23420*
X21610Y23042D02*
X21610Y23042D01*
X21814Y23042*
X21838Y23042*
X21858Y23043*
X21875Y23044*
X21887Y23046*
X21905Y23050*
X21922Y23055*
X21937Y23061*
X21950Y23068*
X21962Y23077*
X21973Y23087*
X21983Y23100*
X21991Y23114*
X21998Y23129*
X22003Y23146*
X22006Y23164*
X22007Y23183*
X22006Y23205*
X22001Y23225*
X21994Y23244*
X21984Y23262*
X21971Y23278*
X21956Y23291*
X21939Y23301*
X21919Y23310*
X21896Y23316*
X21868Y23320*
X21836Y23322*
X21799Y23323*
X21610Y23323*
X21610Y23042*
X22856Y23713D02*
X22863Y23713D01*
X22863Y23292*
X22861Y23236*
X22856Y23188*
X22849Y23147*
X22838Y23114*
X22825Y23086*
X22808Y23062*
X22786Y23040*
X22759Y23020*
X22727Y23004*
X22689Y22992*
X22645Y22985*
X22594Y22982*
X22544Y22985*
X22500Y22991*
X22462Y23002*
X22430Y23016*
X22403Y23033*
X22381Y23054*
X22363Y23078*
X22348Y23106*
X22337Y23140*
X22328Y23182*
X22323Y23233*
X22321Y23292*
X22321Y23713*
X22328Y23713*
X22328Y23291*
X22329Y23239*
X22333Y23192*
X22340Y23151*
X22351Y23116*
X22366Y23084*
X22387Y23056*
X22412Y23032*
X22441Y23012*
X22474Y22997*
X22508Y22986*
X22545Y22980*
X22585Y22978*
X22647Y22982*
X22703Y22994*
X22752Y23016*
X22793Y23048*
X22823Y23094*
X22842Y23150*
X22853Y23215*
X22856Y23290*
X22856Y23713*
X23353Y22996D02*
X23353Y23718D01*
X23083Y23718*
X23083Y23713*
X23630Y23713*
X23630Y23718*
X23360Y23718*
X23360Y22996*
X23353Y22996*
D15*
X19805Y21374D02*
X19805Y25514D01*
X25545Y25514*
X25545Y21374*
X19805Y21374*
D16*
X25375Y25544D03*
%LNtop silkscreen component db375ef090596bd0*%
D12*
X9616Y24751D02*
X9616Y21809D01*
X9616Y24751D02*
X8316Y24751D01*
X8316Y21809*
X9616Y21809*
D11*
X8402Y23197D02*
X8402Y23587D01*
X8569Y23587*
X8597Y23586*
X8620Y23584*
X8638Y23581*
X8651Y23577*
X8659Y23573*
X8667Y23567*
X8674Y23560*
X8680Y23551*
X8686Y23540*
X8690Y23529*
X8692Y23517*
X8693Y23504*
X8692Y23488*
X8688Y23474*
X8682Y23462*
X8674Y23451*
X8662Y23441*
X8647Y23433*
X8626Y23426*
X8452Y23392*
X8594Y23319*
X8602Y23315*
X8607Y23311*
X8611Y23308*
X8622Y23297*
X8634Y23284*
X8645Y23269*
X8657Y23252*
X8692Y23197*
X8731Y23197*
X8680Y23276*
X8666Y23298*
X8653Y23317*
X8642Y23333*
X8631Y23348*
X8620Y23361*
X8609Y23373*
X8598Y23383*
X8586Y23392*
X8575Y23398*
X8564Y23404*
X8552Y23408*
X8539Y23412*
X8528Y23414*
X8517Y23415*
X8505Y23415*
X8492Y23415*
X8366Y23415*
X8366Y23197*
X8402Y23197*
X8417Y23421D02*
X8417Y23421D01*
X8556Y23421*
X8577Y23422*
X8596Y23423*
X8612Y23426*
X8626Y23430*
X8638Y23435*
X8648Y23442*
X8657Y23450*
X8664Y23460*
X8670Y23470*
X8674Y23481*
X8676Y23492*
X8677Y23504*
X8676Y23520*
X8671Y23535*
X8663Y23549*
X8652Y23561*
X8637Y23571*
X8619Y23578*
X8597Y23582*
X8572Y23583*
X8417Y23583*
X8417Y23421*
X9120Y23197D02*
X9120Y23334D01*
X9015Y23206*
X9003Y23197*
X8989Y23192*
X8969Y23190*
X8956Y23191*
X8943Y23193*
X8931Y23198*
X8919Y23205*
X8908Y23213*
X8899Y23223*
X8890Y23235*
X8882Y23249*
X8876Y23265*
X8871Y23283*
X8868Y23303*
X8867Y23324*
X8868Y23346*
X8871Y23366*
X8875Y23384*
X8881Y23401*
X8888Y23416*
X8896Y23427*
X8905Y23437*
X8915Y23445*
X8927Y23451*
X8939Y23456*
X8952Y23458*
X8967Y23459*
X8977Y23459*
X8985Y23457*
X8993Y23455*
X9000Y23452*
X9007Y23448*
X9014Y23443*
X9019Y23437*
X9116Y23319*
X9116Y23587*
X9074Y23587*
X9074Y23197*
X9120Y23197*
X8878Y23324D02*
X8878Y23324D01*
X8880Y23292*
X8886Y23264*
X8895Y23241*
X8907Y23222*
X8922Y23207*
X8939Y23197*
X8956Y23190*
X8975Y23188*
X8994Y23190*
X9012Y23196*
X9028Y23206*
X9042Y23221*
X9054Y23239*
X9063Y23261*
X9068Y23288*
X9070Y23319*
X9068Y23353*
X9063Y23382*
X9054Y23407*
X9042Y23426*
X9027Y23441*
X9010Y23452*
X8992Y23458*
X8973Y23460*
X8953Y23458*
X8936Y23452*
X8920Y23442*
X8905Y23428*
X8894Y23409*
X8885Y23385*
X8880Y23357*
X8878Y23324*
X9489Y23285D02*
X9405Y23218D01*
X9392Y23209*
X9380Y23203*
X9369Y23198*
X9358Y23194*
X9346Y23192*
X9334Y23190*
X9321Y23190*
X9300Y23191*
X9285Y23194*
X9273Y23199*
X9265Y23205*
X9258Y23212*
X9254Y23220*
X9251Y23229*
X9250Y23241*
X9251Y23247*
X9252Y23253*
X9253Y23258*
X9256Y23264*
X9259Y23269*
X9263Y23274*
X9267Y23277*
X9271Y23281*
X9277Y23285*
X9284Y23288*
X9291Y23291*
X9299Y23294*
X9306Y23295*
X9316Y23297*
X9330Y23299*
X9346Y23301*
X9381Y23306*
X9412Y23311*
X9440Y23317*
X9497Y23334*
X9498Y23377*
X9498Y23381*
X9498Y23385*
X9498Y23389*
X9496Y23412*
X9491Y23436*
X9481Y23459*
X9465Y23478*
X9441Y23494*
X9416Y23504*
X9389Y23510*
X9362Y23511*
X9336Y23510*
X9312Y23506*
X9290Y23499*
X9268Y23487*
X9250Y23470*
X9237Y23450*
X9227Y23429*
X9233Y23449*
X9273Y23443*
X9263Y23404*
X9267Y23415*
X9271Y23424*
X9276Y23430*
X9281Y23435*
X9287Y23440*
X9296Y23445*
X9307Y23450*
X9320Y23454*
X9335Y23457*
X9352Y23459*
X9370Y23460*
X9388Y23459*
X9404Y23457*
X9417Y23455*
X9427Y23452*
X9435Y23448*
X9441Y23445*
X9445Y23442*
X9447Y23440*
X9449Y23437*
X9451Y23433*
X9453Y23428*
X9455Y23421*
X9455Y23417*
X9456Y23407*
X9457Y23393*
X9457Y23376*
X9457Y23296*
X9457Y23257*
X9458Y23225*
X9459Y23200*
X9461Y23181*
X9465Y23165*
X9469Y23150*
X9475Y23136*
X9444Y23197*
X9497Y23197*
X9507Y23175*
X9505Y23181*
X9504Y23188*
X9489Y23285*
X9447Y23325D02*
X9447Y23325D01*
X9428Y23319*
X9406Y23313*
X9379Y23307*
X9348Y23302*
X9331Y23300*
X9317Y23297*
X9305Y23294*
X9296Y23290*
X9288Y23287*
X9282Y23282*
X9277Y23277*
X9272Y23271*
X9268Y23264*
X9266Y23257*
X9264Y23250*
X9264Y23242*
X9265Y23231*
X9268Y23220*
X9274Y23210*
X9282Y23202*
X9292Y23195*
X9304Y23190*
X9319Y23187*
X9335Y23186*
X9352Y23187*
X9368Y23190*
X9383Y23194*
X9397Y23201*
X9410Y23209*
X9421Y23219*
X9430Y23230*
X9437Y23243*
X9441Y23254*
X9444Y23268*
X9446Y23284*
X9447Y23303*
X9447Y23325*
%LNtop silkscreen component f1b8c270e18b6528*%
D12*
X20512Y3583D02*
X23676Y0419D01*
X21891Y4962D02*
X25055Y1798D01*
X21891Y4962D02*
X20512Y3583D01*
D11*
X22311Y1713D02*
X22023Y2360D01*
X22051Y2389*
X22710Y2112*
X22707Y2109*
X22481Y2209*
X22205Y1934*
X22309Y1711*
X22311Y1713*
X22213Y1914D02*
X22500Y2201D01*
X22227Y2324*
X22183Y2345*
X22144Y2363*
X22109Y2381*
X21908Y2489*
X22032Y2294*
X22051Y2263*
X22068Y2231*
X22084Y2198*
X22213Y1914*
X22856Y2258D02*
X22388Y2726D01*
X22406Y2744*
X23251Y2577*
X22745Y3083*
X22742Y3080*
X23210Y2611*
X23192Y2593*
X22346Y2761*
X22853Y2255*
X22856Y2258*
X23539Y2941D02*
X23063Y3417D01*
X22885Y3239*
X22893Y3231*
X23249Y3587*
X23241Y3595*
X23063Y3417*
X23539Y2940*
X23539Y2941*
D12*
X23676Y0419D02*
X25055Y1798D01*
D17*
X20875Y4600D03*
%LNtop silkscreen component 50e32e93e5cbffe0*%
D12*
X15502Y6271D02*
X17582Y4191D01*
X15502Y6271D02*
X14583Y5351D01*
X16663Y3271*
X17582Y4191*
D11*
X15775Y4406D02*
X15737Y4383D01*
X15727Y4404*
X15735Y4380*
X15738Y4359*
X15738Y4338*
X15733Y4318*
X15726Y4298*
X15714Y4279*
X15697Y4260*
X15676Y4241*
X15657Y4228*
X15638Y4218*
X15621Y4213*
X15603Y4211*
X15585Y4211*
X15565Y4215*
X15544Y4222*
X15522Y4232*
X15501Y4244*
X15481Y4259*
X15462Y4277*
X15444Y4297*
X15429Y4318*
X15417Y4338*
X15409Y4359*
X15404Y4379*
X15402Y4398*
X15403Y4417*
X15407Y4436*
X15414Y4455*
X15424Y4474*
X15436Y4491*
X15451Y4508*
X15469Y4524*
X15487Y4535*
X15505Y4543*
X15524Y4548*
X15542Y4549*
X15561Y4546*
X15581Y4541*
X15553Y4554*
X15576Y4591*
X15592Y4583*
X15564Y4592*
X15536Y4596*
X15509Y4595*
X15482Y4588*
X15457Y4577*
X15434Y4562*
X15413Y4544*
X15392Y4521*
X15376Y4496*
X15364Y4469*
X15356Y4440*
X15354Y4412*
X15356Y4383*
X15362Y4356*
X15373Y4330*
X15385Y4307*
X15399Y4286*
X15415Y4266*
X15432Y4247*
X15455Y4226*
X15478Y4208*
X15503Y4192*
X15528Y4179*
X15555Y4170*
X15584Y4164*
X15612Y4164*
X15640Y4168*
X15665Y4176*
X15689Y4188*
X15711Y4202*
X15731Y4220*
X15751Y4243*
X15767Y4270*
X15778Y4298*
X15784Y4329*
X15784Y4361*
X15778Y4392*
X15766Y4423*
X15775Y4406*
X16034Y4619D02*
X15994Y4588D01*
X15976Y4617*
X15982Y4602*
X15985Y4588*
X15985Y4575*
X15983Y4561*
X15979Y4549*
X15971Y4536*
X15960Y4524*
X15944Y4510*
X15928Y4501*
X15912Y4496*
X15895Y4495*
X15877Y4498*
X15858Y4505*
X15837Y4518*
X15814Y4538*
X15801Y4553*
X15790Y4567*
X15781Y4582*
X15775Y4595*
X15771Y4608*
X15770Y4619*
X15770Y4630*
X15772Y4641*
X15776Y4653*
X15782Y4664*
X15790Y4675*
X15799Y4685*
X15812Y4697*
X15824Y4705*
X15836Y4710*
X15847Y4712*
X15858Y4712*
X15869Y4710*
X15881Y4705*
X15848Y4724*
X15877Y4763*
X15899Y4751*
X15879Y4759*
X15857Y4763*
X15835Y4764*
X15814Y4760*
X15794Y4752*
X15776Y4742*
X15759Y4727*
X15741Y4705*
X15727Y4679*
X15720Y4651*
X15719Y4621*
X15725Y4589*
X15738Y4560*
X15757Y4532*
X15781Y4506*
X15807Y4482*
X15834Y4463*
X15864Y4449*
X15894Y4443*
X15924Y4443*
X15952Y4450*
X15978Y4464*
X16000Y4482*
X16016Y4500*
X16028Y4521*
X16036Y4543*
X16039Y4567*
X16038Y4592*
X16031Y4617*
X16020Y4639*
X16034Y4619*
X16177Y4750D02*
X16211Y4784D01*
X15926Y5069*
X15918Y4945*
X15917Y4933*
X15914Y4919*
X15911Y4904*
X15906Y4889*
X15902Y4876*
X15898Y4864*
X15922Y4921*
X15961Y4883*
X15959Y4878*
X15966Y4905*
X15970Y4931*
X15973Y4958*
X15974Y4983*
X15972Y5007*
X15969Y5030*
X15971Y5020*
X15939Y4988*
X16177Y4750*
X16229Y5036D02*
X16206Y5060D01*
X16187Y5083*
X16173Y5103*
X16162Y5121*
X16155Y5138*
X16151Y5153*
X16149Y5166*
X16150Y5178*
X16152Y5189*
X16156Y5199*
X16163Y5210*
X16173Y5222*
X16181Y5229*
X16189Y5235*
X16197Y5240*
X16205Y5243*
X16213Y5244*
X16221Y5245*
X16230Y5245*
X16240Y5244*
X16251Y5241*
X16263Y5236*
X16275Y5230*
X16289Y5223*
X16303Y5214*
X16320Y5201*
X16338Y5185*
X16359Y5165*
X16382Y5140*
X16401Y5118*
X16415Y5097*
X16426Y5079*
X16433Y5063*
X16437Y5048*
X16439Y5034*
X16439Y5022*
X16437Y5012*
X16433Y5001*
X16426Y4990*
X16416Y4979*
X16400Y4966*
X16386Y4959*
X16372Y4955*
X16356Y4955*
X16332Y4961*
X16302Y4976*
X16268Y5001*
X16229Y5036*
X16233Y5038D02*
X16233Y5038D01*
X16269Y5005*
X16300Y4980*
X16328Y4963*
X16352Y4955*
X16372Y4953*
X16390Y4956*
X16406Y4963*
X16421Y4974*
X16432Y4988*
X16438Y5004*
X16441Y5022*
X16439Y5043*
X16431Y5066*
X16415Y5094*
X16390Y5126*
X16356Y5162*
X16320Y5196*
X16288Y5221*
X16260Y5237*
X16237Y5245*
X16217Y5247*
X16198Y5244*
X16182Y5237*
X16168Y5226*
X16157Y5212*
X16150Y5197*
X16147Y5180*
X16148Y5162*
X16157Y5136*
X16174Y5107*
X16199Y5075*
X16233Y5038*
%LNtop silkscreen component 9ff5b968d0fa7309*%
X3305Y15799D02*
X3367Y15943D01*
X3377Y15959*
X3387Y15971*
X3398Y15980*
X3410Y15987*
X3423Y15992*
X3439Y15996*
X3456Y15997*
X3484Y15994*
X3509Y15987*
X3531Y15975*
X3551Y15957*
X3568Y15935*
X3580Y15909*
X3588Y15878*
X3591Y15842*
X3588Y15806*
X3580Y15775*
X3567Y15749*
X3550Y15726*
X3529Y15708*
X3506Y15695*
X3482Y15688*
X3454Y15685*
X3437Y15686*
X3423Y15689*
X3409Y15695*
X3397Y15702*
X3386Y15711*
X3376Y15723*
X3367Y15738*
X3308Y15870*
X3253Y15731*
X3241Y15711*
X3227Y15694*
X3212Y15681*
X3194Y15670*
X3174Y15662*
X3152Y15657*
X3128Y15656*
X3093Y15659*
X3062Y15668*
X3035Y15683*
X3010Y15705*
X2989Y15732*
X2974Y15763*
X2964Y15799*
X2961Y15841*
X2964Y15883*
X2974Y15919*
X2989Y15950*
X3010Y15976*
X3035Y15998*
X3063Y16013*
X3094Y16022*
X3130Y16026*
X3156Y16024*
X3179Y16019*
X3199Y16011*
X3216Y16000*
X3231Y15987*
X3243Y15971*
X3254Y15951*
X3305Y15799*
X3460Y15958D02*
X3460Y15958D01*
X3436Y15956*
X3414Y15950*
X3394Y15940*
X3377Y15925*
X3363Y15908*
X3353Y15888*
X3347Y15865*
X3344Y15840*
X3346Y15816*
X3352Y15794*
X3362Y15774*
X3376Y15757*
X3393Y15743*
X3412Y15733*
X3433Y15726*
X3455Y15724*
X3478Y15727*
X3499Y15733*
X3519Y15743*
X3536Y15758*
X3551Y15776*
X3561Y15795*
X3567Y15817*
X3569Y15841*
X3567Y15865*
X3561Y15887*
X3551Y15907*
X3537Y15925*
X3520Y15939*
X3502Y15950*
X3481Y15956*
X3460Y15958*
X3129Y15986D02*
X3129Y15986D01*
X3110Y15985*
X3092Y15982*
X3074Y15976*
X3056Y15968*
X3040Y15958*
X3025Y15946*
X3012Y15932*
X3002Y15915*
X2993Y15898*
X2987Y15879*
X2984Y15860*
X2982Y15840*
X2985Y15810*
X2993Y15782*
X3005Y15758*
X3023Y15736*
X3045Y15718*
X3069Y15705*
X3096Y15697*
X3126Y15695*
X3156Y15697*
X3184Y15705*
X3209Y15718*
X3231Y15737*
X3249Y15759*
X3262Y15784*
X3270Y15812*
X3273Y15843*
X3270Y15872*
X3262Y15899*
X3250Y15924*
X3232Y15946*
X3210Y15963*
X3185Y15976*
X3159Y15984*
X3129Y15986*
%LNtop silkscreen component 29f94a9610b8bd7f*%
X1104Y2694D02*
X1104Y3325D01*
X0868Y3325*
X0868Y3308*
X1334Y3308*
X1334Y3325*
X1097Y3325*
X1097Y2694*
X1104Y2694*
X1510Y2694D02*
X1749Y3016D01*
X1541Y3308*
X1529Y3308*
X1643Y3146*
X1662Y3120*
X1677Y3097*
X1689Y3078*
X1741Y2990*
X1797Y3080*
X1810Y3099*
X1824Y3118*
X1840Y3139*
X1968Y3308*
X1945Y3308*
X1732Y3022*
X1967Y2694*
X1975Y2694*
X1810Y2927*
X1803Y2938*
X1795Y2949*
X1788Y2961*
X1737Y3042*
X1683Y2955*
X1674Y2941*
X1666Y2930*
X1661Y2922*
X1497Y2694*
X1510Y2694*
%LNtop silkscreen component 236449664774618a*%
X14321Y20626D02*
X14321Y21069D01*
X14458Y21069*
X14487Y21069*
X14510Y21068*
X14530Y21066*
X14544Y21063*
X14561Y21058*
X14577Y21052*
X14590Y21044*
X14603Y21035*
X14618Y21020*
X14631Y21003*
X14643Y20984*
X14653Y20962*
X14660Y20938*
X14666Y20911*
X14669Y20882*
X14671Y20850*
X14670Y20823*
X14667Y20799*
X14664Y20776*
X14658Y20755*
X14652Y20735*
X14644Y20718*
X14637Y20703*
X14628Y20690*
X14619Y20679*
X14610Y20669*
X14601Y20661*
X14592Y20654*
X14582Y20648*
X14571Y20642*
X14558Y20638*
X14543Y20633*
X14527Y20630*
X14509Y20628*
X14489Y20626*
X14467Y20626*
X14321Y20626*
X14343Y20639D02*
X14343Y20639D01*
X14459Y20639*
X14485Y20640*
X14507Y20642*
X14527Y20645*
X14544Y20649*
X14558Y20655*
X14571Y20661*
X14583Y20669*
X14593Y20677*
X14605Y20691*
X14616Y20708*
X14625Y20726*
X14633Y20746*
X14639Y20769*
X14643Y20794*
X14646Y20822*
X14647Y20852*
X14645Y20892*
X14640Y20927*
X14631Y20958*
X14619Y20983*
X14604Y21004*
X14588Y21021*
X14570Y21035*
X14551Y21045*
X14534Y21050*
X14513Y21053*
X14487Y21055*
X14457Y21056*
X14343Y21056*
X14343Y20639*
D12*
X12942Y21328D02*
X12942Y20278D01*
X16034Y21328D02*
X12942Y21328D01*
X16034Y20278D02*
X16034Y21328D01*
X16034Y20278D02*
X12942Y20278D01*
%LNtop silkscreen component edbb0da92dec2046*%
D11*
X3043Y13462D02*
X3041Y13477D01*
X3053Y13480*
X3022Y13468*
X2995Y13452*
X2971Y13431*
X2954Y13406*
X2941Y13379*
X2934Y13350*
X2932Y13320*
X2933Y13293*
X2938Y13268*
X2946Y13244*
X2957Y13222*
X2971Y13202*
X2987Y13185*
X3004Y13169*
X3024Y13155*
X3045Y13143*
X3069Y13133*
X3094Y13124*
X3122Y13116*
X3152Y13110*
X3181Y13105*
X3212Y13102*
X3241Y13101*
X3246Y13101*
X3251Y13102*
X3256Y13102*
X3409Y13108*
X3272Y13206*
X3258Y13219*
X3246Y13233*
X3236Y13250*
X3227Y13267*
X3221Y13285*
X3217Y13304*
X3216Y13323*
X3219Y13356*
X3228Y13386*
X3243Y13412*
X3265Y13437*
X3291Y13458*
X3322Y13472*
X3358Y13482*
X3400Y13485*
X3443Y13481*
X3480Y13472*
X3512Y13456*
X3540Y13435*
X3562Y13408*
X3578Y13380*
X3587Y13347*
X3591Y13310*
X3589Y13283*
X3583Y13258*
X3574Y13234*
X3561Y13211*
X3545Y13190*
X3526Y13171*
X3503Y13155*
X3477Y13142*
X3445Y13131*
X3404Y13123*
X3354Y13117*
X3295Y13116*
X3233Y13117*
X3179Y13123*
X3132Y13131*
X3094Y13142*
X3062Y13156*
X3035Y13173*
X3012Y13192*
X2994Y13213*
X2980Y13237*
X2970Y13262*
X2963Y13290*
X2961Y13321*
X2963Y13353*
X2970Y13381*
X2981Y13405*
X2995Y13425*
X3013Y13442*
X3035Y13455*
X3062Y13465*
X3043Y13462*
X3404Y13162D02*
X3404Y13162D01*
X3440Y13165*
X3472Y13173*
X3500Y13185*
X3524Y13203*
X3544Y13224*
X3558Y13247*
X3566Y13272*
X3569Y13300*
X3566Y13328*
X3557Y13355*
X3542Y13379*
X3521Y13402*
X3495Y13421*
X3466Y13434*
X3433Y13443*
X3397Y13445*
X3364Y13443*
X3335Y13435*
X3309Y13422*
X3286Y13404*
X3267Y13382*
X3254Y13358*
X3246Y13331*
X3243Y13302*
X3246Y13273*
X3254Y13247*
X3267Y13223*
X3286Y13202*
X3309Y13185*
X3337Y13172*
X3368Y13165*
X3404Y13162*
%LNtop silkscreen component 5e0b1e8ae969094c*%
D12*
X1889Y21689D02*
X1889Y18747D01*
X1889Y21689D02*
X0589Y21689D01*
X0589Y18747*
X1889Y18747*
D11*
X1084Y20174D02*
X1049Y20183D01*
X1055Y20200*
X1042Y20175*
X1027Y20154*
X1009Y20137*
X0988Y20123*
X0966Y20114*
X0940Y20108*
X0910Y20105*
X0879Y20107*
X0851Y20112*
X0828Y20120*
X0809Y20130*
X0792Y20143*
X0777Y20159*
X0764Y20178*
X0753Y20201*
X0743Y20227*
X0736Y20254*
X0732Y20282*
X0731Y20312*
X0732Y20344*
X0737Y20373*
X0744Y20399*
X0755Y20423*
X0767Y20443*
X0781Y20461*
X0798Y20476*
X0817Y20488*
X0839Y20498*
X0862Y20505*
X0886Y20510*
X0911Y20511*
X0940Y20509*
X0965Y20504*
X0986Y20496*
X1005Y20484*
X1022Y20469*
X1036Y20451*
X1047Y20430*
X1038Y20456*
X1073Y20464*
X1078Y20450*
X1064Y20478*
X1045Y20502*
X1023Y20523*
X0998Y20538*
X0970Y20549*
X0941Y20556*
X0910Y20558*
X0876Y20555*
X0844Y20549*
X0814Y20537*
X0786Y20521*
X0762Y20501*
X0742Y20478*
X0726Y20452*
X0714Y20424*
X0706Y20396*
X0701Y20368*
X0697Y20341*
X0696Y20312*
X0697Y20278*
X0701Y20245*
X0708Y20214*
X0718Y20184*
X0731Y20156*
X0749Y20130*
X0771Y20108*
X0795Y20090*
X0821Y20076*
X0848Y20067*
X0877Y20061*
X0906Y20059*
X0940Y20062*
X0972Y20070*
X1003Y20083*
X1031Y20103*
X1055Y20127*
X1074Y20156*
X1089Y20189*
X1084Y20174*
X1237Y20535D02*
X1237Y20503D01*
X1196Y20503*
X1196Y20535*
X1237Y20535*
X1237Y20114D02*
X1237Y20368D01*
X1196Y20368*
X1196Y20114*
X1237Y20114*
X1498Y20114D02*
X1540Y20114D01*
X1540Y20560*
X1445Y20476*
X1434Y20467*
X1421Y20458*
X1406Y20449*
X1390Y20440*
X1376Y20433*
X1362Y20427*
X1419Y20450*
X1419Y20402*
X1417Y20401*
X1443Y20416*
X1468Y20434*
X1490Y20452*
X1511Y20472*
X1528Y20491*
X1543Y20512*
X1539Y20505*
X1498Y20505*
X1498Y20114*
%LNtop silkscreen component 657944f25ef1242f*%
X21106Y19945D02*
X21417Y20753D01*
X21477Y20753*
X21808Y19945*
X21781Y19945*
X21675Y20220*
X21225Y20220*
X21125Y19945*
X21106Y19945*
X21222Y20217D02*
X21676Y20217D01*
X21556Y20537*
X21536Y20591*
X21518Y20640*
X21504Y20684*
X21436Y20909*
X21385Y20676*
X21374Y20635*
X21361Y20593*
X21347Y20551*
X21222Y20217*
X22304Y19945D02*
X22294Y19945D01*
X22294Y20718*
X22189Y20626*
X22167Y20608*
X22141Y20590*
X22111Y20572*
X22081Y20555*
X22053Y20541*
X22027Y20528*
X22071Y20546*
X22071Y20548*
X22090Y20558*
X22135Y20585*
X22178Y20615*
X22217Y20648*
X22253Y20681*
X22283Y20715*
X22308Y20750*
X22312Y20756*
X22304Y20756*
X22304Y19945*
%LNtop silkscreen component 09d4a16645b40eab*%
D12*
X1889Y24801D02*
X1889Y21860D01*
X1889Y24801D02*
X0589Y24801D01*
X0589Y21860*
X1889Y21860*
D11*
X1038Y23265D02*
X1002Y23274D01*
X1008Y23292*
X0995Y23266*
X0980Y23245*
X0962Y23228*
X0942Y23215*
X0919Y23205*
X0894Y23199*
X0864Y23197*
X0832Y23199*
X0805Y23203*
X0782Y23211*
X0763Y23221*
X0746Y23234*
X0731Y23250*
X0718Y23269*
X0706Y23292*
X0697Y23318*
X0690Y23345*
X0686Y23374*
X0684Y23403*
X0686Y23435*
X0691Y23464*
X0698Y23490*
X0708Y23514*
X0721Y23535*
X0735Y23552*
X0752Y23567*
X0771Y23579*
X0793Y23590*
X0815Y23597*
X0840Y23601*
X0865Y23603*
X0894Y23601*
X0918Y23596*
X0940Y23587*
X0959Y23575*
X0975Y23560*
X0989Y23543*
X1001Y23522*
X0992Y23547*
X1027Y23555*
X1032Y23542*
X1017Y23569*
X0999Y23594*
X0976Y23614*
X0951Y23630*
X0924Y23641*
X0895Y23647*
X0864Y23649*
X0830Y23647*
X0798Y23640*
X0768Y23629*
X0740Y23613*
X0716Y23593*
X0696Y23569*
X0680Y23543*
X0668Y23515*
X0660Y23487*
X0654Y23460*
X0651Y23432*
X0650Y23404*
X0651Y23370*
X0655Y23337*
X0662Y23306*
X0672Y23276*
X0685Y23247*
X0703Y23221*
X0724Y23199*
X0749Y23181*
X0775Y23168*
X0802Y23158*
X0830Y23153*
X0859Y23151*
X0893Y23153*
X0926Y23161*
X0956Y23175*
X0984Y23194*
X1008Y23218*
X1028Y23248*
X1042Y23280*
X1038Y23265*
X1191Y23627D02*
X1191Y23594D01*
X1150Y23594*
X1150Y23627*
X1191Y23627*
X1191Y23205D02*
X1191Y23459D01*
X1150Y23459*
X1150Y23205*
X1191Y23205*
X1520Y23205D02*
X1520Y23323D01*
X1307Y23323*
X1307Y23311*
X1506Y23594*
X1478Y23594*
X1478Y23276*
X1545Y23276*
X1545Y23323*
X1478Y23323*
X1478Y23205*
X1520Y23205*
X1520Y23276D02*
X1520Y23711D01*
X1218Y23276*
X1520Y23276*
%LNtop silkscreen component b1552962451680fe*%
D12*
X8322Y18792D02*
X8322Y21734D01*
X8322Y18792D02*
X9622Y18792D01*
X9622Y21734*
X8322Y21734*
D11*
X8657Y20132D02*
X8657Y20522D01*
X8823Y20522*
X8851Y20521*
X8874Y20519*
X8892Y20516*
X8905Y20512*
X8913Y20508*
X8921Y20502*
X8928Y20495*
X8934Y20486*
X8940Y20475*
X8944Y20464*
X8947Y20452*
X8947Y20439*
X8946Y20423*
X8942Y20409*
X8936Y20397*
X8928Y20386*
X8916Y20376*
X8901Y20368*
X8880Y20361*
X8706Y20327*
X8848Y20254*
X8856Y20250*
X8861Y20246*
X8865Y20243*
X8876Y20232*
X8888Y20219*
X8899Y20204*
X8911Y20187*
X8946Y20132*
X8985Y20132*
X8934Y20211*
X8920Y20233*
X8908Y20252*
X8896Y20268*
X8885Y20283*
X8874Y20296*
X8863Y20308*
X8852Y20318*
X8840Y20327*
X8829Y20333*
X8818Y20339*
X8806Y20343*
X8793Y20347*
X8782Y20349*
X8771Y20350*
X8759Y20350*
X8746Y20350*
X8620Y20350*
X8620Y20132*
X8657Y20132*
X8671Y20356D02*
X8671Y20356D01*
X8810Y20356*
X8831Y20357*
X8850Y20358*
X8866Y20361*
X8880Y20365*
X8892Y20370*
X8902Y20377*
X8911Y20385*
X8918Y20395*
X8924Y20405*
X8928Y20416*
X8930Y20427*
X8931Y20439*
X8930Y20455*
X8925Y20470*
X8917Y20484*
X8906Y20496*
X8892Y20506*
X8873Y20513*
X8852Y20517*
X8826Y20518*
X8671Y20518*
X8671Y20356*
X9365Y20155D02*
X9322Y20161D01*
X9328Y20191*
X9321Y20173*
X9312Y20159*
X9301Y20147*
X9287Y20137*
X9272Y20130*
X9255Y20126*
X9236Y20125*
X9210Y20127*
X9189Y20133*
X9171Y20142*
X9156Y20156*
X9143Y20173*
X9134Y20195*
X9127Y20224*
X9125Y20259*
X9126Y20282*
X9129Y20303*
X9133Y20322*
X9140Y20338*
X9147Y20352*
X9155Y20363*
X9165Y20372*
X9176Y20379*
X9190Y20386*
X9204Y20391*
X9220Y20393*
X9236Y20394*
X9257Y20393*
X9274Y20389*
X9287Y20384*
X9299Y20376*
X9309Y20367*
X9317Y20355*
X9323Y20341*
X9314Y20374*
X9356Y20381*
X9362Y20358*
X9352Y20380*
X9339Y20400*
X9323Y20416*
X9304Y20430*
X9283Y20439*
X9261Y20445*
X9238Y20447*
X9207Y20444*
X9176Y20434*
X9149Y20418*
X9125Y20396*
X9106Y20368*
X9094Y20335*
X9087Y20299*
X9085Y20260*
X9087Y20221*
X9094Y20185*
X9106Y20152*
X9124Y20123*
X9147Y20101*
X9174Y20085*
X9204Y20075*
X9235Y20072*
X9261Y20074*
X9285Y20081*
X9308Y20092*
X9329Y20108*
X9347Y20128*
X9360Y20151*
X9369Y20177*
X9365Y20155*
X9485Y20132D02*
X9485Y20522D01*
X9443Y20522*
X9443Y20132*
X9485Y20132*
%LNtop silkscreen component 08ab2ea1eb737624*%
D12*
X19546Y6651D02*
X17466Y4571D01*
X19546Y6651D02*
X18627Y7570D01*
X16547Y5490*
X17466Y4571*
D11*
X17747Y6173D02*
X17728Y6205D01*
X17744Y6213*
X17717Y6204*
X17692Y6200*
X17667Y6200*
X17643Y6205*
X17620Y6215*
X17598Y6229*
X17575Y6248*
X17554Y6272*
X17538Y6295*
X17527Y6316*
X17521Y6337*
X17518Y6358*
X17519Y6380*
X17523Y6402*
X17531Y6427*
X17543Y6452*
X17557Y6476*
X17575Y6499*
X17595Y6521*
X17618Y6543*
X17642Y6560*
X17666Y6573*
X17690Y6582*
X17713Y6588*
X17736Y6590*
X17758Y6589*
X17780Y6584*
X17803Y6576*
X17824Y6565*
X17844Y6551*
X17863Y6534*
X17882Y6513*
X17896Y6492*
X17905Y6470*
X17910Y6449*
X17911Y6426*
X17909Y6404*
X17902Y6381*
X17913Y6405*
X17944Y6386*
X17938Y6373*
X17947Y6403*
X17951Y6433*
X17950Y6464*
X17943Y6493*
X17932Y6520*
X17915Y6545*
X17895Y6568*
X17870Y6590*
X17842Y6608*
X17813Y6622*
X17782Y6630*
X17751Y6632*
X17720Y6630*
X17690Y6623*
X17662Y6612*
X17637Y6598*
X17613Y6582*
X17591Y6565*
X17570Y6546*
X17547Y6521*
X17527Y6495*
X17509Y6468*
X17495Y6440*
X17485Y6410*
X17479Y6380*
X17478Y6349*
X17483Y6318*
X17492Y6290*
X17504Y6265*
X17520Y6241*
X17539Y6219*
X17565Y6197*
X17594Y6179*
X17625Y6167*
X17658Y6161*
X17693Y6161*
X17727Y6168*
X17760Y6181*
X17747Y6173*
X17985Y5882D02*
X17959Y5917D01*
X17985Y5933*
X17967Y5926*
X17950Y5922*
X17934Y5922*
X17918Y5924*
X17902Y5930*
X17887Y5939*
X17872Y5952*
X17856Y5971*
X17845Y5991*
X17839Y6010*
X17838Y6030*
X17841Y6052*
X17850Y6074*
X17865Y6099*
X17889Y6125*
X17905Y6141*
X17922Y6153*
X17939Y6163*
X17955Y6171*
X17970Y6175*
X17984Y6177*
X17997Y6177*
X18010Y6174*
X18025Y6169*
X18038Y6162*
X18051Y6153*
X18063Y6143*
X18077Y6127*
X18086Y6112*
X18092Y6099*
X18095Y6085*
X18095Y6071*
X18093Y6058*
X18087Y6043*
X18104Y6073*
X18138Y6048*
X18127Y6028*
X18135Y6050*
X18140Y6073*
X18140Y6097*
X18136Y6119*
X18128Y6141*
X18117Y6160*
X18102Y6178*
X18077Y6198*
X18049Y6213*
X18019Y6221*
X17986Y6222*
X17953Y6215*
X17921Y6201*
X17890Y6180*
X17861Y6154*
X17835Y6125*
X17814Y6095*
X17799Y6063*
X17792Y6030*
X17793Y5998*
X17800Y5967*
X17815Y5940*
X17834Y5916*
X17854Y5899*
X17876Y5886*
X17900Y5877*
X17926Y5874*
X17953Y5876*
X17979Y5883*
X18004Y5895*
X17985Y5882*
X18074Y5811D02*
X18045Y5834D01*
X18054Y5849*
X18042Y5822*
X18035Y5795*
X18033Y5767*
X18037Y5741*
X18045Y5717*
X18058Y5694*
X18075Y5674*
X18098Y5655*
X18124Y5641*
X18153Y5632*
X18183Y5630*
X18213Y5633*
X18242Y5641*
X18268Y5656*
X18291Y5675*
X18310Y5698*
X18324Y5723*
X18333Y5750*
X18335Y5779*
X18332Y5808*
X18324Y5836*
X18309Y5861*
X18291Y5882*
X18281Y5892*
X18270Y5900*
X18258Y5908*
X18309Y5877*
X18254Y5834*
X18225Y5870*
X18227Y5867*
X18230Y5865*
X18233Y5861*
X18252Y5845*
X18273Y5831*
X18296Y5820*
X18322Y5813*
X18352Y5810*
X18382Y5816*
X18410Y5829*
X18433Y5849*
X18450Y5868*
X18462Y5890*
X18469Y5915*
X18471Y5940*
X18468Y5966*
X18460Y5990*
X18447Y6012*
X18431Y6032*
X18411Y6049*
X18389Y6061*
X18365Y6069*
X18339Y6073*
X18312Y6071*
X18287Y6064*
X18262Y6052*
X18283Y6065*
X18307Y6031*
X18282Y6016*
X18300Y6023*
X18316Y6026*
X18332Y6026*
X18348Y6024*
X18363Y6018*
X18377Y6009*
X18393Y5996*
X18402Y5985*
X18410Y5975*
X18416Y5963*
X18420Y5952*
X18423Y5940*
X18425Y5929*
X18424Y5919*
X18423Y5910*
X18420Y5900*
X18415Y5891*
X18410Y5883*
X18404Y5876*
X18398Y5871*
X18391Y5866*
X18384Y5863*
X18377Y5861*
X18369Y5860*
X18360Y5860*
X18351Y5862*
X18220Y5902*
X18285Y5779*
X18289Y5768*
X18290Y5757*
X18290Y5747*
X18287Y5737*
X18283Y5726*
X18276Y5715*
X18266Y5704*
X18249Y5690*
X18232Y5681*
X18214Y5676*
X18192Y5674*
X18171Y5677*
X18151Y5684*
X18131Y5695*
X18112Y5712*
X18097Y5729*
X18087Y5746*
X18081Y5763*
X18078Y5781*
X18079Y5800*
X18083Y5817*
X18090Y5834*
X18074Y5811*
%LNtop silkscreen component aa8c43ca3479b0fd*%
D12*
X14574Y16263D02*
X16654Y18343D01*
X14574Y16263D02*
X15493Y15344D01*
X17573Y17424*
X16654Y18343*
D11*
X15888Y16871D02*
X15869Y16902D01*
X15886Y16911*
X15859Y16902*
X15833Y16898*
X15808Y16898*
X15785Y16903*
X15762Y16912*
X15739Y16926*
X15717Y16946*
X15696Y16969*
X15680Y16992*
X15669Y17014*
X15662Y17035*
X15660Y17056*
X15660Y17077*
X15664Y17100*
X15673Y17125*
X15684Y17150*
X15699Y17174*
X15716Y17197*
X15736Y17219*
X15760Y17240*
X15783Y17257*
X15807Y17271*
X15831Y17280*
X15854Y17286*
X15877Y17288*
X15899Y17287*
X15922Y17282*
X15944Y17274*
X15965Y17263*
X15986Y17249*
X16005Y17232*
X16023Y17210*
X16037Y17189*
X16046Y17168*
X16051Y17146*
X16053Y17124*
X16050Y17102*
X16043Y17078*
X16055Y17103*
X16085Y17084*
X16079Y17071*
X16089Y17101*
X16093Y17131*
X16092Y17161*
X16085Y17190*
X16073Y17217*
X16057Y17242*
X16037Y17265*
X16011Y17288*
X15984Y17306*
X15954Y17319*
X15923Y17327*
X15892Y17330*
X15861Y17328*
X15831Y17321*
X15803Y17309*
X15778Y17295*
X15754Y17280*
X15732Y17263*
X15712Y17244*
X15688Y17218*
X15668Y17192*
X15651Y17166*
X15636Y17138*
X15626Y17108*
X15620Y17077*
X15620Y17046*
X15624Y17016*
X15633Y16988*
X15646Y16962*
X15662Y16938*
X15681Y16916*
X15707Y16894*
X15735Y16877*
X15767Y16865*
X15800Y16859*
X15834Y16859*
X15868Y16866*
X15902Y16879*
X15888Y16871*
X16127Y16580D02*
X16100Y16615D01*
X16126Y16631*
X16108Y16623*
X16092Y16620*
X16075Y16619*
X16059Y16622*
X16044Y16628*
X16029Y16637*
X16014Y16649*
X15997Y16669*
X15987Y16688*
X15981Y16708*
X15979Y16728*
X15983Y16749*
X15991Y16772*
X16007Y16796*
X16030Y16823*
X16047Y16838*
X16064Y16851*
X16080Y16861*
X16096Y16869*
X16111Y16873*
X16125Y16875*
X16138Y16875*
X16152Y16872*
X16166Y16867*
X16180Y16860*
X16192Y16851*
X16205Y16840*
X16218Y16825*
X16228Y16810*
X16233Y16796*
X16236Y16783*
X16236Y16769*
X16234Y16755*
X16228Y16741*
X16246Y16771*
X16279Y16746*
X16268Y16725*
X16277Y16748*
X16281Y16771*
X16282Y16794*
X16278Y16817*
X16270Y16839*
X16258Y16858*
X16243Y16876*
X16219Y16896*
X16191Y16911*
X16160Y16919*
X16128Y16920*
X16094Y16913*
X16062Y16898*
X16032Y16878*
X16003Y16852*
X15976Y16823*
X15956Y16793*
X15941Y16761*
X15934Y16728*
X15934Y16695*
X15942Y16665*
X15956Y16637*
X15976Y16613*
X15996Y16596*
X16018Y16584*
X16042Y16575*
X16068Y16571*
X16094Y16573*
X16121Y16581*
X16145Y16592*
X16127Y16580*
X16489Y16789D02*
X16458Y16758D01*
X16611Y16605*
X16627Y16621*
X16609Y16620*
X16567Y16614*
X16523Y16605*
X16476Y16593*
X16429Y16578*
X16383Y16560*
X16338Y16541*
X16295Y16518*
X16264Y16500*
X16234Y16480*
X16204Y16458*
X16211Y16463*
X16238Y16436*
X16219Y16420*
X16243Y16438*
X16272Y16458*
X16304Y16477*
X16339Y16496*
X16375Y16513*
X16412Y16528*
X16450Y16541*
X16488Y16551*
X16524Y16559*
X16558Y16565*
X16699Y16579*
X16489Y16789*
%LNtop silkscreen component 4c206d9429b209c5*%
D15*
X23436Y14224D02*
X23436Y11405D01*
X20616Y11405*
X20616Y14224*
X23436Y14224*
D11*
X21494Y12760D02*
X21688Y13021D01*
X21519Y13258*
X21489Y13258*
X21583Y13126*
X21598Y13104*
X21611Y13085*
X21621Y13069*
X21671Y12984*
X21726Y13070*
X21736Y13086*
X21748Y13102*
X21761Y13119*
X21866Y13258*
X21826Y13258*
X21653Y13027*
X21845Y12760*
X21872Y12760*
X21736Y12952*
X21730Y12961*
X21724Y12970*
X21718Y12980*
X21668Y13059*
X21616Y12975*
X21608Y12963*
X21602Y12954*
X21598Y12947*
X21463Y12760*
X21494Y12760*
X22123Y12718D02*
X22117Y12751D01*
X22152Y12757*
X22140Y12756*
X22129Y12755*
X22120Y12754*
X22106Y12755*
X22095Y12756*
X22087Y12758*
X22082Y12761*
X22079Y12763*
X22076Y12766*
X22074Y12768*
X22074Y12769*
X22072Y12774*
X22070Y12787*
X22069Y12808*
X22068Y12837*
X22068Y13137*
X22014Y13137*
X22014Y13093*
X22068Y13093*
X22068Y13223*
X22040Y13206*
X22040Y13093*
X22114Y13093*
X22114Y13137*
X22040Y13137*
X22040Y12832*
X22040Y12816*
X22041Y12801*
X22043Y12787*
X22047Y12773*
X22054Y12760*
X22062Y12750*
X22071Y12741*
X22082Y12734*
X22094Y12728*
X22107Y12724*
X22120Y12722*
X22132Y12721*
X22142Y12722*
X22151Y12722*
X22161Y12723*
X22123Y12718*
X22558Y12858D02*
X22470Y12788D01*
X22454Y12776*
X22438Y12768*
X22424Y12761*
X22409Y12756*
X22394Y12753*
X22378Y12751*
X22361Y12750*
X22334Y12752*
X22313Y12757*
X22297Y12764*
X22285Y12772*
X22275Y12783*
X22269Y12794*
X22264Y12808*
X22263Y12825*
X22263Y12833*
X22265Y12842*
X22268Y12850*
X22271Y12858*
X22276Y12865*
X22281Y12872*
X22287Y12877*
X22293Y12883*
X22302Y12888*
X22311Y12892*
X22321Y12896*
X22331Y12900*
X22340Y12902*
X22353Y12904*
X22370Y12907*
X22390Y12909*
X22432Y12915*
X22470Y12921*
X22503Y12929*
X22564Y12947*
X22565Y12991*
X22566Y12996*
X22566Y13001*
X22566Y13006*
X22564Y13032*
X22558Y13059*
X22546Y13084*
X22528Y13106*
X22502Y13124*
X22474Y13135*
X22443Y13142*
X22410Y13144*
X22380Y13142*
X22353Y13138*
X22327Y13129*
X22303Y13116*
X22283Y13097*
X22268Y13075*
X22256Y13050*
X22261Y13066*
X22288Y13062*
X22279Y13027*
X22284Y13041*
X22290Y13053*
X22297Y13063*
X22304Y13070*
X22313Y13077*
X22325Y13084*
X22339Y13090*
X22357Y13096*
X22376Y13100*
X22397Y13102*
X22421Y13103*
X22444Y13102*
X22464Y13100*
X22480Y13097*
X22494Y13093*
X22505Y13088*
X22514Y13083*
X22520Y13079*
X22523Y13075*
X22527Y13070*
X22530Y13064*
X22533Y13056*
X22535Y13047*
X22536Y13041*
X22537Y13028*
X22538Y13011*
X22538Y12989*
X22538Y12891*
X22538Y12844*
X22539Y12806*
X22541Y12776*
X22543Y12753*
X22547Y12735*
X22553Y12718*
X22560Y12701*
X22530Y12760*
X22569Y12760*
X22578Y12739*
X22575Y12748*
X22573Y12757*
X22558Y12858*
X22514Y12927D02*
X22514Y12927D01*
X22492Y12919*
X22464Y12912*
X22432Y12906*
X22394Y12899*
X22373Y12896*
X22355Y12893*
X22341Y12889*
X22330Y12885*
X22321Y12880*
X22313Y12875*
X22306Y12868*
X22301Y12861*
X22296Y12853*
X22293Y12844*
X22291Y12835*
X22291Y12826*
X22292Y12812*
X22296Y12799*
X22303Y12787*
X22313Y12777*
X22325Y12768*
X22340Y12762*
X22358Y12758*
X22378Y12757*
X22399Y12758*
X22418Y12762*
X22437Y12768*
X22454Y12776*
X22469Y12786*
X22483Y12798*
X22494Y12811*
X22503Y12827*
X22508Y12841*
X22511Y12858*
X22514Y12877*
X22514Y12900*
X22514Y12927*
X22752Y12760D02*
X22752Y13258D01*
X22724Y13258*
X22724Y12760*
X22752Y12760*
D18*
X23726Y11415D03*
%LNtop silkscreen component dcd59bb06ba35ff6*%
D12*
X5776Y18596D02*
X8718Y18596D01*
X5776Y18596D02*
X5776Y17296D01*
X8718Y17296*
X8718Y18596*
D11*
X7120Y17949D02*
X7129Y17985D01*
X7147Y17979*
X7121Y17992*
X7100Y18007*
X7083Y18025*
X7070Y18045*
X7060Y18068*
X7054Y18094*
X7052Y18124*
X7054Y18155*
X7059Y18183*
X7066Y18205*
X7076Y18225*
X7089Y18241*
X7105Y18256*
X7124Y18270*
X7147Y18281*
X7173Y18291*
X7201Y18297*
X7229Y18302*
X7259Y18303*
X7291Y18301*
X7320Y18297*
X7346Y18289*
X7369Y18279*
X7390Y18267*
X7407Y18252*
X7422Y18236*
X7435Y18216*
X7445Y18195*
X7452Y18172*
X7457Y18148*
X7458Y18122*
X7456Y18094*
X7451Y18069*
X7442Y18048*
X7430Y18029*
X7416Y18012*
X7398Y17998*
X7377Y17986*
X7402Y17996*
X7410Y17960*
X7397Y17955*
X7425Y17970*
X7449Y17989*
X7470Y18011*
X7485Y18036*
X7496Y18064*
X7502Y18093*
X7504Y18123*
X7502Y18157*
X7495Y18189*
X7484Y18220*
X7468Y18247*
X7448Y18271*
X7425Y18291*
X7398Y18308*
X7370Y18319*
X7343Y18327*
X7315Y18333*
X7287Y18337*
X7259Y18338*
X7225Y18336*
X7192Y18332*
X7161Y18326*
X7131Y18316*
X7102Y18302*
X7077Y18285*
X7054Y18263*
X7037Y18238*
X7023Y18212*
X7014Y18185*
X7008Y18157*
X7006Y18128*
X7008Y18094*
X7016Y18062*
X7030Y18031*
X7049Y18003*
X7074Y17979*
X7103Y17960*
X7135Y17945*
X7120Y17949*
X7482Y17796D02*
X7450Y17796D01*
X7450Y17838*
X7482Y17838*
X7482Y17796*
X7060Y17796D02*
X7314Y17796D01*
X7314Y17838*
X7060Y17838*
X7060Y17796*
X7096Y17652D02*
X7091Y17689D01*
X7108Y17694*
X7081Y17683*
X7057Y17669*
X7036Y17651*
X7020Y17629*
X7009Y17606*
X7002Y17581*
X7000Y17555*
X7002Y17525*
X7011Y17496*
X7025Y17470*
X7044Y17447*
X7068Y17428*
X7094Y17414*
X7123Y17406*
X7153Y17403*
X7182Y17405*
X7210Y17413*
X7236Y17427*
X7258Y17445*
X7276Y17468*
X7290Y17493*
X7297Y17521*
X7300Y17549*
X7299Y17563*
X7297Y17577*
X7295Y17591*
X7309Y17533*
X7239Y17542*
X7244Y17588*
X7244Y17584*
X7244Y17580*
X7243Y17575*
X7245Y17550*
X7250Y17525*
X7259Y17501*
X7272Y17478*
X7291Y17455*
X7317Y17438*
X7346Y17428*
X7376Y17425*
X7402Y17427*
X7426Y17434*
X7448Y17446*
X7468Y17463*
X7484Y17483*
X7495Y17506*
X7502Y17531*
X7504Y17556*
X7502Y17582*
X7495Y17607*
X7484Y17630*
X7468Y17650*
X7448Y17667*
X7425Y17681*
X7399Y17690*
X7423Y17685*
X7416Y17643*
X7388Y17650*
X7405Y17642*
X7419Y17633*
X7430Y17622*
X7439Y17609*
X7446Y17595*
X7450Y17578*
X7452Y17557*
X7451Y17544*
X7449Y17531*
X7445Y17519*
X7440Y17507*
X7434Y17497*
X7427Y17488*
X7420Y17481*
X7412Y17476*
X7403Y17471*
X7394Y17468*
X7385Y17466*
X7375Y17465*
X7367Y17466*
X7359Y17467*
X7352Y17470*
X7345Y17474*
X7339Y17479*
X7333Y17485*
X7327Y17493*
X7263Y17613*
X7222Y17480*
X7217Y17470*
X7210Y17462*
X7203Y17455*
X7194Y17449*
X7183Y17445*
X7170Y17442*
X7155Y17441*
X7134Y17443*
X7115Y17449*
X7099Y17458*
X7083Y17472*
X7069Y17489*
X7060Y17508*
X7054Y17530*
X7052Y17556*
X7054Y17578*
X7059Y17597*
X7066Y17614*
X7077Y17629*
X7091Y17641*
X7106Y17650*
X7124Y17657*
X7096Y17652*
%LNtop silkscreen component 2ef078e0bc91a9e2*%
D12*
X7211Y6462D02*
X4270Y6462D01*
X7211Y6462D02*
X7211Y7762D01*
X4270Y7762*
X4270Y6462*
D11*
X5488Y7563D02*
X6102Y7563D01*
X6102Y7297*
X6101Y7255*
X6098Y7219*
X6093Y7191*
X6086Y7170*
X6078Y7153*
X6068Y7139*
X6055Y7127*
X6039Y7115*
X6020Y7105*
X6001Y7098*
X5980Y7094*
X5958Y7093*
X5930Y7095*
X5906Y7102*
X5884Y7112*
X5864Y7128*
X5847Y7148*
X5833Y7174*
X5821Y7208*
X5784Y7397*
X5709Y7250*
X5702Y7237*
X5695Y7227*
X5689Y7220*
X5672Y7203*
X5652Y7185*
X5629Y7167*
X5604Y7150*
X5488Y7076*
X5488Y7074*
X5613Y7154*
X5644Y7175*
X5672Y7193*
X5696Y7210*
X5716Y7225*
X5734Y7240*
X5750Y7255*
X5764Y7270*
X5775Y7285*
X5783Y7300*
X5791Y7314*
X5796Y7329*
X5801Y7345*
X5803Y7360*
X5805Y7375*
X5805Y7391*
X5806Y7409*
X5806Y7570*
X5488Y7570*
X5488Y7563*
X5837Y7519D02*
X5837Y7519D01*
X5837Y7316*
X5838Y7285*
X5840Y7258*
X5844Y7234*
X5850Y7214*
X5858Y7197*
X5868Y7182*
X5880Y7169*
X5893Y7158*
X5908Y7150*
X5924Y7144*
X5941Y7140*
X5958Y7139*
X5982Y7142*
X6004Y7149*
X6024Y7160*
X6041Y7176*
X6055Y7197*
X6066Y7224*
X6072Y7256*
X6074Y7293*
X6074Y7519*
X5837Y7519*
X5488Y6854D02*
X5905Y6854D01*
X5905Y6877*
X5690Y6877*
X5875Y6768*
X5892Y6757*
X5902Y6747*
X5908Y6741*
X5912Y6735*
X5914Y6728*
X5916Y6721*
X5916Y6714*
X5915Y6699*
X5912Y6684*
X5905Y6668*
X5915Y6686*
X5929Y6681*
X5912Y6649*
X5921Y6672*
X5926Y6695*
X5927Y6718*
X5926Y6740*
X5920Y6762*
X5912Y6782*
X5900Y6801*
X5885Y6818*
X5867Y6832*
X5848Y6843*
X5827Y6851*
X5798Y6859*
X5769Y6864*
X5739Y6867*
X5709Y6868*
X5488Y6868*
X5488Y6854*
%LNtop silkscreen component b6bea4d189a08c88*%
D12*
X2663Y18596D02*
X5604Y18596D01*
X2663Y18596D02*
X2663Y17296D01*
X5604Y17296*
X5604Y18596*
D11*
X4030Y17972D02*
X4039Y18008D01*
X4056Y18002*
X4031Y18015*
X4010Y18030*
X3993Y18048*
X3979Y18068*
X3970Y18091*
X3964Y18117*
X3962Y18147*
X3963Y18178*
X3968Y18206*
X3976Y18228*
X3986Y18248*
X3999Y18264*
X4015Y18279*
X4034Y18293*
X4057Y18304*
X4083Y18314*
X4110Y18320*
X4139Y18325*
X4168Y18326*
X4200Y18324*
X4229Y18320*
X4255Y18312*
X4279Y18302*
X4299Y18290*
X4317Y18275*
X4332Y18259*
X4344Y18239*
X4354Y18218*
X4362Y18195*
X4366Y18171*
X4368Y18145*
X4366Y18117*
X4360Y18092*
X4352Y18071*
X4340Y18052*
X4325Y18035*
X4308Y18021*
X4286Y18009*
X4312Y18019*
X4320Y17984*
X4306Y17978*
X4334Y17993*
X4359Y18012*
X4379Y18034*
X4395Y18059*
X4406Y18087*
X4412Y18116*
X4414Y18146*
X4412Y18180*
X4405Y18213*
X4394Y18243*
X4377Y18270*
X4357Y18294*
X4334Y18315*
X4308Y18331*
X4280Y18342*
X4252Y18351*
X4225Y18356*
X4197Y18360*
X4169Y18361*
X4134Y18359*
X4102Y18355*
X4070Y18349*
X4040Y18339*
X4012Y18325*
X3986Y18308*
X3964Y18286*
X3946Y18262*
X3933Y18235*
X3923Y18208*
X3917Y18180*
X3915Y18151*
X3918Y18117*
X3926Y18085*
X3940Y18054*
X3959Y18026*
X3983Y18002*
X4012Y17983*
X4045Y17968*
X4030Y17972*
X4392Y17819D02*
X4359Y17819D01*
X4359Y17861*
X4392Y17861*
X4392Y17819*
X3970Y17819D02*
X4224Y17819D01*
X4224Y17861*
X3970Y17861*
X3970Y17819*
X3926Y17469D02*
X3970Y17469D01*
X3970Y17691*
X3927Y17692*
X3932Y17691*
X3937Y17690*
X3943Y17688*
X3955Y17683*
X3968Y17676*
X3980Y17667*
X3993Y17657*
X4008Y17644*
X4024Y17628*
X4042Y17608*
X4062Y17584*
X4094Y17547*
X4123Y17515*
X4150Y17488*
X4174Y17468*
X4199Y17452*
X4224Y17440*
X4250Y17432*
X4277Y17430*
X4304Y17432*
X4330Y17440*
X4354Y17453*
X4374Y17471*
X4392Y17493*
X4404Y17518*
X4411Y17545*
X4413Y17573*
X4411Y17602*
X4403Y17630*
X4390Y17656*
X4372Y17679*
X4349Y17697*
X4323Y17710*
X4294Y17718*
X4320Y17716*
X4315Y17672*
X4290Y17676*
X4310Y17670*
X4325Y17661*
X4337Y17650*
X4347Y17636*
X4355Y17619*
X4359Y17598*
X4361Y17572*
X4359Y17546*
X4354Y17526*
X4346Y17509*
X4336Y17495*
X4323Y17484*
X4309Y17476*
X4294Y17471*
X4275Y17470*
X4266Y17470*
X4257Y17472*
X4247Y17474*
X4238Y17478*
X4228Y17482*
X4217Y17489*
X4205Y17498*
X4192Y17509*
X4176Y17523*
X4158Y17543*
X4136Y17567*
X4110Y17597*
X4089Y17622*
X4071Y17642*
X4057Y17658*
X4045Y17670*
X4035Y17679*
X4025Y17688*
X4014Y17695*
X3926Y17753*
X3926Y17469*
%LNtop silkscreen component 703e91c2f612e613*%
X17110Y14942D02*
X17110Y14941D01*
X17107Y14940*
X17060Y14924*
X17015Y14917*
X16972Y14918*
X16930Y14927*
X16890Y14943*
X16851Y14967*
X16813Y15000*
X16778Y15039*
X16751Y15078*
X16732Y15115*
X16721Y15152*
X16716Y15189*
X16717Y15228*
X16724Y15267*
X16738Y15309*
X16757Y15350*
X16781Y15390*
X16810Y15428*
X16843Y15465*
X16882Y15500*
X16921Y15529*
X16961Y15551*
X17002Y15567*
X17042Y15577*
X17081Y15581*
X17120Y15579*
X17159Y15570*
X17198Y15556*
X17234Y15538*
X17268Y15514*
X17301Y15485*
X17332Y15449*
X17356Y15412*
X17372Y15375*
X17381Y15336*
X17384Y15297*
X17379Y15257*
X17367Y15216*
X17371Y15224*
X17370Y15224*
X17370Y15224*
X17383Y15267*
X17389Y15310*
X17388Y15351*
X17378Y15391*
X17362Y15429*
X17339Y15464*
X17310Y15497*
X17273Y15530*
X17234Y15556*
X17192Y15574*
X17149Y15586*
X17105Y15590*
X17062Y15586*
X17020Y15576*
X16980Y15560*
X16942Y15540*
X16908Y15517*
X16875Y15492*
X16845Y15463*
X16810Y15426*
X16780Y15387*
X16754Y15348*
X16734Y15307*
X16719Y15265*
X16711Y15222*
X16710Y15178*
X16717Y15136*
X16729Y15096*
X16747Y15060*
X16769Y15026*
X16797Y14995*
X16834Y14963*
X16874Y14938*
X16918Y14921*
X16964Y14913*
X17012Y14913*
X17061Y14923*
X17108Y14941*
X17110Y14942*
X17170Y14661D02*
X17638Y15129D01*
X17806Y14962*
X17830Y14937*
X17850Y14915*
X17865Y14897*
X17877Y14881*
X17890Y14862*
X17899Y14843*
X17906Y14826*
X17910Y14809*
X17912Y14793*
X17911Y14776*
X17909Y14759*
X17903Y14740*
X17895Y14721*
X17885Y14703*
X17873Y14685*
X17859Y14669*
X17829Y14644*
X17798Y14627*
X17766Y14616*
X17733Y14611*
X17699Y14615*
X17660Y14631*
X17614Y14661*
X17562Y14708*
X17389Y14881*
X17170Y14662*
X17170Y14661*
X17453Y14873D02*
X17453Y14873D01*
X17592Y14733*
X17626Y14703*
X17658Y14681*
X17688Y14667*
X17716Y14661*
X17743Y14662*
X17769Y14670*
X17794Y14684*
X17818Y14704*
X17833Y14722*
X17845Y14740*
X17854Y14759*
X17859Y14779*
X17861Y14800*
X17859Y14819*
X17854Y14838*
X17846Y14856*
X17837Y14869*
X17824Y14886*
X17806Y14905*
X17784Y14928*
X17646Y15066*
X17453Y14873*
X18496Y14272D02*
X18495Y14272D01*
X18220Y13997*
X18182Y13961*
X18147Y13933*
X18115Y13911*
X18087Y13896*
X18061Y13887*
X18034Y13883*
X18005Y13883*
X17975Y13888*
X17944Y13898*
X17911Y13915*
X17878Y13939*
X17843Y13970*
X17811Y14004*
X17787Y14037*
X17769Y14069*
X17758Y14099*
X17751Y14128*
X17750Y14155*
X17754Y14182*
X17763Y14210*
X17778Y14240*
X17800Y14273*
X17829Y14310*
X17867Y14350*
X18142Y14625*
X18142Y14625*
X17866Y14349*
X17832Y14314*
X17804Y14281*
X17781Y14249*
X17765Y14217*
X17754Y14186*
X17749Y14153*
X17750Y14120*
X17756Y14087*
X17767Y14055*
X17784Y14025*
X17804Y13996*
X17829Y13969*
X17873Y13930*
X17918Y13901*
X17966Y13882*
X18015Y13877*
X18066Y13887*
X18116Y13912*
X18167Y13948*
X18219Y13995*
X18496Y14272*
D12*
X16021Y6042D02*
X20682Y10703D01*
X16021Y15363D02*
X11361Y10703D01*
X16021Y15363D02*
X20682Y10703D01*
X11361Y10703D02*
X16021Y6042D01*
D13*
X15314Y15369D03*
%LNtop silkscreen component 66d26c4e5afed26b*%
D11*
X3408Y2694D02*
X3408Y3308D01*
X3674Y3308*
X3716Y3307*
X3752Y3304*
X3780Y3299*
X3801Y3292*
X3817Y3285*
X3832Y3274*
X3844Y3261*
X3856Y3245*
X3866Y3226*
X3873Y3207*
X3877Y3186*
X3878Y3164*
X3876Y3136*
X3869Y3112*
X3858Y3090*
X3843Y3071*
X3823Y3054*
X3797Y3039*
X3762Y3027*
X3573Y2990*
X3721Y2915*
X3734Y2908*
X3744Y2901*
X3751Y2895*
X3768Y2878*
X3786Y2858*
X3803Y2835*
X3821Y2810*
X3895Y2694*
X3897Y2694*
X3817Y2820*
X3796Y2851*
X3778Y2878*
X3761Y2902*
X3745Y2922*
X3731Y2940*
X3716Y2956*
X3701Y2970*
X3686Y2981*
X3671Y2990*
X3656Y2997*
X3642Y3003*
X3625Y3007*
X3611Y3010*
X3596Y3011*
X3580Y3012*
X3562Y3012*
X3401Y3012*
X3401Y2694*
X3408Y2694*
X3451Y3043D02*
X3451Y3043D01*
X3655Y3043*
X3686Y3044*
X3713Y3046*
X3737Y3051*
X3757Y3057*
X3774Y3064*
X3789Y3074*
X3802Y3086*
X3813Y3100*
X3821Y3115*
X3827Y3130*
X3830Y3147*
X3832Y3164*
X3829Y3188*
X3822Y3210*
X3811Y3230*
X3795Y3247*
X3774Y3262*
X3747Y3272*
X3715Y3278*
X3678Y3280*
X3451Y3280*
X3451Y3043*
X4106Y2694D02*
X4345Y3016D01*
X4136Y3308*
X4124Y3308*
X4239Y3146*
X4257Y3120*
X4273Y3097*
X4285Y3078*
X4337Y2990*
X4393Y3080*
X4406Y3099*
X4420Y3118*
X4435Y3139*
X4564Y3308*
X4541Y3308*
X4328Y3022*
X4563Y2694*
X4571Y2694*
X4406Y2927*
X4399Y2938*
X4391Y2949*
X4384Y2961*
X4332Y3042*
X4279Y2955*
X4269Y2941*
X4262Y2930*
X4257Y2922*
X4093Y2694*
X4106Y2694*
%LNtop silkscreen component 70772079e51440cb*%
X2973Y8416D02*
X2973Y8403D01*
X3596Y8403*
X3507Y8503*
X3494Y8520*
X3480Y8540*
X3466Y8563*
X3453Y8586*
X3441Y8608*
X3432Y8628*
X3452Y8579*
X3431Y8579*
X3436Y8569*
X3458Y8532*
X3482Y8498*
X3508Y8467*
X3535Y8438*
X3562Y8414*
X3590Y8393*
X3591Y8393*
X3591Y8416*
X2973Y8416*
X2973Y7934D02*
X2973Y7921D01*
X3596Y7921*
X3507Y8021*
X3494Y8038*
X3480Y8058*
X3466Y8080*
X3453Y8104*
X3441Y8126*
X3432Y8146*
X3452Y8096*
X3431Y8096*
X3436Y8087*
X3458Y8050*
X3482Y8016*
X3508Y7984*
X3535Y7956*
X3562Y7932*
X3590Y7911*
X3591Y7911*
X3591Y7934*
X2973Y7934*
%LNtop silkscreen component 0b3d5d2d41e17186*%
D19*
X0784Y5325D03*
%LNtop silkscreen component 78a258f6d75cc400*%
D11*
X20936Y17454D02*
X21246Y18261D01*
X21307Y18261*
X21638Y17454*
X21611Y17454*
X21505Y17729*
X21054Y17729*
X20955Y17454*
X20936Y17454*
X21051Y17725D02*
X21506Y17725D01*
X21386Y18046*
X21365Y18100*
X21348Y18149*
X21334Y18192*
X21266Y18418*
X21215Y18185*
X21204Y18143*
X21191Y18102*
X21177Y18060*
X21051Y17725*
X21815Y17852D02*
X21817Y17925D01*
X21823Y17990*
X21832Y18047*
X21845Y18095*
X21862Y18135*
X21881Y18170*
X21903Y18199*
X21928Y18223*
X21955Y18241*
X21986Y18254*
X22021Y18262*
X22061Y18265*
X22090Y18263*
X22118Y18259*
X22142Y18251*
X22165Y18241*
X22186Y18228*
X22205Y18213*
X22222Y18195*
X22237Y18173*
X22252Y18148*
X22265Y18120*
X22277Y18088*
X22287Y18054*
X22295Y18014*
X22301Y17968*
X22305Y17913*
X22306Y17851*
X22304Y17778*
X22298Y17713*
X22289Y17657*
X22276Y17609*
X22260Y17568*
X22240Y17534*
X22218Y17504*
X22194Y17481*
X22166Y17462*
X22136Y17449*
X22101Y17441*
X22061Y17438*
X22009Y17443*
X21964Y17457*
X21927Y17481*
X21894Y17513*
X21861Y17569*
X21836Y17643*
X21820Y17737*
X21815Y17852*
X21879Y17851D02*
X21879Y17851D01*
X21882Y17749*
X21892Y17665*
X21908Y17600*
X21931Y17553*
X21959Y17521*
X21990Y17498*
X22024Y17484*
X22060Y17479*
X22097Y17484*
X22131Y17498*
X22162Y17521*
X22190Y17554*
X22213Y17600*
X22229Y17665*
X22239Y17749*
X22242Y17851*
X22239Y17954*
X22229Y18038*
X22213Y18103*
X22190Y18149*
X22162Y18182*
X22131Y18205*
X22097Y18219*
X22059Y18223*
X22023Y18219*
X21990Y18207*
X21961Y18187*
X21936Y18158*
X21911Y18108*
X21893Y18040*
X21882Y17954*
X21879Y17851*
%LNtext*%
X10280Y22011D02*
X10280Y22006D01*
X10525Y22006*
X10525Y21779*
X10507Y21766*
X10469Y21742*
X10431Y21722*
X10393Y21705*
X10355Y21693*
X10316Y21684*
X10277Y21678*
X10237Y21677*
X10184Y21680*
X10134Y21688*
X10086Y21702*
X10042Y21722*
X10002Y21747*
X9968Y21776*
X9939Y21811*
X9914Y21850*
X9895Y21894*
X9881Y21941*
X9873Y21992*
X9870Y22045*
X9873Y22098*
X9881Y22149*
X9895Y22198*
X9915Y22245*
X9939Y22288*
X9967Y22323*
X9999Y22353*
X10037Y22377*
X10079Y22396*
X10125Y22410*
X10175Y22418*
X10229Y22421*
X10267Y22419*
X10304Y22415*
X10338Y22407*
X10370Y22396*
X10399Y22383*
X10423Y22367*
X10444Y22350*
X10462Y22331*
X10477Y22309*
X10491Y22282*
X10504Y22252*
X10500Y22264*
X10499Y22264*
X10504Y22250*
X10491Y22280*
X10477Y22307*
X10460Y22332*
X10440Y22354*
X10417Y22374*
X10391Y22390*
X10362Y22405*
X10330Y22416*
X10298Y22424*
X10264Y22428*
X10229Y22430*
X10189Y22428*
X10151Y22424*
X10115Y22415*
X10081Y22404*
X10051Y22389*
X10023Y22372*
X9998Y22353*
X9976Y22332*
X9957Y22309*
X9941Y22286*
X9927Y22261*
X9915Y22235*
X9899Y22192*
X9888Y22147*
X9882Y22100*
X9880Y22052*
X9882Y21994*
X9890Y21941*
X9904Y21891*
X9923Y21845*
X9948Y21804*
X9978Y21768*
X10014Y21738*
X10055Y21714*
X10097Y21696*
X10141Y21683*
X10185Y21675*
X10231Y21673*
X10271Y21674*
X10310Y21680*
X10349Y21690*
X10387Y21703*
X10421Y21718*
X10452Y21734*
X10480Y21751*
X10520Y21783*
X10520Y22011*
X10280Y22011*
X10785Y21690D02*
X10785Y22407D01*
X10818Y22407*
X11326Y21648*
X11326Y22407*
X11328Y22407*
X11328Y21690*
X11295Y21690*
X10787Y22450*
X10787Y21690*
X10785Y21690*
X11612Y21690D02*
X11612Y22407D01*
X11842Y22407*
X11886Y22406*
X11923Y22404*
X11953Y22401*
X11977Y22397*
X12005Y22388*
X12031Y22378*
X12054Y22365*
X12075Y22349*
X12101Y22324*
X12123Y22296*
X12142Y22265*
X12158Y22230*
X12170Y22191*
X12179Y22148*
X12185Y22102*
X12186Y22053*
X12185Y22011*
X12181Y21972*
X12175Y21936*
X12167Y21902*
X12156Y21872*
X12145Y21844*
X12132Y21820*
X12118Y21798*
X12103Y21779*
X12088Y21763*
X12073Y21749*
X12057Y21737*
X12040Y21727*
X12021Y21718*
X11999Y21710*
X11975Y21703*
X11949Y21698*
X11921Y21694*
X11889Y21691*
X11855Y21690*
X11612Y21690*
X11669Y21736D02*
X11669Y21736D01*
X11844Y21736*
X11882Y21737*
X11916Y21740*
X11945Y21745*
X11971Y21751*
X11993Y21760*
X12012Y21769*
X12029Y21781*
X12044Y21794*
X12062Y21815*
X12078Y21839*
X12092Y21866*
X12104Y21897*
X12113Y21931*
X12120Y21969*
X12124Y22010*
X12126Y22055*
X12123Y22115*
X12115Y22168*
X12102Y22214*
X12083Y22252*
X12061Y22284*
X12037Y22310*
X12010Y22330*
X11981Y22345*
X11956Y22352*
X11924Y22357*
X11886Y22360*
X11841Y22361*
X11669Y22361*
X11669Y21736*
X12723Y21812D02*
X12726Y21813D01*
X12726Y21814*
X12742Y21773*
X12762Y21738*
X12788Y21709*
X12818Y21686*
X12851Y21670*
X12887Y21660*
X12924Y21657*
X12968Y21661*
X13009Y21673*
X13047Y21694*
X13080Y21721*
X13108Y21755*
X13128Y21793*
X13140Y21835*
X13144Y21879*
X13140Y21921*
X13129Y21961*
X13110Y21997*
X13084Y22029*
X13051Y22056*
X13015Y22074*
X12975Y22086*
X12934Y22089*
X12913Y22088*
X12893Y22086*
X12871Y22082*
X12921Y22094*
X12917Y22060*
X12873Y22064*
X12878Y22064*
X12884Y22063*
X12890Y22063*
X12927Y22066*
X12964Y22074*
X12999Y22087*
X13034Y22106*
X13065Y22132*
X13089Y22167*
X13103Y22207*
X13107Y22251*
X13104Y22287*
X13094Y22321*
X13077Y22352*
X13054Y22379*
X13026Y22401*
X12994Y22417*
X12959Y22427*
X12922Y22430*
X12885Y22427*
X12850Y22417*
X12818Y22401*
X12789Y22379*
X12765Y22350*
X12746Y22317*
X12732Y22280*
X12735Y22290*
X12736Y22290*
X12734Y22280*
X12749Y22315*
X12767Y22343*
X12790Y22367*
X12817Y22386*
X12847Y22399*
X12881Y22407*
X12920Y22410*
X12947Y22409*
X12973Y22404*
X12997Y22397*
X13020Y22387*
X13041Y22375*
X13059Y22361*
X13073Y22345*
X13086Y22328*
X13096Y22308*
X13103Y22289*
X13107Y22269*
X13108Y22249*
X13107Y22230*
X13103Y22212*
X13097Y22196*
X13088Y22180*
X13077Y22165*
X13063Y22152*
X13046Y22140*
X12915Y22070*
X13062Y22025*
X13084Y22014*
X13103Y22000*
X13119Y21982*
X13131Y21962*
X13141Y21939*
X13146Y21912*
X13148Y21882*
X13144Y21840*
X13133Y21803*
X13114Y21768*
X13086Y21737*
X13052Y21710*
X13015Y21692*
X12972Y21680*
X12924Y21676*
X12880Y21679*
X12842Y21689*
X12809Y21705*
X12779Y21727*
X12754Y21755*
X12735Y21785*
X12722Y21821*
X12723Y21812*
X13608Y21690D02*
X13330Y22407D01*
X13338Y22407*
X13538Y21847*
X13550Y21812*
X13561Y21779*
X13571Y21747*
X13629Y21548*
X13688Y21748*
X13698Y21781*
X13709Y21813*
X13721Y21846*
X13930Y22407*
X13930Y22407*
X13650Y21690*
X13608Y21690*
X14120Y22393D02*
X14120Y22407D01*
X14119Y22407*
X14119Y22393*
X14120Y22393*
X14120Y21690D02*
X14120Y22182D01*
X14119Y22182*
X14119Y21690*
X14120Y21690*
X15209Y21690D02*
X15484Y22407D01*
X15532Y22407*
X15825Y21690*
X15812Y21690*
X15717Y21938*
X15304Y21938*
X15214Y21690*
X15209Y21690*
X15298Y21925D02*
X15722Y21925D01*
X15611Y22220*
X15592Y22269*
X15577Y22313*
X15564Y22352*
X15497Y22573*
X15447Y22345*
X15437Y22307*
X15426Y22270*
X15413Y22233*
X15298Y21925*
X16424Y21685D02*
X16424Y21690D01*
X15985Y21690*
X15985Y21654*
X15986Y21667*
X15989Y21679*
X15993Y21691*
X16003Y21715*
X16016Y21738*
X16031Y21762*
X16050Y21785*
X16073Y21811*
X16102Y21839*
X16136Y21870*
X16176Y21903*
X16238Y21956*
X16290Y22004*
X16332Y22047*
X16364Y22085*
X16388Y22122*
X16406Y22159*
X16417Y22198*
X16421Y22236*
X16417Y22275*
X16406Y22311*
X16388Y22345*
X16363Y22374*
X16331Y22398*
X16296Y22416*
X16257Y22426*
X16216Y22429*
X16173Y22426*
X16133Y22415*
X16096Y22397*
X16064Y22371*
X16038Y22338*
X16019Y22300*
X16008Y22259*
X16009Y22270*
X16011Y22270*
X16011Y22266*
X16024Y22305*
X16043Y22337*
X16066Y22362*
X16095Y22383*
X16129Y22398*
X16170Y22407*
X16218Y22410*
X16266Y22407*
X16307Y22397*
X16341Y22381*
X16370Y22359*
X16393Y22332*
X16409Y22303*
X16419Y22271*
X16422Y22233*
X16421Y22215*
X16418Y22196*
X16413Y22177*
X16406Y22157*
X16397Y22138*
X16384Y22117*
X16368Y22095*
X16348Y22071*
X16323Y22045*
X16290Y22013*
X16248Y21975*
X16199Y21932*
X16157Y21897*
X16124Y21868*
X16097Y21844*
X16079Y21826*
X16065Y21810*
X16052Y21795*
X16040Y21779*
X15979Y21685*
X16424Y21685*
X17179Y21690D02*
X17454Y22407D01*
X17502Y22407*
X17795Y21690*
X17782Y21690*
X17687Y21938*
X17274Y21938*
X17184Y21690*
X17179Y21690*
X17268Y21925D02*
X17692Y21925D01*
X17581Y22220*
X17563Y22269*
X17547Y22313*
X17534Y22352*
X17467Y22573*
X17417Y22345*
X17407Y22307*
X17396Y22270*
X17383Y22233*
X17268Y21925*
X17994Y21690D02*
X17994Y22182D01*
X17983Y22182*
X17983Y21956*
X18093Y22144*
X18107Y22164*
X18119Y22177*
X18127Y22184*
X18135Y22189*
X18144Y22192*
X18152Y22194*
X18162Y22195*
X18180Y22193*
X18198Y22189*
X18218Y22181*
X18202Y22190*
X18203Y22192*
X18233Y22176*
X18208Y22185*
X18183Y22191*
X18157Y22193*
X18133Y22191*
X18110Y22185*
X18088Y22176*
X18067Y22163*
X18049Y22146*
X18033Y22127*
X18021Y22106*
X18012Y22083*
X18004Y22051*
X17998Y22018*
X17994Y21985*
X17993Y21951*
X17993Y21690*
X17994Y21690*
X18763Y21775D02*
X18766Y21775D01*
X18773Y21795*
X18757Y21765*
X18737Y21739*
X18713Y21717*
X18685Y21700*
X18653Y21688*
X18616Y21680*
X18574Y21677*
X18521Y21682*
X18476Y21694*
X18438Y21714*
X18405Y21742*
X18378Y21777*
X18359Y21819*
X18347Y21870*
X18342Y21931*
X18347Y21994*
X18359Y22048*
X18379Y22092*
X18406Y22129*
X18439Y22157*
X18477Y22178*
X18519Y22190*
X18568Y22195*
X18616Y22191*
X18657Y22178*
X18693Y22158*
X18725Y22130*
X18751Y22095*
X18771Y22051*
X18783Y21999*
X18787Y21936*
X18787Y21933*
X18787Y21927*
X18787Y21920*
X18788Y21961*
X18338Y21961*
X18351Y21855*
X18364Y21806*
X18385Y21763*
X18413Y21726*
X18448Y21696*
X18487Y21675*
X18529Y21662*
X18574Y21658*
X18608Y21660*
X18641Y21667*
X18671Y21680*
X18699Y21697*
X18725Y21720*
X18746Y21747*
X18764Y21778*
X18763Y21775*
X18401Y21993D02*
X18401Y21993D01*
X18732Y21993*
X18727Y22028*
X18719Y22058*
X18708Y22084*
X18694Y22105*
X18668Y22131*
X18639Y22149*
X18606Y22160*
X18569Y22163*
X18536Y22160*
X18506Y22152*
X18478Y22137*
X18453Y22117*
X18432Y22092*
X18416Y22063*
X18406Y22030*
X18401Y21993*
X19036Y21690D02*
X19036Y22205D01*
X18947Y22205*
X18947Y22182*
X19036Y22182*
X19036Y22295*
X19036Y22321*
X19038Y22341*
X19040Y22357*
X19043Y22366*
X19048Y22378*
X19055Y22388*
X19064Y22397*
X19074Y22405*
X19086Y22411*
X19102Y22416*
X19123Y22420*
X19149Y22421*
X19168Y22420*
X19188Y22419*
X19210Y22416*
X19184Y22420*
X19186Y22432*
X19219Y22427*
X19202Y22429*
X19185Y22430*
X19167Y22431*
X19141Y22429*
X19114Y22424*
X19089Y22413*
X19066Y22396*
X19050Y22372*
X19040Y22345*
X19035Y22317*
X19034Y22288*
X19034Y22182*
X19149Y22182*
X19149Y22205*
X19034Y22205*
X19034Y21690*
X19036Y21690*
X10404Y13886D02*
X10404Y14548D01*
X10403Y14548*
X10403Y13886*
X10404Y13886*
X10682Y13886D02*
X10682Y14548D01*
X10708Y14548*
X11187Y13832*
X11187Y14548*
X11182Y14548*
X11182Y13886*
X11157Y13886*
X10677Y14602*
X10677Y13886*
X10682Y13886*
X11648Y13886D02*
X11648Y14559D01*
X11396Y14559*
X11396Y14548*
X11900Y14548*
X11900Y14559*
X11647Y14559*
X11647Y13886*
X11648Y13886*
X7753Y5968D02*
X7754Y5952D01*
X7766Y5954*
X7731Y5944*
X7698Y5931*
X7669Y5914*
X7641Y5892*
X7618Y5866*
X7597Y5835*
X7580Y5801*
X7566Y5764*
X7556Y5724*
X7551Y5684*
X7549Y5641*
X7550Y5604*
X7555Y5568*
X7562Y5534*
X7573Y5501*
X7586Y5471*
X7603Y5444*
X7623Y5420*
X7646Y5400*
X7671Y5385*
X7697Y5373*
X7725Y5367*
X7754Y5364*
X7783Y5367*
X7810Y5373*
X7836Y5384*
X7860Y5400*
X7882Y5421*
X7901Y5445*
X7916Y5473*
X7930Y5504*
X7939Y5531*
X7950Y5567*
X7962Y5614*
X7976Y5672*
X7991Y5728*
X8004Y5775*
X8017Y5811*
X8029Y5836*
X8044Y5861*
X8060Y5883*
X8077Y5900*
X8095Y5913*
X8115Y5924*
X8136Y5931*
X8158Y5936*
X8181Y5938*
X8208Y5936*
X8233Y5930*
X8258Y5920*
X8282Y5907*
X8304Y5890*
X8323Y5870*
X8339Y5845*
X8354Y5816*
X8366Y5782*
X8374Y5747*
X8379Y5709*
X8381Y5668*
X8379Y5624*
X8374Y5583*
X8365Y5545*
X8352Y5510*
X8337Y5480*
X8319Y5454*
X8299Y5432*
X8275Y5414*
X8249Y5399*
X8221Y5388*
X8191Y5381*
X8207Y5383*
X8206Y5400*
X8205Y5400*
X8250Y5417*
X8289Y5441*
X8321Y5473*
X8347Y5512*
X8364Y5558*
X8374Y5608*
X8377Y5663*
X8374Y5720*
X8365Y5771*
X8349Y5816*
X8326Y5854*
X8298Y5883*
X8265Y5905*
X8228Y5919*
X8190Y5924*
X8156Y5920*
X8124Y5910*
X8095Y5894*
X8070Y5870*
X8048Y5837*
X8029Y5792*
X8011Y5736*
X7995Y5668*
X7979Y5601*
X7964Y5546*
X7951Y5504*
X7940Y5476*
X7923Y5444*
X7905Y5417*
X7885Y5396*
X7865Y5379*
X7842Y5367*
X7818Y5358*
X7792Y5352*
X7764Y5350*
X7736Y5352*
X7708Y5359*
X7681Y5369*
X7655Y5384*
X7631Y5402*
X7609Y5424*
X7590Y5451*
X7574Y5482*
X7560Y5516*
X7550Y5553*
X7545Y5593*
X7543Y5636*
X7545Y5691*
X7551Y5740*
X7561Y5784*
X7574Y5822*
X7591Y5855*
X7612Y5884*
X7636Y5909*
X7664Y5931*
X7695Y5948*
X7728Y5961*
X7763Y5969*
X7753Y5968*
X7558Y4937D02*
X8365Y5152D01*
X8365Y5135*
X7809Y5005*
X7763Y4995*
X7717Y4985*
X7671Y4976*
X7388Y4924*
X7688Y4852*
X7737Y4841*
X7771Y4832*
X7789Y4827*
X8365Y4665*
X8365Y4597*
X7943Y4477*
X7859Y4455*
X7779Y4436*
X7702Y4420*
X7357Y4364*
X7668Y4298*
X7716Y4288*
X7766Y4276*
X7820Y4263*
X8365Y4130*
X8365Y4115*
X7558Y4337*
X7558Y4375*
X8213Y4557*
X8253Y4567*
X8283Y4576*
X8305Y4581*
X8527Y4635*
X8288Y4691*
X8261Y4697*
X8236Y4704*
X8213Y4710*
X7558Y4892*
X7558Y4937*
X7558Y3886D02*
X8365Y3886D01*
X8365Y3624*
X8365Y3575*
X8362Y3534*
X8359Y3500*
X8354Y3473*
X8344Y3441*
X8332Y3411*
X8317Y3385*
X8299Y3361*
X8271Y3332*
X8240Y3307*
X8204Y3286*
X8165Y3268*
X8121Y3254*
X8073Y3244*
X8022Y3238*
X7967Y3236*
X7920Y3237*
X7876Y3241*
X7835Y3248*
X7798Y3258*
X7763Y3269*
X7732Y3283*
X7704Y3297*
X7680Y3312*
X7659Y3329*
X7640Y3346*
X7624Y3364*
X7611Y3382*
X7599Y3401*
X7589Y3423*
X7580Y3447*
X7572Y3474*
X7566Y3504*
X7562Y3536*
X7559Y3571*
X7558Y3609*
X7558Y3886*
X7614Y3816D02*
X7614Y3816D01*
X7614Y3622*
X7616Y3579*
X7619Y3542*
X7624Y3509*
X7631Y3481*
X7640Y3457*
X7651Y3435*
X7664Y3416*
X7678Y3399*
X7702Y3379*
X7729Y3361*
X7759Y3346*
X7793Y3333*
X7831Y3322*
X7873Y3315*
X7919Y3310*
X7969Y3309*
X8036Y3312*
X8095Y3321*
X8145Y3335*
X8188Y3356*
X8223Y3380*
X8252Y3408*
X8274Y3437*
X8290Y3469*
X8299Y3497*
X8304Y3533*
X8308Y3575*
X8309Y3625*
X8309Y3816*
X7614Y3816*
X10164Y16841D02*
X10162Y16840D01*
X10159Y16857*
X10167Y16827*
X10179Y16798*
X10194Y16772*
X10213Y16748*
X10236Y16728*
X10263Y16710*
X10292Y16695*
X10324Y16683*
X10358Y16675*
X10393Y16670*
X10430Y16668*
X10462Y16669*
X10493Y16673*
X10522Y16680*
X10550Y16689*
X10576Y16701*
X10600Y16715*
X10621Y16733*
X10639Y16753*
X10653Y16775*
X10662Y16799*
X10668Y16823*
X10670Y16849*
X10668Y16874*
X10663Y16898*
X10653Y16922*
X10639Y16943*
X10621Y16962*
X10599Y16979*
X10575Y16992*
X10548Y17004*
X10525Y17012*
X10494Y17021*
X10454Y17031*
X10406Y17043*
X10359Y17055*
X10320Y17067*
X10291Y17077*
X10270Y17086*
X10249Y17099*
X10232Y17112*
X10219Y17125*
X10208Y17140*
X10200Y17155*
X10194Y17171*
X10190Y17189*
X10189Y17207*
X10191Y17229*
X10195Y17249*
X10203Y17268*
X10213Y17288*
X10227Y17305*
X10243Y17320*
X10263Y17333*
X10286Y17345*
X10314Y17355*
X10343Y17361*
X10374Y17366*
X10407Y17367*
X10444Y17366*
X10478Y17361*
X10509Y17354*
X10537Y17344*
X10561Y17332*
X10582Y17317*
X10599Y17301*
X10614Y17282*
X10626Y17261*
X10635Y17238*
X10640Y17214*
X10638Y17237*
X10639Y17237*
X10640Y17230*
X10626Y17268*
X10605Y17303*
X10576Y17332*
X10542Y17354*
X10502Y17369*
X10459Y17377*
X10411Y17380*
X10363Y17377*
X10319Y17370*
X10280Y17356*
X10246Y17336*
X10220Y17311*
X10200Y17282*
X10188Y17249*
X10184Y17215*
X10187Y17185*
X10196Y17156*
X10211Y17131*
X10232Y17108*
X10262Y17088*
X10300Y17072*
X10348Y17057*
X10406Y17043*
X10462Y17029*
X10507Y17017*
X10542Y17006*
X10565Y16997*
X10591Y16984*
X10613Y16969*
X10630Y16953*
X10643Y16937*
X10653Y16919*
X10660Y16901*
X10664Y16880*
X10666Y16857*
X10664Y16834*
X10659Y16813*
X10651Y16791*
X10639Y16770*
X10624Y16750*
X10607Y16733*
X10585Y16718*
X10560Y16705*
X10532Y16694*
X10502Y16686*
X10469Y16681*
X10434Y16679*
X10389Y16681*
X10348Y16686*
X10312Y16694*
X10281Y16705*
X10254Y16719*
X10231Y16736*
X10211Y16755*
X10193Y16777*
X10179Y16802*
X10169Y16829*
X10163Y16857*
X10164Y16841*
X11435Y16848D02*
X11436Y16848D01*
X11435Y16844*
X11413Y16800*
X11386Y16764*
X11355Y16734*
X11319Y16710*
X11279Y16693*
X11234Y16683*
X11184Y16679*
X11132Y16682*
X11085Y16690*
X11045Y16703*
X11011Y16721*
X10982Y16744*
X10955Y16772*
X10932Y16805*
X10913Y16844*
X10897Y16888*
X10886Y16933*
X10879Y16980*
X10877Y17029*
X10879Y17081*
X10887Y17130*
X10899Y17174*
X10917Y17214*
X10938Y17249*
X10963Y17280*
X10992Y17306*
X11026Y17327*
X11063Y17345*
X11102Y17357*
X11143Y17365*
X11186Y17367*
X11234Y17364*
X11277Y17355*
X11315Y17340*
X11348Y17319*
X11378Y17293*
X11403Y17261*
X11423Y17224*
X11420Y17232*
X11420Y17232*
X11420Y17232*
X11399Y17272*
X11373Y17306*
X11342Y17334*
X11307Y17356*
X11269Y17371*
X11228Y17380*
X11184Y17382*
X11135Y17379*
X11089Y17370*
X11046Y17354*
X11008Y17331*
X10974Y17303*
X10945Y17270*
X10923Y17233*
X10906Y17193*
X10894Y17152*
X10886Y17112*
X10881Y17071*
X10879Y17029*
X10881Y16978*
X10887Y16930*
X10897Y16884*
X10911Y16840*
X10930Y16800*
X10955Y16764*
X10985Y16732*
X11020Y16707*
X11057Y16688*
X11095Y16675*
X11135Y16667*
X11176Y16664*
X11225Y16667*
X11271Y16679*
X11314Y16698*
X11353Y16725*
X11387Y16759*
X11414Y16800*
X11435Y16846*
X11435Y16848*
X11672Y16692D02*
X11672Y17354D01*
X11671Y17354*
X11671Y16681*
X12047Y16681*
X12047Y16692*
X11672Y16692*
X12756Y20468D02*
X12589Y20468D01*
X12589Y21189*
X12756Y21189*
X12756Y20468*
X11627Y5475D02*
X11629Y5461D01*
X11625Y5460*
X11581Y5443*
X11542Y5420*
X11511Y5392*
X11486Y5360*
X11469Y5324*
X11459Y5286*
X11455Y5245*
X11460Y5198*
X11473Y5153*
X11495Y5112*
X11525Y5076*
X11562Y5046*
X11603Y5024*
X11648Y5011*
X11696Y5007*
X11742Y5011*
X11785Y5023*
X11824Y5043*
X11859Y5072*
X11887Y5107*
X11908Y5146*
X11920Y5190*
X11924Y5235*
X11923Y5257*
X11920Y5279*
X11915Y5303*
X11927Y5255*
X11903Y5258*
X11907Y5301*
X11907Y5296*
X11906Y5290*
X11906Y5283*
X11909Y5242*
X11917Y5202*
X11932Y5164*
X11952Y5127*
X11981Y5093*
X12019Y5067*
X12062Y5052*
X12109Y5048*
X12148Y5051*
X12185Y5062*
X12218Y5080*
X12247Y5105*
X12271Y5135*
X12289Y5170*
X12299Y5208*
X12302Y5248*
X12299Y5288*
X12289Y5325*
X12271Y5360*
X12247Y5391*
X12216Y5418*
X12180Y5438*
X12140Y5453*
X12146Y5451*
X12148Y5461*
X12144Y5462*
X12183Y5445*
X12215Y5424*
X12242Y5397*
X12264Y5367*
X12279Y5333*
X12289Y5294*
X12292Y5250*
X12290Y5219*
X12285Y5190*
X12277Y5163*
X12266Y5136*
X12251Y5112*
X12235Y5092*
X12218Y5075*
X12197Y5061*
X12175Y5049*
X12153Y5041*
X12130Y5037*
X12107Y5035*
X12085Y5036*
X12065Y5041*
X12046Y5048*
X12027Y5058*
X12010Y5071*
X11995Y5087*
X11981Y5107*
X11910Y5241*
X11863Y5090*
X11850Y5064*
X11834Y5043*
X11814Y5025*
X11791Y5010*
X11764Y4999*
X11734Y4993*
X11699Y4990*
X11651Y4995*
X11609Y5008*
X11570Y5030*
X11534Y5061*
X11504Y5100*
X11482Y5143*
X11469Y5191*
X11465Y5246*
X11469Y5295*
X11480Y5338*
X11498Y5376*
X11523Y5410*
X11554Y5439*
X11589Y5461*
X11629Y5476*
X11627Y5475*
X11481Y4489D02*
X12288Y4802D01*
X12288Y4782*
X11662Y4557*
X11623Y4544*
X11586Y4532*
X11551Y4521*
X11348Y4462*
X11552Y4402*
X11588Y4391*
X11625Y4378*
X11661Y4365*
X12288Y4132*
X12288Y4119*
X11481Y4435*
X11481Y4489*
X11759Y4012D02*
X11837Y4006D01*
X11900Y3989*
X11951Y3963*
X11992Y3927*
X12018Y3890*
X12037Y3849*
X12049Y3804*
X12052Y3754*
X12048Y3698*
X12034Y3649*
X12011Y3606*
X11979Y3569*
X11939Y3538*
X11891Y3515*
X11835Y3501*
X11768Y3496*
X11713Y3499*
X11665Y3505*
X11625Y3515*
X11592Y3529*
X11564Y3546*
X11540Y3567*
X11518Y3591*
X11500Y3619*
X11485Y3651*
X11475Y3683*
X11468Y3718*
X11466Y3753*
X11471Y3810*
X11485Y3860*
X11507Y3903*
X11539Y3940*
X11579Y3971*
X11628Y3993*
X11688Y4007*
X11759Y4012*
X11759Y3948D02*
X11759Y3948D01*
X11700Y3944*
X11649Y3934*
X11605Y3917*
X11570Y3893*
X11542Y3863*
X11523Y3830*
X11511Y3794*
X11507Y3754*
X11511Y3714*
X11523Y3678*
X11542Y3645*
X11570Y3615*
X11606Y3591*
X11650Y3574*
X11702Y3564*
X11763Y3560*
X11820Y3564*
X11870Y3574*
X11913Y3591*
X11948Y3616*
X11976Y3645*
X11995Y3678*
X12007Y3714*
X12011Y3754*
X12007Y3794*
X11995Y3830*
X11976Y3863*
X11948Y3893*
X11913Y3917*
X11870Y3934*
X11819Y3944*
X11759Y3948*
X22866Y6955D02*
X22860Y6955D01*
X22860Y7454*
X22826Y7454*
X22840Y7453*
X22855Y7449*
X22869Y7445*
X22895Y7433*
X22921Y7419*
X22948Y7401*
X22975Y7380*
X23003Y7354*
X23035Y7322*
X23069Y7284*
X23106Y7240*
X23165Y7171*
X23218Y7113*
X23265Y7067*
X23308Y7032*
X23348Y7005*
X23389Y6986*
X23430Y6974*
X23472Y6969*
X23514Y6973*
X23553Y6985*
X23589Y7005*
X23621Y7033*
X23647Y7066*
X23666Y7105*
X23677Y7147*
X23681Y7192*
X23677Y7238*
X23665Y7282*
X23645Y7322*
X23617Y7357*
X23582Y7385*
X23541Y7405*
X23496Y7417*
X23503Y7416*
X23504Y7425*
X23507Y7425*
X23551Y7410*
X23587Y7389*
X23616Y7362*
X23640Y7329*
X23657Y7290*
X23667Y7243*
X23671Y7189*
X23667Y7135*
X23656Y7089*
X23638Y7050*
X23612Y7017*
X23582Y6990*
X23548Y6972*
X23511Y6961*
X23469Y6957*
X23448Y6958*
X23426Y6961*
X23404Y6967*
X23382Y6975*
X23360Y6986*
X23336Y7000*
X23311Y7018*
X23285Y7040*
X23255Y7068*
X23219Y7106*
X23178Y7152*
X23130Y7207*
X23091Y7253*
X23059Y7290*
X23032Y7319*
X23012Y7340*
X22995Y7355*
X22978Y7369*
X22961Y7382*
X22866Y7444*
X22866Y6955*
X23258Y6734D02*
X23331Y6732D01*
X23396Y6726*
X23453Y6716*
X23501Y6703*
X23542Y6687*
X23576Y6668*
X23605Y6646*
X23629Y6621*
X23647Y6594*
X23660Y6563*
X23668Y6528*
X23671Y6488*
X23670Y6458*
X23665Y6431*
X23658Y6406*
X23648Y6384*
X23635Y6363*
X23619Y6344*
X23601Y6327*
X23580Y6311*
X23555Y6297*
X23526Y6284*
X23495Y6272*
X23460Y6262*
X23421Y6254*
X23374Y6248*
X23319Y6244*
X23258Y6243*
X23184Y6245*
X23120Y6251*
X23063Y6260*
X23015Y6273*
X22975Y6289*
X22940Y6309*
X22911Y6331*
X22887Y6355*
X22869Y6382*
X22856Y6413*
X22847Y6448*
X22845Y6488*
X22850Y6540*
X22864Y6584*
X22887Y6622*
X22919Y6654*
X22975Y6688*
X23049Y6713*
X23144Y6729*
X23258Y6734*
X23258Y6670D02*
X23258Y6670D01*
X23155Y6667*
X23071Y6657*
X23006Y6641*
X22960Y6618*
X22927Y6590*
X22904Y6559*
X22890Y6525*
X22885Y6488*
X22890Y6451*
X22904Y6418*
X22927Y6387*
X22960Y6359*
X23006Y6336*
X23072Y6320*
X23155Y6310*
X23258Y6307*
X23360Y6310*
X23444Y6320*
X23510Y6336*
X23556Y6359*
X23588Y6387*
X23611Y6418*
X23625Y6452*
X23630Y6490*
X23626Y6526*
X23613Y6559*
X23593Y6587*
X23565Y6612*
X23514Y6638*
X23446Y6656*
X23361Y6666*
X23258Y6670*
X22860Y5709D02*
X22860Y5719D01*
X23633Y5719*
X23540Y5824*
X23523Y5846*
X23505Y5872*
X23487Y5901*
X23470Y5931*
X23456Y5960*
X23443Y5986*
X23461Y5942*
X23463Y5942*
X23473Y5923*
X23500Y5877*
X23530Y5835*
X23562Y5795*
X23596Y5760*
X23630Y5730*
X23664Y5704*
X23671Y5701*
X23671Y5709*
X22860Y5709*
X22860Y4964D02*
X23078Y4964D01*
X23078Y5358*
X23113Y5358*
X23667Y4967*
X23667Y4953*
X23078Y4953*
X23078Y4831*
X23078Y4831*
X23078Y4953*
X22860Y4953*
X22860Y4964*
X23078Y4964D02*
X23701Y4964D01*
X23078Y5396*
X23078Y4964*
X10136Y19884D02*
X10134Y19884D01*
X10131Y19900*
X10139Y19870*
X10151Y19842*
X10166Y19816*
X10185Y19792*
X10208Y19771*
X10235Y19753*
X10264Y19739*
X10296Y19727*
X10330Y19718*
X10365Y19713*
X10402Y19712*
X10434Y19713*
X10465Y19717*
X10494Y19723*
X10522Y19732*
X10548Y19744*
X10572Y19759*
X10593Y19776*
X10611Y19797*
X10625Y19819*
X10634Y19842*
X10640Y19867*
X10642Y19892*
X10640Y19918*
X10635Y19942*
X10625Y19965*
X10611Y19987*
X10593Y20006*
X10571Y20022*
X10547Y20036*
X10520Y20048*
X10497Y20055*
X10466Y20064*
X10426Y20075*
X10378Y20087*
X10331Y20099*
X10292Y20110*
X10263Y20121*
X10242Y20130*
X10221Y20142*
X10204Y20155*
X10191Y20169*
X10180Y20183*
X10172Y20199*
X10166Y20215*
X10162Y20232*
X10161Y20251*
X10163Y20272*
X10167Y20292*
X10175Y20312*
X10185Y20331*
X10199Y20349*
X10215Y20364*
X10235Y20377*
X10258Y20389*
X10286Y20398*
X10315Y20405*
X10346Y20409*
X10379Y20411*
X10416Y20409*
X10450Y20405*
X10481Y20397*
X10509Y20387*
X10533Y20375*
X10554Y20361*
X10571Y20345*
X10586Y20326*
X10598Y20305*
X10607Y20282*
X10612Y20258*
X10610Y20280*
X10611Y20280*
X10612Y20274*
X10598Y20312*
X10577Y20346*
X10548Y20375*
X10514Y20397*
X10474Y20412*
X10431Y20421*
X10383Y20423*
X10335Y20421*
X10291Y20414*
X10252Y20400*
X10218Y20379*
X10192Y20354*
X10172Y20325*
X10160Y20293*
X10156Y20259*
X10159Y20228*
X10168Y20200*
X10183Y20174*
X10204Y20151*
X10234Y20132*
X10272Y20116*
X10320Y20101*
X10378Y20086*
X10434Y20073*
X10479Y20061*
X10514Y20050*
X10537Y20041*
X10563Y20027*
X10585Y20012*
X10602Y19997*
X10615Y19981*
X10625Y19963*
X10632Y19944*
X10636Y19923*
X10638Y19901*
X10636Y19878*
X10631Y19856*
X10623Y19835*
X10611Y19814*
X10596Y19794*
X10579Y19777*
X10557Y19762*
X10532Y19748*
X10504Y19737*
X10474Y19729*
X10441Y19724*
X10406Y19723*
X10361Y19725*
X10320Y19730*
X10284Y19738*
X10253Y19749*
X10226Y19763*
X10203Y19779*
X10183Y19799*
X10165Y19821*
X10151Y19846*
X10141Y19873*
X10135Y19901*
X10136Y19884*
X10878Y19736D02*
X10878Y20398D01*
X11090Y20398*
X11130Y20397*
X11164Y20395*
X11192Y20392*
X11214Y20388*
X11241Y20381*
X11264Y20371*
X11286Y20359*
X11305Y20344*
X11328Y20321*
X11349Y20296*
X11366Y20267*
X11381Y20234*
X11392Y20198*
X11401Y20159*
X11406Y20117*
X11407Y20071*
X11406Y20032*
X11403Y19996*
X11397Y19962*
X11389Y19931*
X11379Y19903*
X11369Y19877*
X11357Y19855*
X11344Y19835*
X11331Y19818*
X11317Y19802*
X11302Y19789*
X11288Y19779*
X11272Y19769*
X11255Y19761*
X11235Y19754*
X11213Y19747*
X11189Y19742*
X11162Y19739*
X11133Y19737*
X11102Y19736*
X10878Y19736*
X10928Y19775D02*
X10928Y19775D01*
X11091Y19775*
X11127Y19776*
X11158Y19779*
X11186Y19783*
X11209Y19789*
X11230Y19797*
X11248Y19806*
X11264Y19817*
X11278Y19829*
X11295Y19848*
X11310Y19871*
X11323Y19897*
X11334Y19925*
X11343Y19957*
X11349Y19993*
X11353Y20031*
X11354Y20073*
X11352Y20129*
X11344Y20178*
X11332Y20221*
X11315Y20257*
X11294Y20286*
X11271Y20310*
X11246Y20329*
X11219Y20343*
X11196Y20350*
X11166Y20355*
X11130Y20358*
X11088Y20359*
X10928Y20359*
X10928Y19775*
X11587Y19736D02*
X11842Y20398D01*
X11881Y20398*
X12152Y19736*
X12148Y19736*
X12059Y19967*
X11669Y19967*
X11585Y19736*
X11587Y19736*
X11660Y19948D02*
X12066Y19948D01*
X11961Y20228*
X11944Y20273*
X11929Y20314*
X11917Y20351*
X11851Y20570*
X11801Y20344*
X11792Y20309*
X11782Y20275*
X11770Y20240*
X11660Y19948*
X13883Y5357D02*
X13888Y5357D01*
X13889Y5073*
X13628Y5073*
X13611Y5096*
X13584Y5138*
X13562Y5180*
X13543Y5223*
X13529Y5266*
X13519Y5310*
X13513Y5354*
X13511Y5399*
X13514Y5459*
X13524Y5515*
X13540Y5568*
X13562Y5618*
X13590Y5663*
X13624Y5702*
X13662Y5735*
X13707Y5762*
X13757Y5784*
X13810Y5800*
X13866Y5809*
X13926Y5812*
X13986Y5809*
X14043Y5800*
X14098Y5784*
X14151Y5762*
X14199Y5735*
X14239Y5703*
X14272Y5666*
X14300Y5624*
X14321Y5576*
X14337Y5524*
X14346Y5468*
X14349Y5408*
X14348Y5364*
X14342Y5323*
X14333Y5285*
X14321Y5249*
X14306Y5216*
X14289Y5188*
X14269Y5165*
X14247Y5145*
X14222Y5127*
X14192Y5111*
X14157Y5097*
X14166Y5100*
X14162Y5111*
X14151Y5108*
X14184Y5121*
X14214Y5137*
X14241Y5155*
X14265Y5177*
X14287Y5202*
X14305Y5231*
X14320Y5262*
X14333Y5297*
X14341Y5332*
X14346Y5369*
X14348Y5407*
X14346Y5452*
X14341Y5493*
X14332Y5533*
X14319Y5569*
X14303Y5603*
X14285Y5633*
X14264Y5661*
X14241Y5685*
X14216Y5705*
X14190Y5723*
X14164Y5738*
X14135Y5752*
X14088Y5768*
X14038Y5781*
X13986Y5788*
X13933Y5790*
X13870Y5787*
X13811Y5779*
X13757Y5764*
X13707Y5743*
X13662Y5715*
X13622Y5682*
X13589Y5643*
X13563Y5599*
X13543Y5552*
X13529Y5505*
X13521Y5456*
X13518Y5406*
X13520Y5362*
X13526Y5319*
X13537Y5276*
X13551Y5234*
X13568Y5196*
X13586Y5162*
X13604Y5132*
X13638Y5089*
X13883Y5089*
X13883Y5357*
X13526Y4795D02*
X14334Y4795D01*
X14334Y4750*
X13504Y4195*
X14334Y4195*
X14334Y4181*
X13526Y4181*
X13526Y4226*
X14357Y4782*
X13526Y4782*
X13526Y4795*
X13526Y3877D02*
X14334Y3877D01*
X14334Y3615*
X14333Y3567*
X14331Y3525*
X14327Y3491*
X14322Y3464*
X14313Y3432*
X14301Y3403*
X14286Y3376*
X14268Y3352*
X14240Y3324*
X14208Y3298*
X14173Y3277*
X14133Y3259*
X14089Y3245*
X14042Y3235*
X13990Y3229*
X13935Y3227*
X13888Y3229*
X13844Y3233*
X13804Y3240*
X13766Y3249*
X13731Y3261*
X13700Y3274*
X13673Y3288*
X13649Y3304*
X13627Y3321*
X13608Y3338*
X13592Y3356*
X13579Y3374*
X13567Y3393*
X13557Y3415*
X13548Y3439*
X13540Y3466*
X13534Y3495*
X13530Y3527*
X13527Y3562*
X13526Y3600*
X13526Y3877*
X13583Y3808D02*
X13583Y3808D01*
X13583Y3613*
X13584Y3571*
X13587Y3533*
X13592Y3500*
X13600Y3472*
X13609Y3448*
X13620Y3426*
X13632Y3407*
X13647Y3391*
X13670Y3371*
X13697Y3353*
X13727Y3337*
X13762Y3324*
X13800Y3314*
X13842Y3306*
X13887Y3302*
X13937Y3300*
X14004Y3303*
X14063Y3312*
X14114Y3327*
X14156Y3347*
X14191Y3372*
X14220Y3399*
X14243Y3429*
X14259Y3461*
X14267Y3489*
X14273Y3524*
X14276Y3567*
X14277Y3617*
X14277Y3808*
X13583Y3808*
X24054Y8662D02*
X24856Y8662D01*
X24856Y8962*
X24861Y8962*
X24861Y8343*
X24856Y8343*
X24856Y8644*
X24054Y8644*
X24054Y8662*
X24054Y7971D02*
X24861Y8185D01*
X24861Y8168*
X24305Y8039*
X24258Y8028*
X24213Y8018*
X24167Y8009*
X23884Y7958*
X24183Y7886*
X24233Y7874*
X24267Y7866*
X24285Y7861*
X24861Y7699*
X24861Y7630*
X24438Y7511*
X24355Y7488*
X24275Y7469*
X24198Y7454*
X23853Y7397*
X24164Y7332*
X24211Y7322*
X24262Y7310*
X24316Y7296*
X24861Y7163*
X24861Y7149*
X24054Y7370*
X24054Y7409*
X24709Y7590*
X24748Y7601*
X24779Y7609*
X24801Y7615*
X25022Y7669*
X24784Y7724*
X24757Y7731*
X24732Y7737*
X24709Y7743*
X24054Y7926*
X24054Y7971*
X24054Y6899D02*
X24861Y6899D01*
X24861Y6880*
X24054Y6880*
X24054Y6899*
X24054Y6639D02*
X24097Y6639D01*
X24665Y6184*
X24694Y6160*
X24721Y6137*
X24746Y6115*
X24856Y6012*
X24856Y6586*
X24861Y6586*
X24861Y6037*
X24823Y6037*
X24207Y6535*
X24059Y6662*
X24059Y6022*
X24054Y6022*
X24054Y6639*
X24327Y5495D02*
X24337Y5495D01*
X24337Y5254*
X24327Y5254*
X24327Y5495*
X24054Y4418D02*
X24861Y4731D01*
X24861Y4711*
X24235Y4487*
X24196Y4473*
X24159Y4461*
X24124Y4450*
X23921Y4392*
X24125Y4331*
X24161Y4320*
X24198Y4308*
X24234Y4294*
X24861Y4061*
X24861Y4048*
X24054Y4364*
X24054Y4418*
X24059Y3375D02*
X24054Y3375D01*
X24054Y3874*
X24020Y3874*
X24034Y3872*
X24048Y3869*
X24063Y3865*
X24089Y3853*
X24115Y3839*
X24142Y3821*
X24169Y3800*
X24197Y3774*
X24229Y3742*
X24263Y3704*
X24300Y3660*
X24359Y3591*
X24411Y3533*
X24459Y3487*
X24501Y3451*
X24542Y3425*
X24582Y3406*
X24624Y3394*
X24666Y3389*
X24708Y3393*
X24747Y3405*
X24783Y3425*
X24815Y3453*
X24841Y3486*
X24860Y3525*
X24871Y3567*
X24874Y3611*
X24871Y3658*
X24859Y3702*
X24839Y3742*
X24811Y3777*
X24776Y3805*
X24735Y3825*
X24690Y3836*
X24697Y3836*
X24698Y3845*
X24701Y3845*
X24745Y3830*
X24781Y3809*
X24810Y3782*
X24833Y3749*
X24851Y3709*
X24861Y3663*
X24865Y3609*
X24861Y3555*
X24850Y3509*
X24831Y3470*
X24806Y3437*
X24775Y3410*
X24742Y3392*
X24705Y3380*
X24662Y3377*
X24641Y3378*
X24620Y3381*
X24598Y3387*
X24576Y3395*
X24554Y3406*
X24530Y3420*
X24505Y3438*
X24479Y3460*
X24449Y3488*
X24413Y3526*
X24371Y3572*
X24324Y3627*
X24285Y3673*
X24252Y3710*
X24226Y3739*
X24206Y3760*
X24189Y3775*
X24172Y3789*
X24154Y3802*
X24059Y3864*
X24059Y3375*
X9666Y6011D02*
X9668Y5995D01*
X9679Y5997*
X9644Y5988*
X9611Y5975*
X9582Y5957*
X9554Y5936*
X9531Y5909*
X9510Y5878*
X9493Y5844*
X9479Y5807*
X9469Y5768*
X9464Y5727*
X9462Y5685*
X9463Y5647*
X9468Y5611*
X9475Y5577*
X9486Y5544*
X9499Y5514*
X9516Y5487*
X9536Y5463*
X9559Y5443*
X9584Y5428*
X9611Y5417*
X9638Y5410*
X9667Y5408*
X9696Y5410*
X9723Y5416*
X9749Y5428*
X9773Y5443*
X9795Y5464*
X9814Y5488*
X9829Y5516*
X9843Y5547*
X9852Y5574*
X9863Y5611*
X9875Y5658*
X9889Y5715*
X9904Y5772*
X9917Y5818*
X9930Y5854*
X9942Y5879*
X9957Y5905*
X9973Y5926*
X9990Y5943*
X10009Y5957*
X10028Y5967*
X10049Y5975*
X10071Y5979*
X10094Y5981*
X10121Y5979*
X10146Y5973*
X10171Y5964*
X10195Y5950*
X10217Y5933*
X10236Y5913*
X10253Y5888*
X10267Y5859*
X10279Y5826*
X10287Y5790*
X10292Y5752*
X10294Y5712*
X10292Y5667*
X10287Y5626*
X10278Y5588*
X10266Y5553*
X10250Y5523*
X10232Y5497*
X10212Y5475*
X10188Y5457*
X10162Y5442*
X10134Y5431*
X10104Y5424*
X10120Y5426*
X10119Y5444*
X10119Y5444*
X10163Y5460*
X10202Y5484*
X10234Y5516*
X10260Y5555*
X10277Y5601*
X10287Y5651*
X10290Y5707*
X10287Y5763*
X10278Y5814*
X10263Y5859*
X10239Y5897*
X10211Y5927*
X10178Y5949*
X10142Y5962*
X10103Y5967*
X10069Y5964*
X10037Y5954*
X10008Y5937*
X9983Y5913*
X9961Y5880*
X9942Y5835*
X9925Y5779*
X9908Y5711*
X9892Y5644*
X9877Y5589*
X9864Y5548*
X9853Y5519*
X9836Y5487*
X9818Y5460*
X9798Y5439*
X9778Y5423*
X9756Y5410*
X9732Y5401*
X9706Y5395*
X9677Y5394*
X9649Y5396*
X9621Y5402*
X9595Y5412*
X9568Y5427*
X9544Y5445*
X9522Y5468*
X9503Y5494*
X9487Y5525*
X9473Y5559*
X9464Y5596*
X9458Y5636*
X9456Y5679*
X9458Y5734*
X9464Y5783*
X9474Y5827*
X9487Y5865*
X9505Y5899*
X9525Y5928*
X9549Y5952*
X9577Y5974*
X9608Y5991*
X9641Y6004*
X9676Y6012*
X9666Y6011*
X9471Y4980D02*
X10279Y5195D01*
X10279Y5178*
X9722Y5049*
X9676Y5038*
X9630Y5028*
X9584Y5019*
X9301Y4967*
X9601Y4896*
X9650Y4884*
X9684Y4875*
X9702Y4871*
X10279Y4708*
X10279Y4640*
X9856Y4520*
X9772Y4498*
X9692Y4479*
X9615Y4463*
X9270Y4407*
X9581Y4342*
X9629Y4331*
X9679Y4319*
X9733Y4306*
X10279Y4173*
X10279Y4158*
X9471Y4380*
X9471Y4418*
X10127Y4600*
X10166Y4611*
X10196Y4619*
X10218Y4625*
X10440Y4678*
X10201Y4734*
X10174Y4740*
X10149Y4747*
X10126Y4753*
X9471Y4935*
X9471Y4980*
X9678Y3296D02*
X9673Y3276D01*
X9658Y3281*
X9604Y3307*
X9559Y3340*
X9523Y3379*
X9494Y3423*
X9473Y3472*
X9460Y3526*
X9456Y3588*
X9459Y3651*
X9469Y3708*
X9485Y3757*
X9508Y3799*
X9536Y3835*
X9570Y3868*
X9611Y3896*
X9658Y3920*
X9711Y3939*
X9765Y3952*
X9822Y3961*
X9882Y3963*
X9945Y3960*
X10004Y3951*
X10057Y3936*
X10106Y3915*
X10150Y3889*
X10187Y3858*
X10219Y3822*
X10245Y3781*
X10267Y3736*
X10282Y3688*
X10291Y3638*
X10294Y3585*
X10290Y3527*
X10279Y3474*
X10260Y3428*
X10235Y3386*
X10202Y3350*
X10164Y3319*
X10118Y3294*
X10116Y3294*
X10112Y3313*
X10120Y3316*
X10165Y3340*
X10205Y3370*
X10237Y3406*
X10262Y3446*
X10279Y3490*
X10290Y3537*
X10293Y3588*
X10289Y3645*
X10278Y3698*
X10260Y3748*
X10233Y3792*
X10201Y3831*
X10163Y3864*
X10120Y3890*
X10074Y3910*
X10026Y3924*
X9979Y3933*
X9931Y3939*
X9882Y3941*
X9822Y3939*
X9765Y3932*
X9712Y3920*
X9661Y3904*
X9614Y3881*
X9572Y3853*
X9536Y3818*
X9507Y3778*
X9485Y3735*
X9469Y3691*
X9460Y3645*
X9457Y3597*
X9461Y3540*
X9474Y3487*
X9496Y3438*
X9527Y3393*
X9566Y3354*
X9614Y3322*
X9668Y3298*
X9678Y3296*
X0197Y4012D02*
X0197Y4626D01*
X0190Y4626*
X0190Y3995*
X0543Y3995*
X0543Y4012*
X0197Y4012*
X0759Y4012D02*
X0759Y4626D01*
X1176Y4626*
X1176Y4643*
X0753Y4643*
X0753Y4323*
X1149Y4323*
X1149Y4340*
X0753Y4340*
X0753Y3995*
X1192Y3995*
X1192Y4012*
X0759Y4012*
X1425Y4012D02*
X1425Y4626D01*
X1620Y4626*
X1658Y4626*
X1690Y4624*
X1716Y4621*
X1737Y4617*
X1761Y4610*
X1783Y4601*
X1802Y4590*
X1820Y4577*
X1842Y4556*
X1861Y4532*
X1877Y4505*
X1890Y4475*
X1901Y4442*
X1909Y4405*
X1914Y4366*
X1915Y4323*
X1914Y4287*
X1911Y4253*
X1906Y4222*
X1898Y4193*
X1889Y4166*
X1879Y4142*
X1868Y4122*
X1857Y4104*
X1844Y4087*
X1831Y4073*
X1818Y4061*
X1805Y4051*
X1790Y4043*
X1774Y4035*
X1756Y4028*
X1735Y4023*
X1713Y4018*
X1688Y4015*
X1661Y4013*
X1632Y4012*
X1425Y4012*
X1469Y4046D02*
X1469Y4046D01*
X1622Y4046*
X1655Y4046*
X1685Y4049*
X1711Y4053*
X1733Y4059*
X1752Y4066*
X1769Y4075*
X1784Y4085*
X1797Y4096*
X1813Y4114*
X1827Y4135*
X1839Y4159*
X1850Y4186*
X1858Y4216*
X1864Y4249*
X1867Y4285*
X1868Y4324*
X1866Y4377*
X1859Y4424*
X1848Y4464*
X1831Y4497*
X1812Y4525*
X1791Y4548*
X1767Y4565*
X1742Y4578*
X1720Y4584*
X1692Y4589*
X1659Y4592*
X1619Y4593*
X1469Y4593*
X1469Y4046*
X16752Y0557D02*
X16755Y0536D01*
X16777Y0540*
X16754Y0537*
X16732Y0535*
X16712Y0534*
X16682Y0536*
X16658Y0539*
X16638Y0544*
X16624Y0551*
X16612Y0559*
X16602Y0568*
X16595Y0577*
X16590Y0587*
X16585Y0602*
X16581Y0631*
X16578Y0673*
X16577Y0726*
X16577Y1231*
X16479Y1231*
X16479Y1233*
X16577Y1233*
X16577Y1451*
X16608Y1470*
X16608Y1233*
X16743Y1233*
X16743Y1231*
X16608Y1231*
X16608Y0718*
X16609Y0690*
X16610Y0666*
X16613Y0644*
X16619Y0625*
X16627Y0609*
X16637Y0596*
X16649Y0584*
X16664Y0574*
X16680Y0566*
X16698Y0561*
X16716Y0559*
X16735Y0558*
X16750Y0558*
X16765Y0559*
X16783Y0561*
X16752Y0557*
X17478Y0686D02*
X17374Y0603D01*
X17341Y0581*
X17309Y0563*
X17279Y0550*
X17249Y0540*
X17217Y0533*
X17184Y0528*
X17150Y0527*
X17095Y0531*
X17050Y0541*
X17013Y0556*
X16984Y0578*
X16960Y0604*
X16944Y0632*
X16934Y0665*
X16930Y0703*
X16932Y0725*
X16935Y0746*
X16942Y0765*
X16951Y0784*
X16962Y0802*
X16974Y0818*
X16988Y0831*
X17004Y0844*
X17022Y0855*
X17042Y0865*
X17063Y0873*
X17085Y0880*
X17104Y0885*
X17129Y0889*
X17160Y0894*
X17197Y0899*
X17274Y0909*
X17341Y0921*
X17398Y0933*
X17479Y0957*
X17480Y1007*
X17481Y1017*
X17481Y1025*
X17481Y1032*
X17478Y1076*
X17469Y1117*
X17452Y1154*
X17427Y1184*
X17388Y1211*
X17343Y1229*
X17294Y1239*
X17240Y1242*
X17190Y1240*
X17145Y1232*
X17105Y1219*
X17070Y1199*
X17040Y1172*
X17017Y1138*
X16998Y1098*
X16998Y1097*
X16966Y1101*
X16961Y1084*
X16973Y1114*
X16986Y1141*
X17001Y1163*
X17019Y1181*
X17040Y1198*
X17066Y1213*
X17097Y1226*
X17132Y1237*
X17171Y1245*
X17213Y1250*
X17259Y1251*
X17304Y1250*
X17343Y1246*
X17377Y1239*
X17406Y1231*
X17430Y1220*
X17451Y1209*
X17466Y1197*
X17477Y1186*
X17487Y1172*
X17496Y1156*
X17503Y1138*
X17508Y1117*
X17511Y1101*
X17512Y1076*
X17514Y1044*
X17514Y1003*
X17514Y0825*
X17515Y0740*
X17516Y0671*
X17519Y0618*
X17523Y0581*
X17530Y0551*
X17538Y0523*
X17549Y0496*
X17525Y0545*
X17501Y0545*
X17505Y0534*
X17499Y0553*
X17494Y0574*
X17478Y0686*
X17429Y0891D02*
X17429Y0891D01*
X17388Y0876*
X17338Y0863*
X17279Y0851*
X17211Y0840*
X17172Y0834*
X17140Y0827*
X17114Y0820*
X17094Y0813*
X17078Y0805*
X17063Y0795*
X17051Y0783*
X17041Y0770*
X17033Y0755*
X17027Y0739*
X17024Y0723*
X17022Y0706*
X17025Y0680*
X17032Y0657*
X17045Y0636*
X17063Y0617*
X17086Y0601*
X17113Y0590*
X17145Y0583*
X17182Y0581*
X17219Y0583*
X17255Y0590*
X17288Y0600*
X17319Y0615*
X17347Y0633*
X17372Y0655*
X17392Y0680*
X17408Y0708*
X17417Y0733*
X17424Y0764*
X17428Y0800*
X17429Y0842*
X17429Y0891*
X17823Y0545D02*
X17823Y1233D01*
X17842Y1233*
X17842Y1034*
X17976Y1191*
X18023Y1224*
X18079Y1244*
X18146Y1251*
X18175Y1250*
X18203Y1246*
X18230Y1239*
X18256Y1230*
X18279Y1218*
X18298Y1206*
X18312Y1193*
X18324Y1179*
X18335Y1163*
X18344Y1144*
X18352Y1123*
X18357Y1100*
X18360Y1082*
X18362Y1056*
X18363Y1022*
X18364Y0980*
X18364Y0545*
X18331Y0545*
X18331Y0975*
X18330Y1016*
X18327Y1053*
X18321Y1086*
X18313Y1116*
X18300Y1142*
X18282Y1167*
X18261Y1188*
X18236Y1205*
X18209Y1219*
X18179Y1229*
X18148Y1235*
X18116Y1237*
X18066Y1233*
X18019Y1220*
X17975Y1199*
X17933Y1169*
X17897Y1125*
X17873Y1068*
X17860Y1002*
X17856Y0927*
X17856Y0545*
X17823Y0545*
X18651Y0369D02*
X18683Y0364D01*
X18683Y0366*
X18696Y0333*
X18715Y0304*
X18740Y0281*
X18776Y0259*
X18816Y0244*
X18860Y0236*
X18907Y0233*
X18957Y0236*
X19003Y0244*
X19044Y0259*
X19081Y0280*
X19111Y0307*
X19136Y0338*
X19155Y0373*
X19169Y0413*
X19174Y0445*
X19178Y0486*
X19179Y0537*
X19180Y0718*
X19051Y0592*
X19009Y0566*
X18962Y0550*
X18910Y0545*
X18844Y0551*
X18787Y0570*
X18740Y0600*
X18698Y0643*
X18664Y0697*
X18640Y0756*
X18625Y0822*
X18620Y0894*
X18622Y0944*
X18629Y0993*
X18640Y1038*
X18656Y1082*
X18676Y1121*
X18699Y1155*
X18726Y1184*
X18757Y1208*
X18790Y1227*
X18827Y1240*
X18867Y1248*
X18910Y1251*
X18967Y1245*
X19016Y1228*
X19061Y1199*
X19192Y1065*
X19192Y1233*
X19214Y1233*
X19214Y0602*
X19212Y0519*
X19205Y0451*
X19195Y0399*
X19181Y0361*
X19164Y0332*
X19143Y0306*
X19116Y0283*
X19084Y0263*
X19048Y0246*
X19007Y0234*
X18960Y0227*
X18908Y0224*
X18847Y0228*
X18794Y0238*
X18748Y0255*
X18710Y0278*
X18682Y0305*
X18662Y0337*
X18650Y0378*
X18651Y0369*
X18706Y0903D02*
X18706Y0903D01*
X18710Y0831*
X18722Y0769*
X18741Y0717*
X18768Y0676*
X18801Y0645*
X18838Y0623*
X18878Y0609*
X18923Y0605*
X18967Y0609*
X19008Y0623*
X19045Y0645*
X19078Y0676*
X19105Y0717*
X19125Y0767*
X19136Y0828*
X19140Y0899*
X19136Y0967*
X19124Y1026*
X19104Y1076*
X19076Y1118*
X19042Y1150*
X19005Y1173*
X18964Y1187*
X18921Y1191*
X18878Y1187*
X18838Y1173*
X18802Y1150*
X18769Y1119*
X18742Y1078*
X18722Y1029*
X18710Y0970*
X18706Y0903*
X19519Y1482D02*
X19519Y1534D01*
X19552Y1534*
X19552Y1482*
X19519Y1482*
X19519Y0545D02*
X19519Y1233D01*
X19552Y1233*
X19552Y0545*
X19519Y0545*
X19879Y0545D02*
X19856Y0545D01*
X19856Y1534*
X19889Y1534*
X19889Y1071*
X20017Y1203*
X20058Y1230*
X20104Y1246*
X20157Y1251*
X20187Y1250*
X20216Y1245*
X20245Y1237*
X20273Y1226*
X20299Y1213*
X20322Y1197*
X20343Y1179*
X20361Y1158*
X20378Y1135*
X20393Y1108*
X20407Y1079*
X20418Y1046*
X20428Y1012*
X20435Y0977*
X20439Y0940*
X20440Y0902*
X20434Y0812*
X20417Y0737*
X20390Y0673*
X20352Y0621*
X20307Y0579*
X20259Y0550*
X20206Y0533*
X20149Y0527*
X20095Y0533*
X20048Y0551*
X20008Y0580*
X19879Y0731*
X19879Y0545*
X19928Y0895D02*
X19928Y0895D01*
X19931Y0829*
X19938Y0773*
X19950Y0726*
X19967Y0690*
X20001Y0644*
X20041Y0612*
X20087Y0593*
X20138Y0586*
X20180Y0591*
X20220Y0605*
X20256Y0629*
X20290Y0663*
X20318Y0705*
X20338Y0758*
X20350Y0819*
X20354Y0890*
X20350Y0962*
X20339Y1024*
X20319Y1076*
X20292Y1118*
X20260Y1151*
X20225Y1174*
X20186Y1187*
X20144Y1192*
X20102Y1187*
X20062Y1173*
X20026Y1149*
X19992Y1116*
X19964Y1073*
X19944Y1022*
X19932Y0963*
X19928Y0895*
X20743Y0545D02*
X20743Y0596D01*
X20793Y0596*
X20793Y0545*
X20743Y0545*
X21125Y0545D02*
X21125Y1534D01*
X21157Y1534*
X21157Y0545*
X21125Y0545*
X21456Y0228D02*
X21454Y0249D01*
X21405Y0261*
X21428Y0256*
X21450Y0254*
X21472Y0253*
X21498Y0254*
X21522Y0257*
X21546Y0264*
X21567Y0274*
X21586Y0286*
X21602Y0299*
X21617Y0315*
X21630Y0333*
X21640Y0352*
X21650Y0376*
X21662Y0406*
X21676Y0443*
X21678Y0449*
X21680Y0456*
X21683Y0465*
X21694Y0493*
X21413Y1233*
X21448Y1233*
X21601Y0810*
X21616Y0766*
X21630Y0722*
X21644Y0677*
X21707Y0448*
X21767Y0676*
X21780Y0720*
X21794Y0763*
X21809Y0807*
X21965Y1233*
X21991Y1233*
X21716Y0499*
X21693Y0439*
X21673Y0390*
X21657Y0352*
X21643Y0326*
X21627Y0299*
X21611Y0277*
X21594Y0260*
X21578Y0247*
X21561Y0237*
X21542Y0230*
X21520Y0226*
X21496Y0224*
X21481Y0225*
X21465Y0227*
X21446Y0232*
X21456Y0228*
M02*